<svg xmlns="http://www.w3.org/2000/svg" viewBox="0 0 120 120">
    <path fill="none" d="M0 0h120v120H0z"/>
    <path d="M87.086 120h-.007a5.805 5.805 0 0 1-5.8-5.806v-9.679h-5.8a5.81 5.81 0 0 1-5.805-5.806V75.478a1.95 1.95 0 0 0-1.934-1.935H65.8V96.77a5.813 5.813 0 0 1-5.8 5.805H5.8A5.809 5.809 0 0 1 0 96.77V23.215a5.809 5.809 0 0 1 5.8-5.81H60a5.816 5.816 0 0 1 5.809 5.81v23.242h1.934a1.94 1.94 0 0 0 1.935-1.935V21.291a5.813 5.813 0 0 1 5.8-5.806H81.3v-9.68A5.812 5.812 0 0 1 87.1 0h27.1a5.811 5.811 0 0 1 5.8 5.805v23.231a5.813 5.813 0 0 1-5.8 5.806H87.1l-.023-.035h-.006a5.8 5.8 0 0 1-5.791-5.819v-9.68h-5.81a1.94 1.94 0 0 0-1.929 1.95v23.226a5.811 5.811 0 0 1-5.8 5.805H65.8v7.734h15.49v-9.68a5.812 5.812 0 0 1 5.81-5.806h27.083a5.812 5.812 0 0 1 5.8 5.806V71.6a5.812 5.812 0 0 1-5.8 5.806H87.091a5.808 5.808 0 0 1-5.8-5.806v-9.7H65.805v7.75h1.934a5.817 5.817 0 0 1 5.805 5.805v23.231a1.934 1.934 0 0 0 1.933 1.935H81.3v-9.68a5.813 5.813 0 0 1 5.8-5.807h27.079a5.814 5.814 0 0 1 5.8 5.807v23.252a5.813 5.813 0 0 1-5.8 5.806Zm-1.919-5.793a1.935 1.935 0 0 0 1.935 1.935H114.2a1.939 1.939 0 0 0 1.935-1.939V96.785H85.167ZM3.87 96.781a1.934 1.934 0 0 0 1.93 1.935h54.193a1.938 1.938 0 0 0 1.934-1.935V36.773H3.87Zm83.23-7.745a1.942 1.942 0 0 0-1.935 1.932V92.9h30.964v-1.932a1.952 1.952 0 0 0-1.935-1.937H87.1Zm-1.933-17.425a1.934 1.934 0 0 0 1.933 1.935h27.1a1.934 1.934 0 0 0 1.935-1.924V54.194H85.167ZM87.1 46.449a1.94 1.94 0 0 0-1.935 1.924v1.943h30.964v-1.935a1.949 1.949 0 0 0-1.935-1.935H87.1ZM3.862 23.215V32.9h58.065v-9.68a1.949 1.949 0 0 0-1.934-1.935H5.812l-.012-.009a1.939 1.939 0 0 0-1.938 1.939Zm110.326 7.745a1.939 1.939 0 0 0 1.942-1.935v-17.41H85.167v17.41A1.935 1.935 0 0 0 87.1 30.96h27.079ZM87.094 3.862a1.943 1.943 0 0 0-1.942 1.932v1.935h30.979V5.794a1.95 1.95 0 0 0-1.931-1.935H87.1ZM17.417 89.093a3.827 3.827 0 0 1-3.81-3.807v-3.863a3.83 3.83 0 0 1 3.8-3.815h30.974a3.826 3.826 0 0 1 3.809 3.815v3.855a3.818 3.818 0 0 1-3.8 3.815Zm-.059-3.815 31.028.064h.059v-3.919l-31.028-.064Zm.059-11.795a3.835 3.835 0 0 1-3.81-3.807v-3.863A3.829 3.829 0 0 1 17.409 62h30.972a3.826 3.826 0 0 1 3.809 3.815v3.855a3.824 3.824 0 0 1-3.8 3.8v.013Zm-.059-3.815 31.028.064h.059v-3.919l-31.028-.065Zm.059-11.794a3.827 3.827 0 0 1-3.81-3.8V50.2a3.834 3.834 0 0 1 3.8-3.811h30.974A3.825 3.825 0 0 1 52.19 50.2v3.866a3.818 3.818 0 0 1-3.8 3.807Zm-.059-3.807 31.028.057h.059V50.2l-31.028-.06Zm6.9-25.855a1.763 1.763 0 0 1 .162-3.523h.237a1.763 1.763 0 0 1 0 3.523Zm-7.5 0a1.763 1.763 0 0 1 .162-3.523h.236a1.763 1.763 0 0 1 0 3.523Zm-7.5 0a1.763 1.763 0 0 1 .162-3.523h.236a1.763 1.763 0 0 1 0 3.523Z"
          fill="#a89875"/>
</svg>