<svg xmlns="http://www.w3.org/2000/svg" viewBox="0 0 120 120">
    <path fill="none" d="M0 0h120v120H0z"/>
    <path d="M9.678 120A9.687 9.687 0 0 1 0 110.322V32.9a9.689 9.689 0 0 1 9.678-9.675h1.939V5.805A5.813 5.813 0 0 1 17.411 0h96.777A5.821 5.821 0 0 1 120 5.806v92.906a5.813 5.813 0 0 1-5.805 5.805H77.422v5.805A9.688 9.688 0 0 1 67.743 120Zm0-3.874h58.059a5.813 5.813 0 0 0 5.805-5.805V84.908a5.8 5.8 0 0 0-2.088-4.459l-9.519-7.939V48.375a5.817 5.817 0 0 0-5.805-5.793H9.678a9.592 9.592 0 0 1-5.805-1.939v69.678a5.81 5.81 0 0 0 5.805 5.805Zm104.511-15.484v.015a1.937 1.937 0 0 0 1.933-1.935V19.365H15.477V38.7h40.64a9.693 9.693 0 0 1 9.68 9.678v22.329l8.13 6.776a9.667 9.667 0 0 1 3.484 7.433v15.727ZM3.844 32.933a5.812 5.812 0 0 0 5.834 5.791h1.939V27.1H9.633a5.812 5.812 0 0 0-5.789 5.8v.033Zm112.278-17.449V5.805a1.946 1.946 0 0 0-1.933-1.935H17.411a1.937 1.937 0 0 0-1.934 1.934v9.679Zm-97.083 84.855a3.828 3.828 0 0 1-3.81-3.806V92.67a3.829 3.829 0 0 1 3.8-3.814h30.977a3.826 3.826 0 0 1 3.811 3.814v3.855a3.822 3.822 0 0 1-3.8 3.814Zm30.972-3.75 1.935-.064H50.07V92.67l-31.031-.064-.059 3.919ZM19.039 84.732a3.833 3.833 0 0 1-3.81-3.806v-3.863a3.828 3.828 0 0 1 3.8-3.814h30.977a3.825 3.825 0 0 1 3.811 3.814v3.855a3.826 3.826 0 0 1-3.8 3.814Zm30.972-3.75 1.935-.064H50.07v-3.855L19.039 77l-.059 3.919Zm39.321-7.841c-6.794-9.7-5.846-8.457-8.205-11.651s-4.781-6.472-6.112-10.327A17.864 17.864 0 0 1 74 45.343a15.674 15.674 0 0 1 3.363-9.73 16.743 16.743 0 0 1 26.493 0 15.672 15.672 0 0 1 3.363 9.729 17.871 17.871 0 0 1-1.016 5.821c-1.332 3.856-3.762 7.146-6.112 10.327-2.321 3.141-1.382 1.906-8.206 11.652a1.556 1.556 0 0 1-2.551 0ZM77.955 50.147c1.176 3.406 3.462 6.5 5.674 9.495 1.721 2.33 1.212 1.625 6.977 9.89 5.772-8.272 5.255-7.559 6.978-9.89 2.21-2.994 4.5-6.089 5.674-9.495a14.677 14.677 0 0 0 .836-4.743 12.645 12.645 0 0 0-2.7-7.887 13.632 13.632 0 0 0-21.572 0 12.64 12.64 0 0 0-2.7 7.887 14.688 14.688 0 0 0 .833 4.743ZM19.039 69.124a3.828 3.828 0 0 1-3.81-3.8v-3.873a3.828 3.828 0 0 1 3.8-3.81h30.977a3.821 3.821 0 0 1 3.811 3.81v3.867a3.82 3.82 0 0 1-3.8 3.805Zm30.971-3.75 1.935-.056H50.07v-3.867l-31.031-.06-.059 3.928ZM81.9 45.846a8.707 8.707 0 1 1 8.707 8.706 8.717 8.717 0 0 1-8.707-8.706Zm8.707 5.594a5.594 5.594 0 1 0-5.594-5.594 5.6 5.6 0 0 0 5.594 5.594Zm-54.4-39.927a1.76 1.76 0 0 1-1.68-1.753v-.091a1.759 1.759 0 0 1 1.841-1.678h.236a1.761 1.761 0 0 1 1.68 1.68v.091a1.762 1.762 0 0 1-1.682 1.75h-.318l-.078.001Zm-7.514 0a1.764 1.764 0 0 1-1.682-1.753v-.091a1.763 1.763 0 0 1 1.844-1.678h.4a1.763 1.763 0 0 1 1.682 1.75v.091a1.761 1.761 0 0 1-1.84 1.68h-.32c-.028 0-.058.003-.085.001Zm-7.752 0A1.762 1.762 0 0 1 19.26 9.76v-.091a1.762 1.762 0 0 1 1.843-1.678h.236a1.763 1.763 0 0 1 1.68 1.68v.091a1.762 1.762 0 0 1-1.682 1.75h-.318l-.079.001Z"
          fill="#6a6767"/>
</svg>