<svg xmlns="http://www.w3.org/2000/svg" viewBox="0 0 120.999 121.002">
    <path fill="none" d="M.5.502h120v120H.5z"/>
    <path d="M16.682 98.312H9.875C4.618 98.153.5 91.522.5 83.219c0-.542.045-1.094.088-1.63.026-.324.052-.649.068-.973a19.168 19.168 0 0 1 1.955-6.92 10.033 10.033 0 0 1 3.712-4.457H6.14c-.06-1.044-.1-2.1-.1-3.154a54.286 54.286 0 0 1 20.482-42.451l-13.389-4.473a1.753 1.753 0 0 1-1.1-2.219 1.717 1.717 0 0 1 1.1-1.1l13.672-5.09a1.73 1.73 0 0 1 2.214 1.029 1.756 1.756 0 0 1-.052 1.33 1.7 1.7 0 0 1-.96.91l-8.854 3.481 40.014 13.4.079.027 40.095-13.427-40.014-13.4-.078-.026L43.268 9.26a1.736 1.736 0 0 1-1.2-3.255L58.678.581a2.051 2.051 0 0 1 1.118 0l45.554 15.267a1.721 1.721 0 0 1 .994.887 1.537 1.537 0 0 1 .078.2 1.74 1.74 0 0 1-1.105 2.2l-5.375 1.815-.17.1-.044 7.295a54.169 54.169 0 0 1 15.308 37.752c0 1.058-.038 2.11-.1 3.154h-.2a11.046 11.046 0 0 1 3.142 3.567l.062.08a1.1 1.1 0 0 1 .092.117 18.129 18.129 0 0 1 2.212 6.3 19.329 19.329 0 0 1 .25 3.941c0 8.465-4.195 15.095-9.552 15.095h-6.564a54.433 54.433 0 0 1-87.694-.023Zm4.77 0a50.664 50.664 0 0 0 78.155.022h-3.889a1.874 1.874 0 0 1-1.2-.427c-.034-.029-.067-.061-.1-.091a1.614 1.614 0 0 1 .016-2.283 1.856 1.856 0 0 1 1.193-.534l14.973-.337c1.5 0 3.063-1.1 4.263-2.994l.043-.074a18.2 18.2 0 0 0 1.984-8.537 20.278 20.278 0 0 0-.777-5.721 18.043 18.043 0 0 0-1.107-2.673.7.7 0 0 1-.036-.086l-.039-.093c-1.143-2.024-2.645-3.184-4.121-3.184h-7.164v4.235a1.729 1.729 0 0 1-1.732 1.709h-.009a1.792 1.792 0 0 1-1.138-.4l-2.937-2.585-2.93 2.582a1.763 1.763 0 0 1-1.126.41h-.124a1.671 1.671 0 0 1-1.212-.589 1.76 1.76 0 0 1-.427-1.118v-4.112H69.78l.238.382a21.432 21.432 0 0 1 0 22.8l-.238.382h11.655a1.68 1.68 0 0 1 1.682 1.619v.1a1.713 1.713 0 0 1-1.7 1.568H71.89l5.053 12.2a1.643 1.643 0 0 1-1.016 2.086 1.79 1.79 0 0 1-1.515-.139l-5.712-3.275-2.168 2.817a1.817 1.817 0 0 1-.686.519 1.774 1.774 0 0 1-1.373.055 1.8 1.8 0 0 1-1.015-.932L59.1 101.16l-4.362 10.45a1.468 1.468 0 0 1-.5.652 1.789 1.789 0 0 1-2.509-.284l-2.173-2.825-5.713 3.277a1.81 1.81 0 0 1-2.4-.534 1.559 1.559 0 0 1-.133-1.5l3.784-9.116a1.808 1.808 0 0 1 1.658-1.088 1.853 1.853 0 0 1 .583.1 1.718 1.718 0 0 1 1 .887 1.584 1.584 0 0 1 .046 1.248l-1.917 4.645 2.666-1.542a1.791 1.791 0 0 1 2.322.45l1.232 1.626 3.853-9.3Zm40.256 0 3.852 9.3 1.234-1.6a1.765 1.765 0 0 1 2.318-.451l2.641 1.516-3.661-8.763Zm.854-23.336.074.243a22.313 22.313 0 0 1 1.452 8.006 19.359 19.359 0 0 1-3.27 11.388l-.261.389h3.173c2.936 0 6.079-4.735 6.079-11.784 0-5.563-2.6-11.785-6.079-11.785H16.113l.239.384a21.592 21.592 0 0 1 0 22.8l-.239.383h38.4c2.923 0 6.053-4.736 6.053-11.781a18.816 18.816 0 0 0-1.223-6.97 1.465 1.465 0 0 1 .01-1.247 1.684 1.684 0 0 1 .959-.9 1.8 1.8 0 0 1 2.252.874ZM10.9 85.034a8.209 8.209 0 0 0-.923 4.034 15.523 15.523 0 0 0 1.1 5.455l.1.252.244-.119c2.354-1.157 4.213-4.968 4.628-9.484l.025-.274h-5.1Zm-6.885-1.832A15.952 15.952 0 0 0 6.3 92.124l.7 1.164-.24-1.337c-1.2-6.71 2.021-9.848 2.055-9.88a1.874 1.874 0 0 1 1.255-.508h6l-.024-.273c-.5-5.513-3.122-9.831-5.976-9.831-3.57 0-6.055 6.196-6.055 11.743Zm91-10.44 1.5-1.228a2.117 2.117 0 0 1 2.589 0l1.516 1.229.008-12.363h-5.646Zm-85.2-6.68c0 .682.023 1.36.053 2.036.032 0 .062-.009.1-.01l82.056-.019v-9.451a1.739 1.739 0 0 1 1.725-1.736h2.69l.1-34.052v-.106l-.077-.075c-.109-.1-.211-.2-.312-.292l-.109-.1L59.8 34.391a1.916 1.916 0 0 1-1.1 0l-27.228-9.122v23.772l.145.067c2.993 1.4 13.838 3.468 27.607 3.468 13.842 0 24.672-2.076 27.634-3.48l.143-.068v-18a1.717 1.717 0 0 1 1.713-1.686h.02a1.764 1.764 0 0 1 1.737 1.66v18.762c0 1.11 0 2.788-10.075 4.591a125.984 125.984 0 0 1-20.643 1.719h-1.06a125.676 125.676 0 0 1-20.612-1.718C28 52.552 28 50.873 28 49.764V27.27A50.522 50.522 0 0 0 9.809 66.086Zm101.413 1.9c.027-.63.047-1.263.047-1.9a50.349 50.349 0 0 0-11.582-32.13l-.139 22.95h2.355a1.757 1.757 0 0 1 1.738 1.76v9.3l7.172-.011c.136.002.268.026.403.034ZM86.135 97.875l-.014-.014a1.906 1.906 0 0 1 2.7-2.691l.014.014a1.904 1.904 0 0 1-2.695 2.691Zm-53.626-86.2-.009-.017a1.902 1.902 0 0 1 2.69-2.691l.014.014a1.904 1.904 0 0 1-2.695 2.691Z"
          fill="#ad8842"/>
</svg>