<svg xmlns="http://www.w3.org/2000/svg" viewBox="0 0 121.019 121.014">
    <path fill="none" d="M.518.514h120v120h-120z"/>
    <path d="M97.257 120.508q-1.042 0-2.09-.1c-.022 0-.042 0-.064-.007q-1.069-.1-2.138-.308c-.027 0-.054-.011-.083-.017-.69-.136-1.38-.3-2.065-.5-.061-.017-.12-.039-.18-.057-.619-.188-1.234-.4-1.845-.644l-.312-.128a23.31 23.31 0 0 1-1.64-.76c-.121-.062-.245-.121-.366-.185-.571-.3-1.12-.633-1.657-.977-.107-.069-.215-.137-.32-.207-.059-.04-.121-.076-.179-.115l-.223-.18a23.2 23.2 0 0 1-2.406-1.945l-.325-.264c-.068-.065-.131-.133-.2-.2a54.207 54.207 0 0 1-70.021-32.045A23.1 23.1 0 0 1 .737 65.599a23.373 23.373 0 0 1 2.542-14.2 1.9 1.9 0 0 1 3.344 1.8 19.52 19.52 0 0 0 .095 18.515 11.057 11.057 0 0 1 7.564-6.917l1.432-.378a9.735 9.735 0 0 1-1.818-5.673v-2.06a9.791 9.791 0 1 1 19.582 0v2.06a9.735 9.735 0 0 1-1.818 5.673l1.432.378a11.058 11.058 0 0 1 7.57 6.932 19.381 19.381 0 0 0-26.16-26.415 1.894 1.894 0 0 1-2.63-2.443 1.832 1.832 0 0 1 .141-.489c8.662-18.543 28.329-33.643 50.08-33.643a53.927 53.927 0 0 1 14.581 2.012 1.267 1.267 0 0 1 .663 1.4l-.8 1.745c-.006.014-.022.023-.031.037a1.778 1.778 0 0 1-.075.264 15.6 15.6 0 0 0 1.03 13.52 8.941 8.941 0 0 1 6.131-5.635l.509-.135a7.925 7.925 0 0 1-1.133-4.09v-1.581a7.964 7.964 0 1 1 15.928 0v1.583a7.916 7.916 0 0 1-1.133 4.09l.508.135a8.941 8.941 0 0 1 6.131 5.634 15.581 15.581 0 0 0-19.25-22.292 1.9 1.9 0 1 1-1.408-3.529 19.368 19.368 0 0 1 22.564 29.759 54.76 54.76 0 0 1 10.1 31.415 54.021 54.021 0 0 1-2.961 17.636 20.515 20.515 0 0 1 5.914 9.377 23.459 23.459 0 0 1 .779 3.02c.005.032.014.062.02.094.071.388.116.779.167 1.171a22.965 22.965 0 0 1 .191 3.368c-.005.342 0 .684-.022 1.026v.033a23.11 23.11 0 0 1-.173 1.759 23.069 23.069 0 0 1-14.939 18.513c-.08.03-.162.056-.242.085-.577.2-1.158.391-1.746.549-.423.114-.848.22-1.277.311-.242.05-.484.094-.727.137-.535.1-1.073.175-1.615.232-.141.015-.282.026-.423.038q-.949.085-1.906.091h-.075l-.116-.003ZM88.93 103.43a7.257 7.257 0 0 0-5.4 7.013v.464c.046.048.091.094.139.141a19.44 19.44 0 0 0 1.939 1.674c1.128.757 3.115 1.905 4.223 2.465.048.019.091.044.138.063l.107.045a19.392 19.392 0 0 0 1.84.64c.175.051.353.083.528.129.432.113.865.227 1.3.309.314.059.631.093.947.137s.611.094.916.121.617.032.925.045c.327.014.653.036.979.032.232 0 .464-.023.7-.033.412-.019.824-.033 1.233-.078.115-.013.23-.036.345-.05a19.481 19.481 0 0 0 11.419-5.673v-.43a7.258 7.258 0 0 0-5.4-7.014l-3.927-1.038a9.752 9.752 0 0 1-9.019 0Zm-26.837 10.216a50.229 50.229 0 0 0 16.459-2.77c-.058-.081-.111-.164-.167-.245-.073-.105-.144-.211-.215-.316-.091-.134-.187-.266-.274-.4l-.059-.111a23.256 23.256 0 0 1-1.675-3.136l-.056-.1c-.023-.054-.042-.109-.066-.163-.04-.094-.075-.189-.113-.284-.1-.254-.208-.508-.3-.765s-.188-.538-.277-.809c-.027-.081-.056-.161-.082-.242a23.212 23.212 0 0 1-1.085-7.168l.041-.453a23.338 23.338 0 0 1 .268-2.96l.034-.373c.049-.28.11-.56.17-.84L41.563 77.13c-.467.567-.96 1.12-1.49 1.65a23.086 23.086 0 0 1-23.833 5.534 50.6 50.6 0 0 0 45.853 29.332Zm21.225-29.632c-.252.266-.507.53-.741.807-.052.06-.1.125-.149.186-.3.363-.591.73-.86 1.109a19.174 19.174 0 0 0-2.3 4.322l.015.006-.064.134a19.476 19.476 0 0 0 1.168 16.1 11.063 11.063 0 0 1 7.571-6.932l1.432-.378a9.744 9.744 0 0 1-1.817-5.674v-2.05a9.791 9.791 0 1 1 19.582 0v2.059a9.751 9.751 0 0 1-1.818 5.674l1.432.378a11.056 11.056 0 0 1 7.555 6.9c.039-.069.084-.132.121-.2l.058-.113c.291-.556.561-1.129.8-1.723a1.9 1.9 0 0 0 .071-.185 46.858 46.858 0 0 0 1.244-5.12 17.258 17.258 0 0 0-6.538-16.5 1.894 1.894 0 0 1-.6-2.092 50.431 50.431 0 0 0-5.762-46.291 19.214 19.214 0 0 1-27.977-2.528l-30.6 21.3-.78-1.134.587 1.1a23.313 23.313 0 0 1 0 18.437l-1.244 2.327 32.1 14.9c.028-.068.049-.139.077-.206a22.983 22.983 0 0 1 9.576-11.184 23.343 23.343 0 0 1 14.061-3.194 1.9 1.9 0 0 1-.356 3.785q-.893-.084-1.779-.084a19.532 19.532 0 0 0-14.065 6.064Zm8.051 7.63v2.06a5.993 5.993 0 1 0 11.985 0v-2.06a5.993 5.993 0 1 0-11.985 0Zm-76.118-23.17a7.258 7.258 0 0 0-5.4 7.014v.462c.047.047.091.1.138.143a19.388 19.388 0 0 0 27.4 0c.047-.046.092-.094.139-.141v-.464a7.259 7.259 0 0 0-5.4-7.014l-3.927-1.037a9.751 9.751 0 0 1-9.018 0Zm2.443-11.785v2.06a5.993 5.993 0 1 0 11.985 0v-2.06a5.993 5.993 0 1 0-11.985 0Zm9.2-17.257a22.969 22.969 0 0 1 13.176 6.566 23.275 23.275 0 0 1 3.085 3.822l.054.1 30.542-21.261-.717-1.345a19.393 19.393 0 0 1-.412-13.7 50.107 50.107 0 0 0-10.528-1.125c-18.91 0-36.17 12.029-44.949 27.675a23.675 23.675 0 0 1 6.629-.955 22.607 22.607 0 0 1 3.123.222ZM84.56 25.758a5.14 5.14 0 0 0-3.823 4.965v.4a1.881 1.881 0 0 1-.068.5 15.556 15.556 0 0 0 20.456.059v-.95a5.136 5.136 0 0 0-3.822-4.963l-2.856-.754a7.948 7.948 0 0 1-7.032 0Zm2.206-9.482v1.583a4.165 4.165 0 1 0 8.33 0v-1.582a4.165 4.165 0 1 0-8.33 0Zm16.793 62.565-.011-.012a1.892 1.892 0 1 1 1.345.565 1.877 1.877 0 0 1-1.334-.552ZM7.606 48.414l-.013-.014a1.901 1.901 0 1 1 2.685-2.692l.014.014a1.901 1.901 0 1 1-2.686 2.692ZM78.951 9.366l-.012-.011a1.889 1.889 0 1 1 1.346.565 1.878 1.878 0 0 1-1.334-.554Z"
          fill="#665e90"/>
</svg>