<svg xmlns="http://www.w3.org/2000/svg" viewBox="0 0 120.001 120"><path fill="none" d="M0 0h120v120H0z"/><path d="M70.549 120a2.344 2.344 0 1 1 0-4.687H103.6a11.719 11.719 0 0 0 0-23.438h-7.036a2.343 2.343 0 0 1-2.344-2.344V62.343H82.5a9.375 9.375 0 1 1 0-18.75h11.709V32.812H60.375a23.192 23.192 0 0 1-1.157 2.343l-13 22.5h4.409A9.375 9.375 0 0 1 60 67.031a4.693 4.693 0 0 0 4.689 4.687h8.436a9.375 9.375 0 1 1 0 18.75H38.84a4.683 4.683 0 0 0-4.621 4.747v.067a9.311 9.311 0 0 1-9.374 9.248H4.689v10.781h44.764a2.344 2.344 0 1 1 0 4.687H2.345A2.345 2.345 0 0 1 0 117.656V30.468a2.345 2.345 0 0 1 2.345-2.344h13.6a23.437 23.437 0 1 1 45.929 0H94.22V16.405a2.342 2.342 0 0 1 2.344-2.343h7.036A16.423 16.423 0 0 1 120 30.468v73.125A16.425 16.425 0 0 1 103.6 120ZM4.689 99.843H24.85a4.626 4.626 0 0 0 4.682-4.571v-.117a9.375 9.375 0 0 1 9.375-9.374h34.218a4.687 4.687 0 1 0 0-9.374h-8.436a9.375 9.375 0 0 1-9.375-9.375 4.692 4.692 0 0 0-4.689-4.688h-7.106L40.948 66.8a2.346 2.346 0 0 1-4.063 0l-2.57-4.455H4.689Zm110.625-7.721V30.468A11.734 11.734 0 0 0 103.6 18.749h-4.693v68.439h4.7a16.358 16.358 0 0 1 11.707 4.934ZM29.55 7.207a18.751 18.751 0 0 0-6.89 25.605l16.247 28.125 16.248-28.125A18.748 18.748 0 0 0 29.55 7.207Zm48.264 45.761a4.687 4.687 0 0 0 4.686 4.688h11.72v-9.375H82.5a4.686 4.686 0 0 0-4.686 4.687ZM4.689 57.641H31.6l-13-22.5a23.745 23.745 0 0 1-1.17-2.328H4.689Zm52.968 60.015A2.344 2.344 0 1 1 60 120a2.344 2.344 0 0 1-2.343-2.344Zm-28.125-94.22a9.375 9.375 0 1 1 9.375 9.375 9.376 9.376 0 0 1-9.375-9.375Zm4.688 0a4.687 4.687 0 1 0 4.687-4.687 4.687 4.687 0 0 0-4.687 4.687Z" fill="#398e88"/></svg>