<svg xmlns="http://www.w3.org/2000/svg" viewBox="0 0 120 120">
    <path fill="none" d="M0 0h120v120H0z"/>
    <path d="M8.907 120A8.913 8.913 0 0 1 0 111.094V22.031a11.734 11.734 0 0 1 11.719-11.719h11.156V7.031a7.031 7.031 0 0 1 14.062 0v3.281h39.376V7.031a7.032 7.032 0 0 1 14.063 0v3.375A2.5 2.5 0 0 1 91 10.32h9.352a11.738 11.738 0 0 1 11.72 11.711v73.924a2.344 2.344 0 0 1-4.688 0v-61.5H22.875a2.344 2.344 0 0 1 0-4.688h84.51v-7.736A7.041 7.041 0 0 0 100.354 15h-9.338a2.181 2.181 0 0 1-.641-.087v3a7.031 7.031 0 1 1-14.062 0V15H36.938v2.929a7.031 7.031 0 0 1-14.062 0V15H11.712A7.038 7.038 0 0 0 4.7 22.031v89.313a4.223 4.223 0 0 0 8.442-.25v-6.064a2.342 2.342 0 0 1 2.343-2.344h32.328a2.343 2.343 0 1 1 0 4.686H17.839v3.721a8.893 8.893 0 0 1-1.065 4.217H111.1a4.217 4.217 0 0 0 4.217-4.217v-3.721h-42.8a2.343 2.343 0 1 1 0-4.686h45.139A2.342 2.342 0 0 1 120 105.03v6.064a8.916 8.916 0 0 1-8.906 8.906ZM81 7.031v10.9a2.344 2.344 0 0 0 4.688 0v-10.9a2.344 2.344 0 0 0-4.688 0Zm-53.437 0v10.9a2.343 2.343 0 0 0 4.686 0v-10.9a2.343 2.343 0 1 0-4.686 0Zm31.7 100.23a5.625 5.625 0 0 1-3.1-2.531Q50.651 96.36 45.127 88l-4.875-7.4a31.205 31.205 0 0 1-4.83-11.63 22.948 22.948 0 0 1 .625-10.6 24.7 24.7 0 0 1 8.565-12.69 23.664 23.664 0 0 1 10.5-4.848A24.436 24.436 0 0 1 77.58 47.6a24.155 24.155 0 0 1 7.125 14.112 24.612 24.612 0 0 1-3.364 16.2c-1.65 2.861-3.5 5.648-5.295 8.348l-1.741 2.624q-2.794 4.252-5.594 8.494-2.43 3.671-4.846 7.35a5.6 5.6 0 0 1-3.1 2.531l-.121.034Zm.88-62.325a25.308 25.308 0 0 0-2.976.184 19.267 19.267 0 0 0-8.967 3.562 20.2 20.2 0 0 0-7.583 10.3 18.2 18.2 0 0 0-.851 8.336 25.779 25.779 0 0 0 4.26 10.732q6.157 9.353 12.334 18.7l3.64 5.512 2.363-3.577q3.272-4.932 6.517-9.885l1.647-2.506c2.249-3.415 4.563-6.944 6.749-10.463A20.445 20.445 0 0 0 80.3 66.69v-.008a19.055 19.055 0 0 0-4.609-14.359 19.645 19.645 0 0 0-15.352-7.388ZM51.35 73.887a12.2 12.2 0 0 1 .074-17.251 11.821 11.821 0 0 1 8.625-3.547 12.2 12.2 0 1 1-8.7 20.8Zm.538-8.573a8.145 8.145 0 0 0 8.1 8.1h.026a8.15 8.15 0 0 0 8.115-8.1 8.117 8.117 0 1 0-16.233.008ZM9.563 32.107a2.343 2.343 0 1 1 2.343 2.344 2.345 2.345 0 0 1-2.343-2.344Z"
          fill="#538cc4"/>
</svg>