<svg xmlns="http://www.w3.org/2000/svg" viewBox="0 0 120 120">
    <path fill="none" d="M0 0h120v120H0z"/>
    <path d="M10 120a10.008 10.008 0 0 1-10-10V10A10.016 10.016 0 0 1 10 0h100a10.019 10.019 0 0 1 10 10v100a10.007 10.007 0 0 1-10 10Zm-5.993-9.956v.008a5.993 5.993 0 0 0 6 5.985H26v-16h-.008a5.994 5.994 0 0 1-5.985-6v-4.876a6.141 6.141 0 0 1 .878-3.138l8.248-13.184a6.025 6.025 0 0 1 5.1-2.821h5.323a21.952 21.952 0 0 1 35.82-23.731 5.769 5.769 0 0 1 4.633-2.362 6.212 6.212 0 0 1 4 1.458A6.071 6.071 0 0 1 94 50.377c0 3.764-2.787 6.178-6.645 9.519l-1.631 1.42a2.355 2.355 0 0 1-1.691.675 2.611 2.611 0 0 1-1.846-.754l-.233-.2c.015.316.049.629.049.949a21.864 21.864 0 0 1-1.541 8h5.325a6.023 6.023 0 0 1 5.085 2.8l8.23 13.158a6.21 6.21 0 0 1 .9 3.183V94a6 6 0 0 1-6 6v16h16a6 6 0 0 0 5.998-5.986v-90H4.008ZM30 116h60.01v-16H30Zm-6-21.991v.007A1.992 1.992 0 0 0 26 96h68.01a2 2 0 0 0 2-2v-4h-72Zm8.509-19.053L25.6 86h68.8l-6.9-11.059A2.051 2.051 0 0 0 85.8 74h-7.39a22.018 22.018 0 0 1-3.352 4h4.953a2 2 0 1 1 0 4h-40a2 2 0 1 1 0-4h4.942a22.008 22.008 0 0 1-3.333-4h-7.4a2.066 2.066 0 0 0-1.709.956Zm11.468-21.169A18 18 0 0 0 51.842 78h16.347a18.125 18.125 0 0 0 9.824-16 18 18 0 0 0-34.039-8.212ZM78.156 49.6a22.208 22.208 0 0 1 2.542 5c.8.754 1.692 1.537 2.713 2.422l.6.518.754-.641C88.292 53.817 90 52.261 90.01 50.4v-.023a2.262 2.262 0 0 0-2-2.475 2.709 2.709 0 0 0-2.2 1.454 1.961 1.961 0 0 1-1.81 1.13 1.99 1.99 0 0 1-1.789-1.13 2.687 2.687 0 0 0-2.2-1.435 1.974 1.974 0 0 0-1.855 1.679ZM4 10v6h112v-6a6 6 0 0 0-6-6H9.994A6 6 0 0 0 4 10Zm54.241 61.747v-.4a5.948 5.948 0 0 1-3.171-2.58 1.985 1.985 0 0 1 3.435-1.985 1.985 1.985 0 1 0 1.721-2.973A5.942 5.942 0 0 1 58.433 52.2a1.767 1.767 0 0 1-.079-.4 1.883 1.883 0 0 1 3.766 0 1.7 1.7 0 0 1-.086.411 5.931 5.931 0 0 1 3.389 2.682 1.985 1.985 0 0 1-3.434 1.985 1.985 1.985 0 1 0-1.722 2.972 5.942 5.942 0 0 1 5.623 3.963l-.03.031a5.932 5.932 0 0 1-3.654 7.533v.377a1.987 1.987 0 0 1-1.9 1.9h-.088a1.987 1.987 0 0 1-1.977-1.907ZM25.03 51l-1.639-1.436c-3.8-3.3-6.558-5.7-6.558-9.417a6 6 0 0 1 9.907-4.976 6.166 6.166 0 0 1 3.966-1.447h.131a6.134 6.134 0 0 1 5.827 6.422c0 3.711-2.753 6.1-6.558 9.418L28.469 51a2.611 2.611 0 0 1-3.439 0ZM20.8 40.147c0 1.827 1.683 3.375 5.194 6.426l.752.659.754-.659-.019.012c3.506-3.036 5.213-4.6 5.213-6.427v-.086a2.2 2.2 0 0 0-2.008-2.365 2.68 2.68 0 0 0-2.186 1.442 2.03 2.03 0 0 1-1.8 1.092 1.977 1.977 0 0 1-1.758-1.1 2.683 2.683 0 0 0-2.181-1.438h-.087a2.186 2.186 0 0 0-1.874 2.444Zm74.984 3.073-1.639-1.435c-3.8-3.3-6.558-5.7-6.558-9.418a6 6 0 0 1 9.907-4.975 6.18 6.18 0 0 1 3.965-1.447h.132a6.131 6.131 0 0 1 5.827 6.422c0 3.711-2.752 6.1-6.557 9.417l-1.638 1.436a2.591 2.591 0 0 1-3.439 0ZM91.55 32.368c0 1.827 1.683 3.375 5.194 6.426l.753.66.754-.66v.013c3.506-3.037 5.195-4.6 5.195-6.427v-.086a2.2 2.2 0 0 0-2.008-2.366 2.7 2.7 0 0 0-2.182 1.444 2.035 2.035 0 0 1-1.8 1.092 1.97 1.97 0 0 1-1.759-1.1 2.693 2.693 0 0 0-2.181-1.439h-.087a2.188 2.188 0 0 0-1.879 2.443Zm17.85-20.224H85.425a1.985 1.985 0 0 1 .175-3.966h23.975a1.985 1.985 0 0 1-.1 3.967Zm-85.274-1.982a1.883 1.883 0 1 1 1.883 1.884 1.883 1.883 0 0 1-1.883-1.884Zm-7.533 0a1.883 1.883 0 1 1 1.883 1.884 1.883 1.883 0 0 1-1.883-1.884Zm-7.534 0a1.883 1.883 0 1 1 1.883 1.884 1.883 1.883 0 0 1-1.883-1.884Z"
          fill="#b4811b"/>
</svg>