<svg xmlns="http://www.w3.org/2000/svg" viewBox="0 0 120 120"><path fill="none" d="M0 0h120v120H0z"/><path d="M10 120a10.008 10.008 0 0 1-10-10V10A10.016 10.016 0 0 1 10 0h100a10.019 10.019 0 0 1 10 10v100a10.006 10.006 0 0 1-10 10Zm-5.993-9.956v.008a5.993 5.993 0 0 0 6 5.985H26l4-.037h80a6 6 0 0 0 6-5.989v-90H4.008ZM4 10v6h112v-6a6 6 0 0 0-6-6H9.994A6 6 0 0 0 4 10Zm28.436 87.89A1.99 1.99 0 0 1 33 96.455l4.465-5.055a66.902 66.902 0 0 1-2.737-2.059l-4.08-3.475A97 97 0 0 1 17.9 71.529a5.5 5.5 0 0 1 0-6.457c4.773-6.636 21.96-28.284 42.615-28.284a38.078 38.078 0 0 1 19.68 6.16l4.832-5.482a2.017 2.017 0 0 1 3.034 2.658l-4.469 5.081a89.771 89.771 0 0 1 19.552 19.871 5.515 5.515 0 0 1 0 6.464A96.431 96.431 0 0 1 90.4 85.867l-4.075 3.468A42.873 42.873 0 0 1 60.546 99.81a38.064 38.064 0 0 1-19.7-6.156l-4.829 5.481-.109.12a2.024 2.024 0 0 1-1.41.616h-.042a2.022 2.022 0 0 1-2.019-1.98Zm11.079-7.274A33.82 33.82 0 0 0 60.508 95.8c18.746 0 34.838-20.378 39.338-26.619a1.5 1.5 0 0 0 0-1.751A85.528 85.528 0 0 0 80.9 48.235l-2.7 3.056a24.539 24.539 0 0 1-32.37 36.683Zm5.013-5.676a20.437 20.437 0 0 0 26.246-1.84l-.008.012a20.5 20.5 0 0 0 .773-28.776l-4.248 4.81a14.146 14.146 0 0 1-18.544 21Zm-27.35-17.531a1.479 1.479 0 0 0 0 1.75 85.606 85.606 0 0 0 18.941 19.194l2.7-3.056A24.543 24.543 0 0 1 75.183 48.61l2.317-2.639a33.784 33.784 0 0 0-17-5.182c-18.7 0-34.823 20.381-39.322 26.62ZM46.26 53.482a20.5 20.5 0 0 0-.768 28.768l4.248-4.811a14.142 14.142 0 0 1 18.544-21l4.216-4.792a20.433 20.433 0 0 0-26.24 1.835Zm9.217 23.594A10.131 10.131 0 0 0 68.6 62.205Zm-3.034-2.666 13.123-14.867A10.124 10.124 0 0 0 50.5 67.225v-.011a10.076 10.076 0 0 0 1.943 7.195ZM109.4 12.144H85.425a1.985 1.985 0 0 1 .175-3.966h23.975a1.985 1.985 0 0 1-.1 3.967Zm-85.274-1.982a1.883 1.883 0 1 1 1.883 1.884 1.883 1.883 0 0 1-1.883-1.884Zm-7.533 0a1.883 1.883 0 1 1 1.883 1.884 1.883 1.883 0 0 1-1.883-1.884Zm-7.534 0a1.883 1.883 0 1 1 1.883 1.884 1.883 1.883 0 0 1-1.883-1.884Z" fill="#7a4ab2"/></svg>