<svg xmlns="http://www.w3.org/2000/svg" viewBox="0 0 120 120"><path fill="none" d="M0 0h120v120H0z"/><path d="M10.007 120a10 10 0 0 1-10-10L0 10A10.013 10.013 0 0 1 10 0h99.992a10.025 10.025 0 0 1 10 10L120 110a10.011 10.011 0 0 1-10 10Zm-6-9.941a5.97 5.97 0 0 0 6 5.94H110a5.97 5.97 0 0 0 6-5.94l-.007-23.169H4ZM4 9.987V82.74h111.992V9.987a6 6 0 0 0-6-6H10a6 6 0 0 0-6 6Zm53.255 94.811v-2.3H46.491a2 2 0 0 1-2-2 2 2 0 0 1 2-2h10.764v-1.78a4 4 0 0 1 4-4h.1a4 4 0 0 1 4 4v1.808a1.89 1.89 0 0 1 .279-.028h40.356a2 2 0 0 1 2 2 2 2 0 0 1-2 2H65.635a2.022 2.022 0 0 1-.279-.028v2.33a4 4 0 0 1-4 4 4.008 4.008 0 0 1-4.1-4Zm2.861-8.08v8.08a1.139 1.139 0 0 0 1.137 1.138 1.166 1.166 0 0 0 1.24-1.138v-8.08a1.14 1.14 0 0 0-1.138-1.138h-.1a1.139 1.139 0 0 0-1.138 1.138Zm-24.389 8.676v-9.556a2 2 0 0 1 2-2 2 2 0 0 1 2 2v9.556a2 2 0 0 1-2 2 2 2 0 0 1-1.999-2Zm-6.277 0v-9.556a2 2 0 0 1 2-2 2 2 0 0 1 2 2v9.556a2 2 0 0 1-2 2 2 2 0 0 1-1.999-2Zm-17.7.5V94.48a1.461 1.461 0 0 1 .194-.722 1.444 1.444 0 0 1 1.973-.528l9.879 5.7v.012a1.451 1.451 0 0 1 .536.536 1.441 1.441 0 0 1-.536 1.965l-9.879 5.7a1.483 1.483 0 0 1-.722.19 1.446 1.446 0 0 1-1.448-1.433Zm2.889-2.517 5.546-3.194-5.546-3.206Zm4.567-30.321a7.666 7.666 0 0 1-7.659-7.659V21.64a7.667 7.667 0 0 1 7.659-7.658h81.359a7.668 7.668 0 0 1 7.659 7.658V65.4a7.667 7.667 0 0 1-7.659 7.659Zm49.751-38.495a10.593 10.593 0 0 1-.382 14.678 18.788 18.788 0 0 1 11.413 17.3v2.521h20.578a3.663 3.663 0 0 0 3.655-3.66V21.64a3.663 3.663 0 0 0-3.659-3.659H19.2a3.663 3.663 0 0 0-3.659 3.659V65.4a3.663 3.663 0 0 0 3.659 3.66h23.117v-2.532a18.785 18.785 0 0 1 11.4-17.289 9.2 9.2 0 0 1-.377-.394 10.591 10.591 0 0 1 .666-14.944 10.537 10.537 0 0 1 7.135-2.768 10.554 10.554 0 0 1 7.813 3.432Zm-8.041 17.565a14.221 14.221 0 0 0-13.991 14.417v1.815H75.36l-.03-2.273A14.238 14.238 0 0 0 61.1 52.129Zm-5.7-10.365a5.953 5.953 0 0 0 5.945 5.946 5.951 5.951 0 0 0 5.944-5.946 5.952 5.952 0 0 0-5.944-5.945 5.953 5.953 0 0 0-5.944 5.949Z" fill="#7052a7"/></svg>