<svg xmlns="http://www.w3.org/2000/svg" viewBox="0 0 120.001 120.001">
    <path fill="none" d="M0 0h120v120H0z"/>
    <path d="m66.553 119.837-37.589-15.12-.172-.068v13.13A2.222 2.222 0 0 1 26.573 120h-9.58a2.223 2.223 0 0 1-2.219-2.218v-14.2h-1.657a13.337 13.337 0 0 1 0-26.67H26.12l40.433-16.279a2.265 2.265 0 0 1 .827-.16 2.221 2.221 0 0 1 2.22 2.219v17.349l.1.023a10.428 10.428 0 0 1 0 20.343l-.1.022v17.348a2.231 2.231 0 0 1-.162.837 2.207 2.207 0 0 1-2.884 1.222Zm-47.323-4.262h5.125V103.6H19.23Zm9.691-34.943v19.414l36.239 14.463V65.967L59.2 68.37l-.078.032v25.25a2.219 2.219 0 1 1-4.437 0V70.216ZM6.5 84.106a8.9 8.9 0 0 0 6.613 15.052l11.12-.016V81.366h-11.5a8.833 8.833 0 0 0-6.233 2.74Zm63.1 11.727.174-.076a5.991 5.991 0 0 0 3.114-3.112l.01-.041a6.008 6.008 0 0 0-3.124-7.85l-.174-.076ZM86.279 109.6l-4.729-4.732a2.344 2.344 0 1 1 3.315-3.315l4.729 4.731a2.345 2.345 0 0 1-3.316 3.316Zm-30.9-4.854a2.343 2.343 0 0 1 3.314-3.314 2.376 2.376 0 0 1 .688 1.658 2.343 2.343 0 0 1-4 1.656Zm31.654-12.1a2.344 2.344 0 0 1 0-4.687h7.53a2.344 2.344 0 0 1 0 4.687Zm-5.5-13.965a2.342 2.342 0 0 1 0-3.315l4.578-4.579a2.346 2.346 0 0 1 3.315 0 2.34 2.34 0 0 1 0 3.309l-4.578 4.578a2.344 2.344 0 0 1-3.315 0Zm-58.248-11.05a2.094 2.094 0 0 1-2.082-2.1v-7.438h-2.665a5.381 5.381 0 0 1-5.376-5.375v-37.03a5.381 5.381 0 0 1 5.376-5.375h39.624V9.125A9.136 9.136 0 0 1 67.287 0h43.6A9.136 9.136 0 0 1 120 9.125v27.187a9.136 9.136 0 0 1-9.125 9.125H85.73v7.281a5.38 5.38 0 0 1-5.375 5.375H33.7l-8.92 8.92a2.11 2.11 0 0 1-1.486.618Zm-5.934-51.943v37.04a1.185 1.185 0 0 0 1.183 1.179h4.786A2.1 2.1 0 0 1 25.412 56v4.478l5.947-5.959a2.082 2.082 0 0 1 1.481-.612h47.532a1.185 1.185 0 0 0 1.178-1.19v-7.279H67.287a9.135 9.135 0 0 1-9.124-9.125V14.5H18.538a1.188 1.188 0 0 0-1.187 1.188Zm45-6.563v27.187a4.942 4.942 0 0 0 4.937 4.937h43.6a4.942 4.942 0 0 0 4.937-4.937V9.125a4.955 4.955 0 0 0-4.937-4.937h-43.6a4.953 4.953 0 0 0-4.938 4.937ZM26.264 40.706a2.377 2.377 0 0 1 0-4.687h12.375a2.377 2.377 0 0 1 0 4.687Zm19.789-.687a2.344 2.344 0 1 1 1.657.687 2.342 2.342 0 0 1-1.657-.687Zm37.811-5.456a2.344 2.344 0 0 1-2.34-2.347V13.692a2.344 2.344 0 0 1 3.514-2.029l16.05 9.273-.007-.011a2.349 2.349 0 0 1 0 4.058l-16.04 9.262a2.318 2.318 0 0 1-1.173.319Zm2.355-6.394 9-5.2-9-5.2ZM26.422 29.3a2.351 2.351 0 0 1 0-4.686h21.483a2.351 2.351 0 0 1 0 4.686Z"
          fill="#9a3a3a"/>
</svg>