<svg xmlns="http://www.w3.org/2000/svg" viewBox="0 0 120 120"><path fill="none" d="M0 0h120v120H0z"/><path d="M10 120a10.008 10.008 0 0 1-10-10V10A10.016 10.016 0 0 1 10 0h100a10.019 10.019 0 0 1 10 10v100a10.007 10.007 0 0 1-10 10Zm-5.993-9.956v.008a5.993 5.993 0 0 0 6 5.985H26l4-.037h80a6 6 0 0 0 6-5.989v-90H4.008ZM4 10v6h112v-6a6 6 0 0 0-6-6H9.994A6 6 0 0 0 4 10Zm78.6 86.757H66.667a2.594 2.594 0 0 1-.265 0 2.347 2.347 0 0 1 .265-4.687H82.6a1.881 1.881 0 0 1 .266 0 2.347 2.347 0 0 1-.132 4.691c-.048 0-.092-.001-.134-.004Zm9.027-.686a2.344 2.344 0 1 1 3.315 0 2.346 2.346 0 0 1-3.315 0ZM66.4 82.748a2.347 2.347 0 0 1 .265-4.687h35.847a2.177 2.177 0 0 1 .266 0 2.347 2.347 0 1 1-.266 4.687H66.535c-.044 0-.089.003-.135 0Zm-32.446-.94a22.722 22.722 0 0 1 0-45.443h.081A22.722 22.722 0 0 1 34 81.808ZM22.841 74l-.188.454.405.284a19.084 19.084 0 0 0 21.807 0l.4-.284-.183-.454a12.047 12.047 0 0 0-22.241 0Zm-.809-29.651A19.1 19.1 0 0 0 19.181 71.2l.574.693.435-.79a15.6 15.6 0 0 1 6.956-6.585l.72-.345-.517-.6a8.621 8.621 0 0 1-2.075-5.625v-1.277a8.685 8.685 0 0 1 8.671-8.5h.18a8.692 8.692 0 0 1 8.5 8.861v.908a8.664 8.664 0 0 1-2.074 5.625l-.517.6.715.345a15.575 15.575 0 0 1 6.75 6.21l.354.589.239.489s.671-.706.881-.95a18.776 18.776 0 0 0-.275-23.884 19.092 19.092 0 0 0-26.661-2.616ZM33.6 51.641a5.044 5.044 0 0 0-4.671 5.394V58a5.02 5.02 0 0 0 4.646 4.646h.394a5.043 5.043 0 0 0 5.02-4.706v-.851a4.82 4.82 0 0 0 0-.773 5.045 5.045 0 0 0-5.027-4.683 3.178 3.178 0 0 0-.362.008Zm32.8 17.435a2.347 2.347 0 0 1 .265-4.687h35.847a2.177 2.177 0 0 1 .266 0 2.347 2.347 0 1 1-.266 4.687H66.535c-.044 0-.089.003-.135 0Zm36.112-14.233H66.667a2.594 2.594 0 0 1-.265 0 2.347 2.347 0 0 1 .265-4.687h35.847a1.867 1.867 0 0 1 .266 0 2.347 2.347 0 0 1-.131 4.691c-.049 0-.091-.001-.135-.004Zm6.888-42.7H85.425a1.985 1.985 0 0 1 .175-3.965h23.975a1.985 1.985 0 0 1-.094 3.967Zm-85.274-1.981a1.883 1.883 0 1 1 1.883 1.884 1.883 1.883 0 0 1-1.883-1.884Zm-7.533 0a1.883 1.883 0 1 1 1.883 1.884 1.883 1.883 0 0 1-1.883-1.884Zm-7.534 0a1.883 1.883 0 1 1 1.883 1.884 1.883 1.883 0 0 1-1.883-1.884Z" fill="#b4811b"/></svg>