<svg xmlns="http://www.w3.org/2000/svg" viewBox="0 0 120 120">
    <path fill="none" d="M0 0h120v120H0z"/>
    <path d="M36.001 119.989a18 18 0 0 1 0-36h48a18 18 0 0 1 0 36Zm-14.005-18a14.005 14.005 0 0 0 14.005 13.995h48a14 14 0 1 0 0-28h-48a14.009 14.009 0 0 0-14 14.006Zm30.583 7.413-4-4a2.002 2.002 0 0 1 2.831-2.831l2.782 2.782 14.624-10.96a2 2 0 1 1 2.392 3.195l-16 12a2.006 2.006 0 0 1-2.625-.187ZM10.001 77.991a10.019 10.019 0 0 1-10-10v-16a10.019 10.019 0 0 1 10-10h99.988a10.019 10.019 0 0 1 10 10v16a10.019 10.019 0 0 1-10 10Zm-6-26v16a6 6 0 0 0 6 6h99.988a6 6 0 0 0 6-6v-16a6 6 0 0 0-6-6H10.001a6 6 0 0 0-6 6Zm9.993 18a6 6 0 0 1-6-6v-7.993a6 6 0 0 1 6-6h16a6 6 0 0 1 6 6v7.991a6 6 0 0 1-6 6Zm-1.987-6a2 2 0 0 0 1.987 2h16a2 2 0 0 0 2-2v-7.993l-6.375 4.781a6.063 6.063 0 0 1-7.241 0l-6.375-4.8Zm8.771-6.375a2.077 2.077 0 0 0 2.452 0l4.77-3.6H16Zm23.223 8.382a1.995 1.995 0 0 1 0-3.99h61.99a1.995 1.995 0 0 1 0 3.99Zm0-7.991a2 2 0 1 1 0-4h10a2 2 0 0 1 0 4Zm-33.992-22a10.019 10.019 0 0 1-10-10v-16a10.019 10.019 0 0 1 10-10h99.988a10.019 10.019 0 0 1 10 10v16a10.019 10.019 0 0 1-10 10Zm-6-26v16a6 6 0 0 0 6 6h99.988a6 6 0 0 0 6-6v-16a6 6 0 0 0-6-6H10.008a6 6 0 0 0-6.007 5.991Zm13.99 18a4 4 0 0 1-4-4 7.983 7.983 0 0 1 3.244-6.375 5.932 5.932 0 0 1-1.245-3.6 6 6 0 1 1 12 0 5.9 5.9 0 0 1-1.249 3.611 7.935 7.935 0 0 1 3.252 6.37 4 4 0 0 1-4 4Zm0-4h8.002a4.003 4.003 0 1 0-8.006 0Zm2-9.993a1.579 1.579 0 1 0 0-.011Zm24 9.993a2 2 0 1 1 0-4h61.992a2 2 0 1 1 0 4Zm0-7.991a2 2 0 1 1 0-4h10a2 2 0 0 1 0 4Z"
          fill="#72a74e"/>
</svg>