<svg xmlns="http://www.w3.org/2000/svg" viewBox="0 0 121.241 121.037">
    <path fill="none" d="M.609.537h120v120h-120z"/>
    <path d="M59.016 120.537a52.2 52.2 0 0 1-33.033-14.275h-.019l-.185-.147-.22-.245c-.068-.064-.136-.128-.245-.221s-.218-.184-.315-.283l-.584-.653v-.148L6.724 84.364C-.791 76.605.494 70.988 1.065 69.451l7.244-37.07a6.863 6.863 0 0 1 5.979-4.944 4.594 4.594 0 0 1 4.257 1.156 4.1 4.1 0 0 1 .932 3.341v1.719a32.7 32.7 0 0 1 2.563-3.189 49.502 49.502 0 0 1-.44-1.427c-2.01-7.026-.48-14.6 3.34-20.831A17.95 17.95 0 0 1 38.297.698a25.125 25.125 0 0 1 22.406 9.21A25.34 25.34 0 0 1 83.087.707a17.936 17.936 0 0 1 13.334 7.5 27.7 27.7 0 0 1 3.265 21.155 19.829 19.829 0 0 1-.859 2.726l-.28.55a45.8 45.8 0 0 1 3.233 3.961l-.026-4.708a4.051 4.051 0 0 1 .914-3.267A4.615 4.615 0 0 1 107 27.451a6.82 6.82 0 0 1 5.924 4.913l7.26 37.121c.425 1.15 2.008 6.961-5.684 14.9l-17.691 20.219v.117l-.57.639c-.1.109-.224.215-.312.293s-.18.152-.265.238l-.352.392-.057-.021a52.2 52.2 0 0 1-33.027 14.275Zm5-3.935a49.1 49.1 0 0 0 27.431-11.941l-19.022-7.914ZM45.103 98.277l-15.3 6.384a49.07 49.07 0 0 0 27.427 11.94l-8.405-19.853Zm15.512 16.718 9.766-23.116 3.209 1.335 3.444-8.641a23.316 23.316 0 0 1 7.783-8.845 17.447 17.447 0 0 0 6.259-8.991l.079-.253 4.281-10.409a7.068 7.068 0 0 1 4.964-3.633 4.906 4.906 0 0 1 1.4.056l-.026-8.517a43.929 43.929 0 0 0-5.112-7.844 45.021 45.021 0 0 1-16.137 14.21C74.419 53.9 61.856 62.909 61.739 62.994l-1.1.8-1.105-.8c-.059-.04-6.921-4.964-12.994-8.987l-.253-.158.019-.03a1.865 1.865 0 0 1-.632-1.188v-.008a1.9 1.9 0 0 1 1.691-2.067h.092a1.915 1.915 0 0 1 1.185.325l.062.032-.095.287.172-.267c4.755 3.161 9.919 6.809 11.84 8.167 8.265-5.854 14.484-10.021 18-12.064 9.986-5.809 15.811-12.03 17.335-18.49a23.929 23.929 0 0 0-2.687-18.136 14.309 14.309 0 0 0-10.638-5.908 21.249 21.249 0 0 0-20.365 9.635l-1.657 2.766-1.6-2.806a21.418 21.418 0 0 0-17.737-9.738 23.316 23.316 0 0 0-2.58.144 14.308 14.308 0 0 0-10.67 5.934 23.9 23.9 0 0 0-2.667 18.1 21.836 21.836 0 0 0 6.154 10.136l.1.093a2.04 2.04 0 0 1-.852 3.516h-.138a1.333 1.333 0 0 1-1.214-.429l-.2-.179a1.465 1.465 0 0 1-.117-.142 26.514 26.514 0 0 1-5.542-7.207 33.393 33.393 0 0 0-4.08 6.512l-.04 11.624A4.662 4.662 0 0 1 20.8 52.4a7.09 7.09 0 0 1 4.975 3.608l4.369 10.675a17.5 17.5 0 0 0 6.266 9h-.021a23.262 23.262 0 0 1 7.768 8.854l3.452 8.659 3.209-1.318Zm38.224-57.194-4.086 9.965a21.355 21.355 0 0 1-7.644 10.971 20.268 20.268 0 0 0-6.541 7.243l-3.445 8.6.455.189 16.787 6.894 17.419-19.856c6.6-6.813 4.929-10.934 4.91-10.974l-.129-.4-7.3-37.248a3.085 3.085 0 0 0-2.773-1.962 1.828 1.828 0 0 0-1 0 .422.422 0 0 0 0 .158l.037.348.1 23.049c.071.086.151.174.227.266a1.96 1.96 0 0 1 .53.578c.6.937 2.014 1.123-5.879 20.291a14.286 14.286 0 0 0-.4 4.04c.274.714.469 2.118-.675 2.609l-.064.022a1.975 1.975 0 0 1-2.546-1.067 11.859 11.859 0 0 1 .264-7.129c5.693-13.849 6.087-15.8 6.047-16.756a3.291 3.291 0 0 0-2.2-1.462h-.091c-.878.079-1.739 1.205-2.003 1.631ZM14.845 31.212a3.146 3.146 0 0 0-2.854 2.025L4.724 70.399l-.17.483c.008 0-1.669 4.1 4.927 10.919l17.42 19.857 17.253-7.085-3.463-8.623a20.193 20.193 0 0 0-6.514-7.206A21.416 21.416 0 0 1 26.5 67.732l-4.1-9.981c-.3-.5-1.141-1.52-1.981-1.6h-.088c-.636 0-1.374.5-2.2 1.478-.044.809.269 4.7 6.067 18.785a6.238 6.238 0 0 1 .249 5.071 2 2 0 0 1-2.615 1.067c-1.153-.493-.953-1.9-.671-2.609a3.72 3.72 0 0 0-.4-2c-7.894-19.17-6.487-21.382-5.886-22.33a2.27 2.27 0 0 1 .584-.631 2.686 2.686 0 0 1 .176-.214l.127-23.359a.623.623 0 0 0 .024-.174 1.682 1.682 0 0 0-.5-.077 1.661 1.661 0 0 0-.441.054ZM41.571 51.26a2.054 2.054 0 0 1-2-1.784v-.06a2.05 2.05 0 0 1 1.835-2.224h.2l-.008.009a2.041 2.041 0 0 1 .3 4.059h-.327Zm50.671-26.247a2.255 2.255 0 0 1-.348-.03 1.908 1.908 0 0 1-1.515-2.211 10.519 10.519 0 0 0-4.67-9.775c-5.18-3.88-11.783-.507-12.757.027l-.124.074v.007l-.1.059a1.9 1.9 0 0 1-1.853-3.316c.386-.23 9.472-5.608 17.091.109a14.224 14.224 0 0 1 6.143 13.493 1.894 1.894 0 0 1-1.865 1.562Z"
          fill="#5d9663"/>
</svg>