<svg xmlns="http://www.w3.org/2000/svg" viewBox="0 0 120 120">
    <path fill="none" d="M0 0h120v120H0z"/>
    <path d="M10 120a10.008 10.008 0 0 1-10-10V10A10.016 10.016 0 0 1 10 0h100a10.019 10.019 0 0 1 10 10v100a10.007 10.007 0 0 1-10 10Zm-5.993-9.956v.008a5.993 5.993 0 0 0 6 5.985H26l4-.037h80a6 6 0 0 0 6-5.989v-90H4.008ZM4 10v6h112v-6a6 6 0 0 0-6-6H9.994A6 6 0 0 0 4 10Zm98.563 95.514L92.025 94.976 86.2 100.8a1.908 1.908 0 0 1-.768.439 1.845 1.845 0 0 1-2.272-1.256l-2.5-9.169-.789-3.2-2.5-9.148H33.165a6.289 6.289 0 0 1-1.8 0 6.763 6.763 0 1 1 1.835-13.4h48.738a6.714 6.714 0 0 1 1.8 0l.058.009a6.762 6.762 0 0 1 5.729 7.612 6.582 6.582 0 0 1-.576 1.892l15.412 4.207a1.829 1.829 0 0 1 .81 3.041l-5.825 5.826 10.537 10.536a1.832 1.832 0 0 1-.022 2.6l-4.725 4.726a1.844 1.844 0 0 1-2.568 0Zm-9.242-14.408 10.539 10.539 2.152-2.148L95.475 88.96a1.821 1.821 0 0 1 0-2.57l4.878-4.881-19.923-5.445 5.445 19.922 4.878-4.878a1.842 1.842 0 0 1 2.568 0ZM32.162 68.647a3.163 3.163 0 1 0 .965 6.251h43.27l-.27-.986a1.823 1.823 0 0 1 2.232-2.22l6.694 1.824a3.083 3.083 0 0 0 .513-2.209 3.164 3.164 0 0 0-3.593-2.662H33.164a3.422 3.422 0 0 0-.973 0l-.068-.242Zm11.548 31.985H33.18a6.188 6.188 0 0 1-1.715 0 6.355 6.355 0 1 1 1.75-12.588h10.527a6.354 6.354 0 1 1 .855 12.653 6.415 6.415 0 0 1-.887-.065Zm-11.437-9.2-.1.015a2.95 2.95 0 1 0 .97 5.818h10.6a3.293 3.293 0 0 0 .912 0l.105-.015a2.95 2.95 0 0 0-.974-5.818H33.18a3.271 3.271 0 0 0-.474-.036 2.754 2.754 0 0 0-.433.032Zm-.907-32.638a6.764 6.764 0 0 1 1.834-13.4h48.746a6.684 6.684 0 0 1 1.788 0 6.764 6.764 0 0 1-1.828 13.4h-48.74a6.586 6.586 0 0 1-.881.059 6.858 6.858 0 0 1-.919-.062Zm.8-9.816a3.163 3.163 0 1 0 .965 6.251h48.818a3.438 3.438 0 0 0 .966 0 3.163 3.163 0 0 0-.938-6.256H33.169a3.455 3.455 0 0 0-.973 0l-.068-.242Zm-4.249-10.362-.006-.25-.013.25a2.013 2.013 0 0 1 .211-4.021h19.815a2.013 2.013 0 0 1-.19 4.022H28.02c-.029 0-.07.002-.103-.001ZM109.4 12.144H85.426a1.985 1.985 0 0 1 .174-3.966h23.976a1.985 1.985 0 0 1-.1 3.967Zm-85.274-1.982a1.883 1.883 0 1 1 1.883 1.884 1.883 1.883 0 0 1-1.883-1.884Zm-7.533 0a1.883 1.883 0 1 1 1.883 1.884 1.883 1.883 0 0 1-1.883-1.884Zm-7.534 0a1.883 1.883 0 1 1 1.883 1.884 1.883 1.883 0 0 1-1.883-1.884Z"
          fill="#77a273"/>
</svg>