<?xml version="1.0" encoding="UTF-8"?>
<svg version="1.1" xmlns="http://www.w3.org/2000/svg" width="474" height="474">
<path d="M0 0 C156.42 0 312.84 0 474 0 C474 156.42 474 312.84 474 474 C317.58 474 161.16 474 0 474 C0 317.58 0 161.16 0 0 Z " fill="#027EBB" transform="translate(0,0)"/>
<path d="M0 0 C14.29273223 12.26115658 23.08403696 30.54026701 26 49 C26.17240707 50.06005249 26.34481415 51.12010498 26.52244568 52.21228027 C27.35011537 58.97021198 27.13059319 65.79875111 27.11352539 72.59570312 C27.11324299 74.17321776 27.11340228 75.75073252 27.1139679 77.32824707 C27.11425382 81.59211178 27.10839026 85.85594814 27.10139394 90.11980629 C27.09512624 94.58275838 27.0945539 99.04571118 27.09336853 103.50866699 C27.09026527 111.95157342 27.08206546 120.39446683 27.07201904 128.83736753 C27.05873226 140.25215314 27.05334987 151.66694232 27.04751682 163.0817337 C27.03812488 181.05449887 27.01819924 199.02723659 27 217 C3.9 217 -19.2 217 -43 217 C-43.06058594 207.87601563 -43.12117187 198.75203125 -43.18359375 189.3515625 C-43.2240991 183.56379786 -43.2648398 177.77603644 -43.30664062 171.98828125 C-43.37291284 162.8061687 -43.4382372 153.62405657 -43.49731445 144.44189453 C-43.54035078 137.75360347 -43.58667615 131.06534446 -43.63687855 124.37710321 C-43.66332382 120.83887228 -43.68817127 117.30064707 -43.70907402 113.76237869 C-43.73252463 109.80329402 -43.76332142 105.84428422 -43.79467773 101.88525391 C-43.8004332 100.72431213 -43.80618866 99.56337036 -43.81211853 98.36724854 C-43.94944872 83.06468109 -45.381266 66.618734 -56.84765625 55.15234375 C-61.45880628 51.42125416 -66.30085839 49.48906144 -72 48 C-72.65742188 47.81566406 -73.31484375 47.63132812 -73.9921875 47.44140625 C-83.16067901 45.42576512 -94.41827446 47.20913723 -102.71875 51.359375 C-114.09128242 58.71361263 -120.25451423 68.65470643 -123.17272949 81.78588867 C-125.1628206 92.63030928 -124.61069511 103.88268666 -124.60750484 114.87308502 C-124.61067097 118.47390043 -124.63636451 122.07456037 -124.65948486 125.67529297 C-124.699769 132.46754079 -124.72031996 139.25969331 -124.73345876 146.05204201 C-124.75241885 155.24906265 -124.80251669 164.4459132 -124.85070229 173.64281845 C-124.92561633 188.09520329 -124.95949379 202.54738281 -125 217 C-147.44 217 -169.88 217 -193 217 C-193 141.76 -193 66.52 -193 -11 C-170.56 -11 -148.12 -11 -125 -11 C-124.67 -1.76 -124.34 7.48 -124 17 C-122.576875 15.205625 -121.15375 13.41125 -119.6875 11.5625 C-90.67194881 -23.7010825 -35.45273461 -28.56728615 0 0 Z " fill="#FDFDFD" transform="translate(381,191)"/>
<path d="M0 0 C23.1 0 46.2 0 70 0 C70 75.24 70 150.48 70 228 C46.9 228 23.8 228 0 228 C0 152.76 0 77.52 0 0 Z " fill="#FDFDFD" transform="translate(73,180)"/>
<path d="M0 0 C2.99584707 1.88627408 5.97424217 3.78386013 8.6875 6.0625 C8.6875 6.7225 8.6875 7.3825 8.6875 8.0625 C9.27144531 8.26101562 9.85539062 8.45953125 10.45703125 8.6640625 C13.63814605 10.65852677 14.6607493 13.12799214 16.375 16.4375 C16.97699219 17.57960938 17.57898438 18.72171875 18.19921875 19.8984375 C20.74426781 25.30917173 20.87019008 29.92515556 20.875 35.8125 C20.88724609 36.5859375 20.89949219 37.359375 20.91210938 38.15625 C20.9422716 50.14070661 16.61020435 59.167092 8.4375 67.875 C-1.01999392 76.87154043 -12.01488026 79.58365165 -24.77734375 79.37890625 C-35.60388145 78.40990122 -45.30746546 72.80327667 -52.71484375 65.0078125 C-55.49099897 61.62755504 -57.47044181 58.01651502 -59.3125 54.0625 C-59.63347656 53.41023438 -59.95445313 52.75796875 -60.28515625 52.0859375 C-64.16401936 42.7405836 -63.63884285 30.7350124 -60.5 21.25 C-55.77600439 10.50628427 -46.58531516 1.6559105 -35.9375 -3.1875 C-24.66810169 -7.51794958 -10.28648995 -6.0166262 0 0 Z " fill="#FBFDFC" transform="translate(128.3125,70.9375)"/>
<path d="M0 0 C23.1 0 46.2 0 70 0 C70 75.24 70 150.48 70 228 C46.9 228 23.8 228 0 228 C0 152.76 0 77.52 0 0 Z M2 3 C1.80638147 5.94593835 1.73966137 8.79756658 1.75949097 11.74441528 C1.75778212 12.66083986 1.75607327 13.57726444 1.75431263 14.52145946 C1.75100246 17.61090127 1.7620465 20.70012878 1.77294922 23.78955078 C1.773513 25.99671422 1.77319742 28.20387804 1.77206421 30.41104126 C1.77148841 36.41902827 1.78327932 42.42693604 1.79721212 48.43490458 C1.80968181 54.70764678 1.810887 60.98039063 1.81326294 67.25314331 C1.81878064 77.78677726 1.83128836 88.32038512 1.84912109 98.85400391 C1.86747191 109.70491388 1.88163231 120.55581593 1.89013672 131.40673828 C1.89066217 132.07529984 1.89118761 132.74386141 1.89172898 133.43268241 C1.89433901 136.78657305 1.89686644 140.14046375 1.89935279 143.49435449 C1.92027984 171.32959466 1.95696984 199.16478461 2 227 C23.45 227 44.9 227 67 227 C67 225.35 67 223.7 67 222 C67.33 221.67 67.66 221.34 68 221 C68.10011895 218.21029108 68.1343929 215.44526647 68.12698364 212.65504456 C68.12854363 211.7694704 68.13010362 210.88389624 68.13171089 209.97148651 C68.13572488 206.98040481 68.13252969 203.98937316 68.12939453 200.99829102 C68.1307484 198.8634844 68.13252826 196.72867801 68.13470459 194.59387207 C68.13928085 188.77786099 68.1374885 182.96186755 68.1343255 177.14585614 C68.13180257 171.07289916 68.13413929 164.99994374 68.13571167 158.92698669 C68.1375337 148.72532885 68.13512633 138.52367823 68.13037109 128.32202148 C68.12492987 116.51197243 68.12668999 104.70194065 68.1321975 92.89189202 C68.13672942 82.77047914 68.13737875 72.64907148 68.13475883 62.52765793 C68.1331963 56.47457244 68.1330016 50.42149508 68.13629532 44.36841011 C68.13917512 38.67794356 68.13719631 32.98749935 68.13140106 27.29703522 C68.13007399 25.20316289 68.13046669 23.10928869 68.13266373 21.0154171 C68.13537732 18.16756534 68.13199147 15.31978616 68.12698364 12.47193909 C68.12921436 11.63411111 68.13144509 10.79628313 68.13374341 9.93306643 C68.22244874 5.83464141 68.22244874 5.83464141 67 2 C58.82056592 1.8231468 50.64101517 1.6571842 42.46108437 1.50522423 C38.66304993 1.434323 34.86516786 1.35963451 31.06738281 1.27636719 C27.40412699 1.19618754 23.74080373 1.12585643 20.07722092 1.06242752 C18.67767718 1.03645079 17.27819533 1.00689126 15.87880325 0.97373581 C13.9228175 0.92799785 11.96652413 0.89603604 10.01025391 0.86474609 C8.8955069 0.84253998 7.78075989 0.82033386 6.63223267 0.79745483 C3.84111353 0.72503812 3.84111353 0.72503812 2 3 Z " fill="#E4FEFE" transform="translate(73,180)"/>
<path d="M0 0 C22.44 0 44.88 0 68 0 C68 9.24 68 18.48 68 28 C67.67 28 67.34 28 67 28 C67 19.42 67 10.84 67 2 C45.55 2.33 24.1 2.66 2 3 C2 76.92 2 150.84 2 227 C23.45 227 44.9 227 67 227 C67 182.45 67 137.9 67 92 C67.66 92 68.32 92 69 92 C68.67 136.88 68.34 181.76 68 228 C45.56 228 23.12 228 0 228 C0 152.76 0 77.52 0 0 Z " fill="#C9ECF4" transform="translate(188,180)"/>
<path d="M0 0 C0.99 0.680625 1.98 1.36125 3 2.0625 C9.23824418 7.38142398 12.74703571 16.0645595 14 24 C13.53515625 26.22265625 13.53515625 26.22265625 13 28 C12.66226563 27.01257813 12.32453125 26.02515625 11.9765625 25.0078125 C11.52634467 23.71343623 11.07580716 22.41917113 10.625 21.125 C10.40328125 20.47402344 10.1815625 19.82304687 9.953125 19.15234375 C8.93037374 16.23449455 8.21443349 14.21443349 6 12 C6 10.68 6 9.36 6 8 C5.030625 7.7525 4.06125 7.505 3.0625 7.25 C2.051875 6.8375 1.04125 6.425 0 6 C-0.20882812 5.01966797 -0.20882812 5.01966797 -0.421875 4.01953125 C-0.61265625 3.35308594 -0.8034375 2.68664062 -1 2 C-2.94930891 0.96804977 -2.94930891 0.96804977 -5.3125 0.4375 C-8.00307761 -0.27850495 -9.72465229 -0.77044817 -11.87890625 -2.56640625 C-16.96704894 -6.00535352 -25.22685519 -4.53079725 -31 -3.42578125 C-35.37702423 -2.19474318 -38.37377445 -0.73663176 -42 2 C-42.804375 2.12375 -43.60875 2.2475 -44.4375 2.375 C-48.00773274 3.24578847 -49.54760204 5.34875897 -52 8 C-52.99 8.495 -52.99 8.495 -54 9 C-54 9.99 -54 10.98 -54 12 C-54.66 12 -55.32 12 -56 12 C-56.33 13.32 -56.66 14.64 -57 16 C-57.66 16 -58.32 16 -59 16 C-59.33 18.31 -59.66 20.62 -60 23 C-60.66 23 -61.32 23 -62 23 C-61.79375 24.051875 -61.5875 25.10375 -61.375 26.1875 C-60.58159946 32.21951781 -61.906736 38.07288277 -63 44 C-62.34 44 -61.68 44 -61 44 C-61 81.62 -61 119.24 -61 158 C-61.33 158 -61.66 158 -62 158 C-62.33 159.98 -62.66 161.96 -63 164 C-63.66 164 -64.32 164 -65 164 C-65.09366924 146.47508886 -65.16408941 128.95025646 -65.20724869 111.42515182 C-65.22782584 103.28692987 -65.25585303 95.14886395 -65.30175781 87.01074219 C-65.3417748 79.91300828 -65.36746799 72.81538744 -65.37635398 65.71754384 C-65.38154375 61.96335544 -65.39363873 58.20949039 -65.42292023 54.45540619 C-65.4503252 50.91278139 -65.45839524 47.37060923 -65.45243073 43.82788849 C-65.45403428 41.92645961 -65.47542465 40.0250786 -65.49768066 38.1237793 C-65.43920674 25.77935485 -61.95713271 14.58974219 -54 5 C-39.81412157 -7.96258786 -16.03383693 -12.67791757 0 0 Z " fill="#0979B0" transform="translate(322,244)"/>
<path d="M0 0 C0.67968338 -0.00335861 1.35936676 -0.00671722 2.05964661 -0.01017761 C4.31720788 -0.01971378 6.5746952 -0.02163206 8.83227539 -0.02270508 C10.39547253 -0.02591584 11.95866936 -0.02927977 13.52186584 -0.03279114 C16.80299578 -0.0387891 20.08409934 -0.04063036 23.36523438 -0.04003906 C27.57668608 -0.03993741 31.78796931 -0.05358997 35.99938107 -0.07081127 C39.22922039 -0.08191142 42.45901874 -0.08395888 45.6888752 -0.08342934 C47.24186344 -0.08461244 48.79485263 -0.08905263 50.34782219 -0.0967617 C52.51715887 -0.10652171 54.68612656 -0.10369961 56.85546875 -0.09765625 C58.0915538 -0.09908127 59.32763885 -0.10050629 60.60118103 -0.10197449 C63.49243164 0.14526367 63.49243164 0.14526367 65.49243164 2.14526367 C42.06243164 2.14526367 18.63243164 2.14526367 -5.50756836 2.14526367 C-5.50756836 77.38526367 -5.50756836 152.62526367 -5.50756836 230.14526367 C-6.16756836 230.14526367 -6.82756836 230.14526367 -7.50756836 230.14526367 C-7.53035848 200.9890409 -7.54806641 171.832819 -7.55863369 142.67658911 C-7.55988446 139.238006 -7.56117878 135.79942292 -7.5625 132.36083984 C-7.56276231 131.67625137 -7.56302462 130.9916629 -7.56329488 130.28632932 C-7.56765162 119.18720949 -7.57553919 108.08809481 -7.58472116 96.98897804 C-7.59405759 85.6086184 -7.59954905 74.2282626 -7.60165685 62.8478989 C-7.60296439 56.45221414 -7.60605296 50.05654108 -7.61329842 43.66086006 C-7.62005465 37.64866962 -7.62218614 31.63649579 -7.62067604 25.62430191 C-7.62095255 23.41067985 -7.62296001 21.19705728 -7.62677383 18.98343849 C-7.63170488 15.97535276 -7.63056883 12.9673308 -7.62782288 9.95924377 C-7.63073572 9.07112946 -7.63364856 8.18301514 -7.63664967 7.26798826 C-7.61835191 -0.08116021 -7.2239795 0.02229142 0 0 Z " fill="#1472A4" transform="translate(77.507568359375,177.854736328125)"/>
<path d="M0 0 C0.66 0 1.32 0 2 0 C2.29132813 0.845625 2.58265625 1.69125 2.8828125 2.5625 C5.98614343 11.15033403 9.49924583 17.62366217 16 24 C16.71929688 24.79921875 17.43859375 25.5984375 18.1796875 26.421875 C21.56768942 29.51894047 25.00618641 31.2993779 29.125 33.25 C29.84042969 33.600625 30.55585938 33.95125 31.29296875 34.3125 C34.16296319 35.70726366 36.97002796 36.99000932 40 38 C40 38.66 40 39.32 40 40 C26.8 40 13.6 40 0 40 C0 26.8 0 13.6 0 0 Z " fill="#FAFDFB" transform="translate(0,434)"/>
<path d="M0 0 C13.2 0 26.4 0 40 0 C40 13.2 40 26.4 40 40 C39.34 40 38.68 40 38 40 C37.78085937 39.39414062 37.56171875 38.78828125 37.3359375 38.1640625 C34.03722044 29.44794018 30.10351238 21.23723039 23 15 C22.53464844 14.53207031 22.06929688 14.06414063 21.58984375 13.58203125 C15.59451674 7.85185383 7.79596275 4.59865425 0 2 C0 1.34 0 0.68 0 0 Z " fill="#F8FCFA" transform="translate(434,0)"/>
<path d="M0 0 C0.66 0 1.32 0 2 0 C2 13.2 2 26.4 2 40 C-11.2 40 -24.4 40 -38 40 C-38 39.34 -38 38.68 -38 38 C-37.18917969 37.731875 -36.37835938 37.46375 -35.54296875 37.1875 C-21.79369295 32.3216329 -10.62674749 24.71843701 -4.13134766 11.19091797 C-2.54998442 7.5287628 -1.21852105 3.79639724 0 0 Z " fill="#FCFDFA" transform="translate(472,434)"/>
<path d="M0 0 C13.2 0 26.4 0 40 0 C40 0.66 40 1.32 40 2 C39.17757812 2.27972656 38.35515625 2.55945313 37.5078125 2.84765625 C21.0491266 8.75833906 11.73519908 17.6259376 4.12890625 33.3359375 C3.18113655 35.57254281 2.48887902 37.62865577 2 40 C1.34 40 0.68 40 0 40 C0 26.8 0 13.6 0 0 Z " fill="#FCFDFC" transform="translate(0,0)"/>
<path d="M0 0 C0.99 0.33 1.98 0.66 3 1 C6.72200968 12.16602905 6.28967073 24.93787711 6.24291992 36.57983398 C6.24399639 38.16675901 6.24594045 39.75368365 6.24867249 41.34060669 C6.25345986 45.59376298 6.24594713 49.846812 6.23571944 54.09995532 C6.22685675 58.56639634 6.22869783 63.03283482 6.2290802 67.49928284 C6.22814849 74.97911348 6.21952383 82.45890314 6.20581055 89.9387207 C6.19000387 98.59252424 6.18481566 107.24628325 6.1855461 115.90010017 C6.18621997 125.13034934 6.17929787 134.36058133 6.1700995 143.59082532 C6.16796604 146.24947439 6.16725809 148.9081207 6.16686058 151.56677055 C6.16586009 155.72751508 6.15978779 159.88822191 6.14969444 164.04895401 C6.14676266 165.57886207 6.14554544 167.10877447 6.14612198 168.63868523 C6.1466092 170.71757381 6.14099203 172.79635517 6.13371277 174.87522888 C6.13203692 176.04079535 6.13036108 177.20636183 6.12863445 178.4072485 C6 181 6 181 5 182 C3.15881971 182.09381302 1.31402359 182.11743954 -0.52954102 182.11352539 C-1.71068985 182.11344986 -2.89183868 182.11337433 -4.10877991 182.11329651 C-5.3941716 182.10813522 -6.67956329 182.10297394 -8.00390625 182.09765625 C-9.9661338 182.09553383 -9.9661338 182.09553383 -11.96800232 182.09336853 C-15.45162859 182.0895441 -18.93521339 182.07971446 -22.41882324 182.06866455 C-25.97126708 182.05844882 -29.52371759 182.05387056 -33.07617188 182.04882812 C-40.05079832 182.03809212 -47.02539717 182.0210166 -54 182 C-54.495 183.98 -54.495 183.98 -55 186 C-55.99 186 -56.98 186 -58 186 C-58 184.68 -58 183.36 -58 182 C-60.31 182 -62.62 182 -65 182 C-65 181.67 -65 181.34 -65 181 C-42.23 181 -19.46 181 4 181 C3.93697868 160.28443927 3.86167303 139.56903993 3.76428509 118.85361481 C3.71944754 109.23363851 3.68000556 99.61369825 3.65356445 89.99365234 C3.63048637 81.60227323 3.59698014 73.21100929 3.55129844 64.8197217 C3.52749764 60.38253899 3.50868325 55.94546942 3.50238609 51.50822449 C3.49627511 47.31880255 3.47606273 43.12966958 3.44572449 38.9403553 C3.43703942 37.41516704 3.43320149 35.88994086 3.43499184 34.36472893 C3.44245931 25.05507872 2.58290388 16.42345992 0.64104939 7.30718231 C0 4 0 4 0 0 Z " fill="#1E7EAF" transform="translate(404,228)"/>
<path d="M0 0 C5.28630609 9.49851112 4.28055865 21.50253785 4.22705078 32.04980469 C4.22648537 33.62790927 4.22680576 35.20601437 4.22793579 36.78411865 C4.22850524 41.03125361 4.21681763 45.2782736 4.20278788 49.52538204 C4.1902119 53.977629 4.18910464 58.42987913 4.18673706 62.88214111 C4.18054235 71.29660049 4.16415895 79.71100735 4.14403808 88.1254437 C4.11741665 99.50755017 4.10669019 110.8896712 4.09503365 122.27180099 C4.07627673 140.18123993 4.03641773 158.0905681 4 176 C-19.1 176 -42.2 176 -66 176 C-66.33 130.79 -66.66 85.58 -67 39 C-66.34 39.33 -65.68 39.66 -65 40 C-65 84.55 -65 129.1 -65 175 C-42.89 174.67 -20.78 174.34 2 174 C2.04516189 153.78101972 2.08199796 133.56208033 2.10362434 113.3430624 C2.11393312 103.95484549 2.12798587 94.56666216 2.15087891 85.1784668 C2.17082494 76.99489779 2.18371933 68.81135311 2.18817699 60.62776047 C2.19078231 56.2953678 2.1968977 51.96304471 2.21146011 47.63067436 C2.22506318 43.55055004 2.22921713 39.4705238 2.22621536 35.39037895 C2.22676431 33.89524807 2.23072552 32.40011382 2.23841095 30.90500259 C2.24841503 28.85793091 2.24594927 26.81122572 2.24050903 24.7641449 C2.24235262 23.6201998 2.24419621 22.47625471 2.24609566 21.29764462 C1.97381506 17.6491258 1.06462297 14.49155921 0 11 C-0.1953125 7.91015625 -0.1953125 7.91015625 -0.125 5.0625 C-0.10695313 4.10472656 -0.08890625 3.14695313 -0.0703125 2.16015625 C-0.04710937 1.44730469 -0.02390625 0.73445312 0 0 Z " fill="#DCFDFE" transform="translate(404,232)"/>
<path d="M0 0 C23.76 0 47.52 0 72 0 C72 0.33 72 0.66 72 1 C67.71 1 63.42 1 59 1 C59 1.66 59 2.32 59 3 C62.3 3 65.6 3 69 3 C69.495 3.99 69.495 3.99 70 5 C69.2446698 5.01030746 68.4893396 5.02061493 67.71112061 5.03123474 C60.58967618 5.12924947 53.46831756 5.23176953 46.34701157 5.33933926 C42.68596092 5.39448202 39.02490217 5.44788799 35.36376953 5.49731445 C31.82998084 5.54508582 28.29628673 5.59743287 24.76261139 5.65294075 C22.75965338 5.68321171 20.75662573 5.70875493 18.75360107 5.73423767 C17.53263733 5.75418289 16.31167358 5.77412811 15.05371094 5.79467773 C13.44154694 5.81799416 13.44154694 5.81799416 11.79681396 5.84178162 C9.37148144 5.97898495 7.31695943 6.30394855 5 7 C5.33 5.68 5.66 4.36 6 3 C4.02 2.34 2.04 1.68 0 1 C0 0.67 0 0.34 0 0 Z " fill="#0679B3" transform="translate(72,409)"/>
<path d="M0 0 C2.31 0.33 4.62 0.66 7 1 C7.2475 2.03125 7.495 3.0625 7.75 4.125 C8.5301127 6.92783348 9.20156161 8.27084841 11 10.6875 C15.56321475 18.24532443 15.35278963 28.34781931 16 37 C18.475 36.505 18.475 36.505 21 36 C20.1395861 31.66770285 20.1395861 31.66770285 18 28 C17.85884839 25.32941149 17.95752893 22.67567762 18 20 C18.66 20 19.32 20 20 20 C20.33 19.34 20.66 18.68 21 18 C21.95276573 20.85829718 22.17603382 22.8724894 22.28125 25.8515625 C22.31863281 26.78484375 22.35601562 27.718125 22.39453125 28.6796875 C22.46512315 30.65103168 22.53543345 32.62238597 22.60546875 34.59375 C22.64285156 35.52445313 22.68023437 36.45515625 22.71875 37.4140625 C22.74904297 38.2695166 22.77933594 39.1249707 22.81054688 40.00634766 C22.78628524 41.99863252 22.78628524 41.99863252 24 43 C24.07179964 44.51928038 24.08392007 46.04167482 24.0625 47.5625 C24.05347656 48.38878906 24.04445312 49.21507812 24.03515625 50.06640625 C24.02355469 50.70449219 24.01195312 51.34257813 24 52 C23.195625 51.979375 22.39125 51.95875 21.5625 51.9375 C19.06645115 51.70366379 19.06645115 51.70366379 18 53 C15.9375 52.5625 15.9375 52.5625 14 52 C13.67 50.35 13.34 48.7 13 47 C11.515 49.475 11.515 49.475 10 52 C9.67 51.34 9.34 50.68 9 50 C9.66666667 48.66666667 10.33333333 47.33333333 11 46 C13.35398925 34.91454709 13.7391126 22.01567715 8 12 C7.57976562 11.25105469 7.15953125 10.50210938 6.7265625 9.73046875 C4.75012947 6.40646775 2.74073495 3.72484663 0 1 C0 0.67 0 0.34 0 0 Z " fill="#097DB9" transform="translate(136,76)"/>
<path d="M0 0 C0.99 0.495 0.99 0.495 2 1 C2 5.95 2 10.9 2 16 C3.32 16 4.64 16 6 16 C5.505 17.485 5.505 17.485 5 19 C4.34 19 3.68 19 3 19 C3.495 21.475 3.495 21.475 4 24 C6.0245738 22.06745228 7.42105792 20.36841312 9 18 C9.99 17.67 10.98 17.34 12 17 C12 16.34 12 15.68 12 15 C12.99 15.33 13.98 15.66 15 16 C14.28328125 16.69480469 13.5665625 17.38960937 12.828125 18.10546875 C9.41877357 21.51361801 6.43227334 25.23883069 3.3984375 28.97851562 C2.28569875 30.33571971 1.14531035 31.67016743 0 33 C-0.33 33 -0.66 33 -1 33 C-1 23.43 -1 13.86 -1 4 C-24.76 4 -48.52 4 -73 4 C-69.37637916 1.58425278 -67.65666682 1.73359777 -63.34130859 1.69702148 C-62.66948044 1.68858215 -61.99765228 1.68014282 -61.3054657 1.67144775 C-59.0864491 1.64567155 -56.86756541 1.63353206 -54.6484375 1.62109375 C-53.10811302 1.60492203 -51.56779881 1.58774238 -50.02749634 1.56959534 C-45.97388445 1.52390274 -41.92025898 1.48909614 -37.86651611 1.45739746 C-31.37043807 1.40551923 -24.87451052 1.34053554 -18.37862015 1.26918221 C-16.10458978 1.24628159 -13.83057878 1.23005621 -11.55648804 1.21446228 C-10.17095728 1.20106137 -8.78542856 1.18744708 -7.39990234 1.17358398 C-6.18539398 1.16407211 -4.97088562 1.15456024 -3.71957397 1.14476013 C-1.08558953 1.30843014 -1.08558953 1.30843014 0 0 Z " fill="#2479A6" transform="translate(257,176)"/>
<path d="M0 0 C0.99 0 1.98 0 3 0 C7.74193548 2.48387097 7.74193548 2.48387097 9 5 C10.64142963 6.0409066 12.30712215 7.04504326 14 8 C13.67 8.66 13.34 9.32 13 10 C12.21496094 9.50628906 11.42992187 9.01257813 10.62109375 8.50390625 C9.57050781 7.86324219 8.51992187 7.22257812 7.4375 6.5625 C6.40496094 5.92441406 5.37242188 5.28632812 4.30859375 4.62890625 C-4.17411746 0.45264819 -16.13359121 0.64727515 -25.3203125 2.765625 C-35.85837904 6.67268883 -45.17330629 14.77637028 -50 25 C-50.31582031 25.62648438 -50.63164063 26.25296875 -50.95703125 26.8984375 C-55.18940682 36.98656557 -54.21054357 50.32155388 -50.3359375 60.3515625 C-48.12386907 64.73689115 -45.23888682 68.33456336 -42 72 C-41.01829813 73.18540501 -40.03879623 74.37263897 -39.0625 75.5625 C-38.381875 76.366875 -37.70125 77.17125 -37 78 C-40.94264882 76.68578373 -43.33956629 75.21086827 -46 72 C-46.5259375 70.6696875 -46.5259375 70.6696875 -47.0625 69.3125 C-47.5265625 68.1678125 -47.5265625 68.1678125 -48 67 C-48.99 66.67 -49.98 66.34 -51 66 C-51.99 66.99 -51.99 66.99 -53 68 C-53.33 67.67 -53.66 67.34 -54 67 C-54 64.66666667 -54 62.33333333 -54 60 C-54.16226074 59.21238281 -54.32452148 58.42476562 -54.49169922 57.61328125 C-55.03374047 54.82653314 -55.12943472 52.27483616 -55.1328125 49.4375 C-55.13410156 48.39335938 -55.13539062 47.34921875 -55.13671875 46.2734375 C-55.13285156 45.19320312 -55.12898438 44.11296875 -55.125 43 C-55.12886719 41.91976562 -55.13273437 40.83953125 -55.13671875 39.7265625 C-55.13542969 38.68242188 -55.13414063 37.63828125 -55.1328125 36.5625 C-55.13168457 35.61503906 -55.13055664 34.66757813 -55.12939453 33.69140625 C-55.00155829 31.03241247 -54.59206413 28.59167693 -54 26 C-53.34 26 -52.68 26 -52 26 C-51.67 24.02 -51.34 22.04 -51 20 C-50.01 19.67 -49.02 19.34 -48 19 C-48 18.01 -48 17.02 -48 16 C-47.34 16 -46.68 16 -46 16 C-45.67 14.02 -45.34 12.04 -45 10 C-43.02 9.67 -41.04 9.34 -39 9 C-38.67 8.01 -38.34 7.02 -38 6 C-37.01 6 -36.02 6 -35 6 C-35 5.34 -35 4.68 -35 4 C-33.02 3.67 -31.04 3.34 -29 3 C-29 2.34 -29 1.68 -29 1 C-19.2831278 -1.45663586 -9.86738011 -1.72265714 0 0 Z " fill="#1E7BA5" transform="translate(120,65)"/>
<path d="M0 0 C0.99 0.680625 1.98 1.36125 3 2.0625 C9.23824418 7.38142398 12.74703571 16.0645595 14 24 C13.53515625 26.22265625 13.53515625 26.22265625 13 28 C12.66226563 27.01257813 12.32453125 26.02515625 11.9765625 25.0078125 C11.52634467 23.71343623 11.07580716 22.41917113 10.625 21.125 C10.40328125 20.47402344 10.1815625 19.82304687 9.953125 19.15234375 C8.93037374 16.23449455 8.21443349 14.21443349 6 12 C6 10.68 6 9.36 6 8 C5.030625 7.7525 4.06125 7.505 3.0625 7.25 C2.051875 6.8375 1.04125 6.425 0 6 C-0.13921875 5.34644531 -0.2784375 4.69289062 -0.421875 4.01953125 C-0.61265625 3.35308594 -0.8034375 2.68664062 -1 2 C-2.94930891 0.96804977 -2.94930891 0.96804977 -5.3125 0.4375 C-8.00307761 -0.27850495 -9.72465229 -0.77044817 -11.87890625 -2.56640625 C-16.96704894 -6.00535352 -25.22685519 -4.53079725 -31 -3.42578125 C-35.37702423 -2.19474318 -38.37377445 -0.73663176 -42 2 C-42.804375 2.12375 -43.60875 2.2475 -44.4375 2.375 C-48.00773274 3.24578847 -49.54760204 5.34875897 -52 8 C-52.99 8.495 -52.99 8.495 -54 9 C-54 9.99 -54 10.98 -54 12 C-54.66 12 -55.32 12 -56 12 C-56.33 13.32 -56.66 14.64 -57 16 C-57.66 16 -58.32 16 -59 16 C-59.33 18.31 -59.66 20.62 -60 23 C-60.66 23 -61.32 23 -62 23 C-61.814375 24.216875 -61.62875 25.43375 -61.4375 26.6875 C-61.01006818 30.02977939 -61.07741117 32.71968417 -62 36 C-64.79940112 31.80089833 -64.48953473 28.61233533 -63.5703125 23.70703125 C-60.77192289 12.841679 -55.07749908 4.82229048 -45.7734375 -1.41015625 C-32.16471035 -9.21121534 -12.67203113 -10.01974555 0 0 Z " fill="#17759D" transform="translate(322,244)"/>
<path d="M0 0 C0.7360849 -0.00570007 1.4721698 -0.01140015 2.2305603 -0.01727295 C3.79920006 -0.0267384 5.36785984 -0.03326304 6.93652344 -0.03710938 C9.27838115 -0.04664075 11.61929267 -0.07756998 13.9609375 -0.109375 C24.20790643 -0.17942025 33.72071619 0.93673775 43.7109375 3.203125 C43.7109375 3.863125 43.7109375 4.523125 43.7109375 5.203125 C46.0209375 5.533125 48.3309375 5.863125 50.7109375 6.203125 C51.0409375 5.543125 51.3709375 4.883125 51.7109375 4.203125 C52.7009375 4.203125 53.6909375 4.203125 54.7109375 4.203125 C54.7109375 5.523125 54.7109375 6.843125 54.7109375 8.203125 C56.92786144 9.86769828 56.92786144 9.86769828 59.7109375 11.203125 C63.72564454 13.41121387 66.51222377 15.92825142 69.7109375 19.203125 C70.85113229 20.14747457 71.99732466 21.08461506 73.1484375 22.015625 C79.6903599 27.65521328 83.42243543 34.25520959 87.1484375 41.953125 C87.51509521 42.69860596 87.88175293 43.44408691 88.25952148 44.2121582 C88.59282471 44.925896 88.92612793 45.63963379 89.26953125 46.375 C89.57173584 47.0153418 89.87394043 47.65568359 90.18530273 48.31542969 C90.82526992 50.61372337 90.45953293 51.96941782 89.7109375 54.203125 C89.22625 53.10355469 88.7415625 52.00398438 88.2421875 50.87109375 C84.22105216 41.92915862 80.05142459 33.77540405 73.7109375 26.203125 C73.19402344 25.5740625 72.67710937 24.945 72.14453125 24.296875 C59.26880771 10.09808212 38.84890966 3.05522459 20.13085938 2.06689453 C10.31907608 1.7829806 0.45420819 1.92531901 -9.2890625 3.203125 C-9.2890625 2.543125 -9.2890625 1.883125 -9.2890625 1.203125 C-6.31347422 -0.28466914 -3.26436293 0.01967635 0 0 Z " fill="#1A79A3" transform="translate(313.2890625,171.796875)"/>
<path d="M0 0 C0.67968338 -0.00335861 1.35936676 -0.00671722 2.05964661 -0.01017761 C4.31720788 -0.01971378 6.5746952 -0.02163206 8.83227539 -0.02270508 C10.39547253 -0.02591584 11.95866936 -0.02927977 13.52186584 -0.03279114 C16.80299578 -0.0387891 20.08409934 -0.04063036 23.36523438 -0.04003906 C27.57668608 -0.03993741 31.78796931 -0.05358997 35.99938107 -0.07081127 C39.22922039 -0.08191142 42.45901874 -0.08395888 45.6888752 -0.08342934 C47.24186344 -0.08461244 48.79485263 -0.08905263 50.34782219 -0.0967617 C52.51715887 -0.10652171 54.68612656 -0.10369961 56.85546875 -0.09765625 C58.0915538 -0.09908127 59.32763885 -0.10050629 60.60118103 -0.10197449 C63.49243164 0.14526367 63.49243164 0.14526367 65.49243164 2.14526367 C30.34743164 2.64026367 30.34743164 2.64026367 -5.50756836 3.14526367 C-5.83756836 5.12526367 -6.16756836 7.10526367 -6.50756836 9.14526367 C-6.83756836 9.14526367 -7.16756836 9.14526367 -7.50756836 9.14526367 C-7.60522461 2.99291992 -7.60522461 2.99291992 -7.50756836 1.14526367 C-5.63956473 -0.72273996 -2.49117317 0.00768714 0 0 Z " fill="#257AA7" transform="translate(77.507568359375,177.854736328125)"/>
<path d="M0 0 C1.32 0.33 2.64 0.66 4 1 C3.278125 1.66 2.55625 2.32 1.8125 3 C-4.37760462 9.2600493 -7.28516716 16.74933483 -10 25 C-10.66 25 -11.32 25 -12 25 C-12 18.4 -12 11.8 -12 5 C-11.34 4.67 -10.68 4.34 -10 4 C-9.67 3.01 -9.34 2.02 -9 1 C-7.68 1 -6.36 1 -5 1 C-5 1.99 -5 2.98 -5 4 C-3.35 3.67 -1.7 3.34 0 3 C0 2.01 0 1.02 0 0 Z " fill="#F5FCF9" transform="translate(12,15)"/>
<path d="M0 0 C9.85193491 -0.57701137 19.07140476 0.73087818 27 7 C27.99 7.680625 28.98 8.36125 30 9.0625 C36.23824418 14.38142398 39.74703571 23.0645595 41 31 C40.53515625 33.22265625 40.53515625 33.22265625 40 35 C39.66226563 34.01257813 39.32453125 33.02515625 38.9765625 32.0078125 C38.52634467 30.71343623 38.07580716 29.41917113 37.625 28.125 C37.40328125 27.47402344 37.1815625 26.82304687 36.953125 26.15234375 C35.93037374 23.23449455 35.21443349 21.21443349 33 19 C33 17.68 33 16.36 33 15 C32.030625 14.7525 31.06125 14.505 30.0625 14.25 C29.051875 13.8375 28.04125 13.425 27 13 C26.86078125 12.34644531 26.7215625 11.69289062 26.578125 11.01953125 C26.38734375 10.35308594 26.1965625 9.68664062 26 9 C24.05069109 7.96804977 24.05069109 7.96804977 21.6875 7.4375 C19.03285118 6.73105626 17.27738928 6.22469111 15.12890625 4.484375 C12.24546977 2.47390553 9.71439409 2.26287123 6.25 1.8125 C5.07953125 1.65394531 3.9090625 1.49539062 2.703125 1.33203125 C1.81109375 1.22246094 0.9190625 1.11289063 0 1 C0 0.67 0 0.34 0 0 Z " fill="#277BA2" transform="translate(295,237)"/>
<path d="M0 0 C1.88138672 0.05414062 1.88138672 0.05414062 3.80078125 0.109375 C5.22970703 0.17898438 5.22970703 0.17898438 6.6875 0.25 C6.6875 0.91 6.6875 1.57 6.6875 2.25 C5.85347656 2.54132813 5.01945312 2.83265625 4.16015625 3.1328125 C-3.01871265 5.74779567 -9.19925077 8.65321569 -15.3125 13.25 C-15.9725 12.59 -16.6325 11.93 -17.3125 11.25 C-17.3125 9.93 -17.3125 8.61 -17.3125 7.25 C-15.125 5.75 -15.125 5.75 -12.3125 4.25 C-11.5803125 3.56421875 -10.848125 2.8784375 -10.09375 2.171875 C-6.50930564 -0.30501633 -4.30908826 -0.16108741 0 0 Z " fill="#F1F8F4" transform="translate(33.3125,-0.25)"/>
<path d="M0 0 C0.33 0 0.66 0 1 0 C1 4.95 1 9.9 1 15 C1.66 15 2.32 15 3 15 C3 14.01 3 13.02 3 12 C4.32 12 5.64 12 7 12 C6.67 12.99 6.34 13.98 6 15 C5.34 15 4.68 15 4 15 C4.33 16.65 4.66 18.3 5 20 C7.0245738 18.06745228 8.42105792 16.36841312 10 14 C10.99 13.67 11.98 13.34 13 13 C13 12.34 13 11.68 13 11 C13.99 11.33 14.98 11.66 16 12 C15.28328125 12.69480469 14.5665625 13.38960937 13.828125 14.10546875 C10.41877357 17.51361801 7.43227334 21.23883069 4.3984375 24.97851562 C3.28569875 26.33571971 2.14531035 27.67016743 1 29 C0.67 29 0.34 29 0 29 C0 19.43 0 9.86 0 0 Z " fill="#2A85B3" transform="translate(256,180)"/>
<path d="M0 0 C0.81984375 0.34933594 1.6396875 0.69867188 2.484375 1.05859375 C3.56203125 1.51363281 4.6396875 1.96867188 5.75 2.4375 C7.35101563 3.11619141 7.35101563 3.11619141 8.984375 3.80859375 C19.188245 7.83991545 29.86446377 6.66321815 40 3 C41.32920553 2.65056968 42.66149398 2.3119143 44 2 C44 2.66 44 3.32 44 4 C42.35 4.66 40.7 5.32 39 6 C39 6.66 39 7.32 39 8 C32.22598109 11.38700946 19.12376329 9.991277 11.94140625 8.10546875 C9.22278933 7.181857 6.60367822 6.20750294 4 5 C4 4.34 4 3.68 4 3 C2.68 2.67 1.36 2.34 0 2 C0 1.34 0 0.68 0 0 Z " fill="#2079AA" transform="translate(84,143)"/>
<path d="M0 0 C1.33333333 0.66666667 2.66666667 1.33333333 4 2 C4.99 2.433125 5.98 2.86625 7 3.3125 C10.29778937 5.16750652 11.73887037 7.00947371 14 10 C15.175625 10.8971875 15.175625 10.8971875 16.375 11.8125 C22.58047764 16.98373137 25.97284052 23.57748058 29.4375 30.75 C29.98724487 31.86797974 29.98724487 31.86797974 30.5480957 33.00854492 C30.88156006 33.72244385 31.21502441 34.43634277 31.55859375 35.171875 C31.86079834 35.8122168 32.16300293 36.45255859 32.47436523 37.11230469 C33.11433242 39.41059837 32.74859543 40.76629282 32 43 C31.5153125 41.90042969 31.030625 40.80085938 30.53125 39.66796875 C23.80191254 24.70371267 16.00538668 11.96488504 1.72265625 3.26171875 C1.15417969 2.84535156 0.58570313 2.42898437 0 2 C0 1.34 0 0.68 0 0 Z " fill="#28769F" transform="translate(371,183)"/>
<path d="M0 0 C0 3.92379055 -1.60406942 5.00508678 -4 8 C-4 8.99 -4 9.98 -4 11 C-4.33 11.33 -4.66 11.66 -5 12 C-7.69082872 11.82364548 -10.32851446 11.38164079 -13 11 C-13 12.32 -13 13.64 -13 15 C-16.63 15 -20.26 15 -24 15 C-24 14.34 -24 13.68 -24 13 C-23.18917969 12.731875 -22.37835938 12.46375 -21.54296875 12.1875 C-13.28736892 9.26584418 -6.80373127 5.494797 0 0 Z " fill="#DDF7FB" transform="translate(458,459)"/>
<path d="M0 0 C2.31 0.33 4.62 0.66 7 1 C7.2475 2.03125 7.495 3.0625 7.75 4.125 C8.5301127 6.92783348 9.20156161 8.27084841 11 10.6875 C15.64498109 18.38074993 15.90124452 29.19961238 15 38 C14.36569945 39.34903115 13.70328709 40.6856144 13 42 C12.98598145 41.16976318 12.98598145 41.16976318 12.97167969 40.32275391 C12.91558316 25.61812391 12.91558316 25.61812391 8 12 C7.58105469 11.25363281 7.16210938 10.50726563 6.73046875 9.73828125 C4.75312595 6.41084941 2.74310654 3.72720447 0 1 C0 0.67 0 0.34 0 0 Z " fill="#277DA8" transform="translate(136,76)"/>
<path d="M0 0 C0.66 0 1.32 0 2 0 C2 3.63 2 7.26 2 11 C0.68 11.33 -0.64 11.66 -2 12 C-2.061875 13.0725 -2.12375 14.145 -2.1875 15.25 C-3 19 -3 19 -5.25 21.375 C-7.94257098 22.96606467 -9.91482939 23.64740907 -13 24 C-12.62488281 23.53851563 -12.24976563 23.07703125 -11.86328125 22.6015625 C-6.4848191 15.74639411 -2.43271522 8.40392532 0 0 Z " fill="#E1F8FC" transform="translate(472,434)"/>
<path d="M0 0 C0.33 0 0.66 0 1 0 C0.07014163 11.15830047 -6.44848545 19.15718073 -14 27 C-19.41721854 31 -19.41721854 31 -22 31 C-22 30.34 -22 29.68 -22 29 C-20.68 28.67 -19.36 28.34 -18 28 C-18 26.68 -18 25.36 -18 24 C-17.40703125 23.91492188 -16.8140625 23.82984375 -16.203125 23.7421875 C-13.37071712 22.78800754 -12.49041146 21.52465822 -10.75 19.125 C-10.22921875 18.42632812 -9.7084375 17.72765625 -9.171875 17.0078125 C-7.74796002 14.95563484 -7.74796002 14.95563484 -8 12 C-6.68 12 -5.36 12 -4 12 C-3.896875 10.948125 -3.79375 9.89625 -3.6875 8.8125 C-3.02191729 5.12154134 -2.18245468 3.00087519 0 0 Z " fill="#21789F" transform="translate(470,435)"/>
<path d="M0 0 C0 0.66 0 1.32 0 2 C-0.75023437 2.29132813 -1.50046875 2.58265625 -2.2734375 2.8828125 C-11.56155543 6.60273882 -19.76511628 11.36560588 -28 17 C-26.65942846 13.39076892 -25.38343872 10.04093905 -23 7 C-18.92988794 5.41717864 -15.35640363 4.73597554 -11 5 C-11 4.34 -11 3.68 -11 3 C-9.73160474 2.49384702 -8.46016898 1.99530901 -7.1875 1.5 C-6.12595703 1.08234375 -6.12595703 1.08234375 -5.04296875 0.65625 C-3 0 -3 0 0 0 Z " fill="#2277A6" transform="translate(300,175)"/>
<path d="M0 0 C1.37671875 0.81404297 1.37671875 0.81404297 2.78125 1.64453125 C9.04667542 5.31059876 15.05136719 8.7764375 22 11 C22 11.66 22 12.32 22 13 C19.03 13 16.06 13 13 13 C12.67 12.34 12.34 11.68 12 11 C10.88625 11.12375 10.88625 11.12375 9.75 11.25 C7 11 7 11 4.6875 9.1875 C3 7 3 7 3 4 C2.34 4 1.68 4 1 4 C0.67 2.68 0.34 1.36 0 0 Z " fill="#D2F9FD" transform="translate(18,461)"/>
<path d="M0 0 C-0.33 2.31 -0.66 4.62 -1 7 C-1.99 7.33 -2.98 7.66 -4 8 C-4.68132451 9.66072849 -5.34742127 11.327767 -6 13 C-6.99 13.66 -7.98 14.32 -9 15 C-9 14.34 -9 13.68 -9 13 C-9.66 13 -10.32 13 -11 13 C-11.33 13.99 -11.66 14.98 -12 16 C-14.0625 16.6875 -14.0625 16.6875 -16 17 C-3.44416244 0 -3.44416244 0 0 0 Z " fill="#EAF7F2" transform="translate(272,193)"/>
<path d="M0 0 C0.33 0 0.66 0 1 0 C1.25 2.75 1.25 2.75 1 6 C-0.31200404 7.35432675 -1.64631404 8.68733482 -3 10 C-3.80315654 13.14481791 -3.80315654 13.14481791 -4 16 C-3.34 16 -2.68 16 -2 16 C-2.33 18.97 -2.66 21.94 -3 25 C-3.66 24.34 -4.32 23.68 -5 23 C-5.66 23.66 -6.32 24.32 -7 25 C-8.25664978 22.09399739 -9 20.20395416 -9 17 C-8.34 17 -7.68 17 -7 17 C-6.938125 16.21625 -6.87625 15.4325 -6.8125 14.625 C-5.7286398 9.78931605 -3.59544567 3.59544567 0 0 Z " fill="#1787BF" transform="translate(9,23)"/>
<path d="M0 0 C5.61 0 11.22 0 17 0 C16.67 0.66 16.34 1.32 16 2 C15.01 2 14.02 2 13 2 C13 2.66 13 3.32 13 4 C14.98 4 16.96 4 19 4 C19 4.66 19 5.32 19 6 C18.01 6 17.02 6 16 6 C16 6.66 16 7.32 16 8 C10.55123997 6.27933894 5.28830549 4.15294651 0 2 C0 1.34 0 0.68 0 0 Z " fill="#F4FBF8" transform="translate(434,0)"/>
<path d="M0 0 C4.81590531 0.55288339 8.36676136 1.95633516 12.625 4.25 C14.28402344 5.12398438 14.28402344 5.12398438 15.9765625 6.015625 C19.05806892 8.03811242 20.88506713 10.00814375 23 13 C21.35 13.33 19.7 13.66 18 14 C17.67 13.01 17.34 12.02 17 11 C17.33 10.67 17.66 10.34 18 10 C15.08235 8.0549 13.37462715 7.54723683 10 7 C9.7525 7.639375 9.505 8.27875 9.25 8.9375 C8 11 8 11 5.875 11.75 C4.946875 11.87375 4.946875 11.87375 4 12 C4.495 11.236875 4.99 10.47375 5.5 9.6875 C7.24368308 7.07636249 7.24368308 7.07636249 7 4 C4.69 3.34 2.38 2.68 0 2 C0 1.34 0 0.68 0 0 Z " fill="#1678AA" transform="translate(434,2)"/>
<path d="M0 0 C7.34117647 0.48941176 7.34117647 0.48941176 10.5 2.9375 C12 5 12 5 12 7 C14.97 7.99 17.94 8.98 21 10 C21 10.66 21 11.32 21 12 C20.34 12 19.68 12 19 12 C18.67 13.65 18.34 15.3 18 17 C17.443125 16.278125 16.88625 15.55625 16.3125 14.8125 C11.52984471 8.99575708 6.02390941 4.46215512 0 0 Z " fill="#CDF0F7" transform="translate(314,239)"/>
<path d="M0 0 C3.32943825 0.55490638 6.11610028 1.20999328 9 3 C9.99 4.485 9.99 4.485 11 6 C13.03426205 6.39483391 13.03426205 6.39483391 15.3125 6.375 C19.20153359 6.65726857 19.87909692 6.8988362 23.0625 9.5625 C23.701875 10.366875 24.34125 11.17125 25 12 C16.51573707 11.85619893 10.01620119 8.69366367 3 4 C1.1171875 1.76953125 1.1171875 1.76953125 0 0 Z " fill="#1D7498" transform="translate(18,460)"/>
<path d="M0 0 C0.99 0.33 1.98 0.66 3 1 C3 1.66 3 2.32 3 3 C3.58394531 3.19851562 4.16789063 3.39703125 4.76953125 3.6015625 C7.95064605 5.59602677 8.9732493 8.06549214 10.6875 11.375 C11.28949219 12.51710938 11.89148438 13.65921875 12.51171875 14.8359375 C15.01917581 20.16675172 15.09697077 24.18175396 15 30 C13.5 28.375 13.5 28.375 12 26 C12.04125 25.113125 12.0825 24.22625 12.125 23.3125 C11.88876603 17.0522999 7.78989452 12.00292676 4.1875 7.0625 C2 4 2 4 2 2 C1.34 2 0.68 2 0 2 C0 1.34 0 0.68 0 0 Z " fill="#C8ECF5" transform="translate(134,76)"/>
<path d="M0 0 C0.66 0 1.32 0 2 0 C2.8394882 2.10171867 3.67139656 4.20646625 4.5 6.3125 C5.19609375 8.07013672 5.19609375 8.07013672 5.90625 9.86328125 C7 13 7 13 7 16 C6.34 15.34 5.68 14.68 5 14 C4.01 14 3.02 14 2 14 C1.34 15.32 0.68 16.64 0 18 C0 12.06 0 6.12 0 0 Z " fill="#E8F7F8" transform="translate(0,434)"/>
<path d="M0 0 C6.29722557 1.39938346 12.06084316 3.49289691 18 6 C18 6.33 18 6.66 18 7 C16.9275 6.979375 15.855 6.95875 14.75 6.9375 C11.23057037 6.82977349 11.23057037 6.82977349 8.875 7.625 C6.05301619 8.18939676 4.4584528 7.39533808 2 6 C1.25 4 1.25 4 1 2 C0.67 1.34 0.34 0.68 0 0 Z " fill="#E1F5F5" transform="translate(350,176)"/>
<path d="M0 0 C1 2 1 2 1 5 C-0.375 7.1875 -0.375 7.1875 -2 9 C-2.66 9 -3.32 9 -4 9 C-3.67 9.99 -3.34 10.98 -3 12 C-6.75 15 -6.75 15 -9 15 C-9 15.66 -9 16.32 -9 17 C-11.31 17 -13.62 17 -16 17 C-15.34 16.505 -14.68 16.01 -14 15.5 C-8.62846156 11.02371796 -3.16910265 6.3382053 0 0 Z " fill="#2380A3" transform="translate(144,128)"/>
<path d="M0 0 C5.72963895 3.70741344 9.95816488 9.79206855 11.6015625 16.4296875 C11.875 18.625 11.875 18.625 12 22 C11.67 21.01 11.34 20.02 11 19 C10.34 19 9.68 19 9 19 C8.18501438 17.3970947 7.37310073 15.79262722 6.5625 14.1875 C6.11003906 13.29417969 5.65757812 12.40085937 5.19140625 11.48046875 C4 9 4 9 3 6 C2.01 5.67 1.02 5.34 0 5 C0 3.35 0 1.7 0 0 Z " fill="#1D769E" transform="translate(459,17)"/>
<path d="M0 0 C-1.155 0.556875 -2.31 1.11375 -3.5 1.6875 C-11.75498091 5.63627031 -11.75498091 5.63627031 -18 12 C-19.32 12 -20.64 12 -22 12 C-20.50115053 8.02059848 -18.25287411 6.56536515 -14.6875 4.375 C-13.74261719 3.78460937 -12.79773437 3.19421875 -11.82421875 2.5859375 C-4.35009894 -1.61114776 -4.35009894 -1.61114776 0 0 Z " fill="#1974A8" transform="translate(40,3)"/>
<path d="M0 0 C-0.58007812 0.38929688 -1.16015625 0.77859375 -1.7578125 1.1796875 C-7.96285972 5.6235662 -11.52834293 10.2336723 -15 17 C-16.1914033 13.04865524 -15.76708665 10.78661425 -14 7 C-12.67696283 6.6278958 -11.34262065 6.29369827 -10 6 C-9.690625 5.195625 -9.38125 4.39125 -9.0625 3.5625 C-8 1 -8 1 -5.5625 -0.375 C-3 -1 -3 -1 0 0 Z " fill="#DAF6FC" transform="translate(277,243)"/>
<path d="M0 0 C0.99 0.33 1.98 0.66 3 1 C5.81626208 9.44878624 5.14059671 19.18927255 5 28 C4.67 28 4.34 28 4 28 C3.51915734 24.83358551 3.04063706 21.66682407 2.5625 18.5 C2.42779297 17.613125 2.29308594 16.72625 2.15429688 15.8125 C1.36088751 10.54890614 0.63592563 5.28497416 0 0 Z " fill="#2375A4" transform="translate(404,228)"/>
<path d="M0 0 C0 0.66 0 1.32 0 2 C-0.66 2 -1.32 2 -2 2 C-2.33 2.99 -2.66 3.98 -3 5 C-8.94 5.495 -8.94 5.495 -15 6 C-15 6.66 -15 7.32 -15 8 C-16.65 8 -18.3 8 -20 8 C-16.87097592 5.43510286 -13.72890861 3.86465821 -10 2.3125 C-8.96875 1.87550781 -7.9375 1.43851563 -6.875 0.98828125 C-4 0 -4 0 0 0 Z " fill="#E3F8FB" transform="translate(304,176)"/>
<path d="M0 0 C5.28 0 10.56 0 16 0 C16 0.33 16 0.66 16 1 C15.00097656 1.13277344 14.00195312 1.26554688 12.97265625 1.40234375 C11.68230469 1.57894531 10.39195312 1.75554687 9.0625 1.9375 C7.77472656 2.11152344 6.48695313 2.28554687 5.16015625 2.46484375 C2.14533687 2.66162423 2.14533687 2.66162423 1 4 C-0.66617115 4.04063832 -2.33388095 4.042721 -4 4 C-2.68 3.67 -1.36 3.34 0 3 C0 2.01 0 1.02 0 0 Z M-6 4 C-5.34 4.33 -4.68 4.66 -4 5 C-6.93828597 7.50298434 -9.17902761 8.46930939 -13 9 C-13 8.34 -13 7.68 -13 7 C-10.69631264 5.93347808 -8.35981813 4.93578995 -6 4 Z " fill="#1176A8" transform="translate(288,238)"/>
<path d="M0 0 C1.32 0 2.64 0 4 0 C4.66 1.65 5.32 3.3 6 5 C6.99 4.67 7.98 4.34 9 4 C11.6875 5.9375 11.6875 5.9375 14 8 C13.01 8.33 12.02 8.66 11 9 C10.34 8.67 9.68 8.34 9 8 C8.67 8.99 8.34 9.98 8 11 C7.7525 10.21625 7.505 9.4325 7.25 8.625 C5.79075497 5.56058543 4.94985044 5.38274239 2 4 C0.75 1.875 0.75 1.875 0 0 Z " fill="#1380C6" transform="translate(9,450)"/>
<path d="M0 0 C1.34518576 3.72168061 0.62225623 6.29762902 -0.375 10.0625 C-1.85811575 16.04914073 -2.64262379 21.85066449 -3 28 C-3.33 28 -3.66 28 -4 28 C-4.4271618 17.87863851 -4.52270791 9.34827573 0 0 Z " fill="#C9EDF6" transform="translate(70,88)"/>
<path d="M0 0 C1.32 0.33 2.64 0.66 4 1 C4.33 2.32 4.66 3.64 5 5 C6.32 4.67 7.64 4.34 9 4 C7.35 5.98 5.7 7.96 4 10 C3.67 8.68 3.34 7.36 3 6 C2.01 6 1.02 6 0 6 C0 4.02 0 2.04 0 0 Z " fill="#EAFDFE" transform="translate(131,130)"/>
<path d="M0 0 C4.91853586 3.86962619 8.63754267 7.70158238 12 13 C12 13.66 12 14.32 12 15 C11.01 14.67 10.02 14.34 9 14 C9 13.01 9 12.02 9 11 C8.13375 10.938125 8.13375 10.938125 7.25 10.875 C3.86782273 9.55970884 2.85132542 7.02383152 1 4 C0.34 3.34 -0.32 2.68 -1 2 C-0.67 1.34 -0.34 0.68 0 0 Z " fill="#CCEEF6" transform="translate(382,193)"/>
<path d="M0 0 C3.1875 -0.3125 3.1875 -0.3125 6 0 C6 0.99 6 1.98 6 3 C3.3125 5 3.3125 5 0 7 C-1.423125 7.86625 -1.423125 7.86625 -2.875 8.75 C-3.926875 9.36875 -3.926875 9.36875 -5 10 C-2.4 3 -2.4 3 0 0 Z " fill="#1778BF" transform="translate(277,182)"/>
<path d="M0 0 C4.22797927 3.08290155 4.22797927 3.08290155 6 5 C6.375 7.8125 6.375 7.8125 6 10 C4.68 9.67 3.36 9.34 2 9 C1.67 7.35 1.34 5.7 1 4 C-0.485 6.475 -0.485 6.475 -2 9 C-2.33 8.34 -2.66 7.68 -3 7 C-2.06421005 4.64018187 -1.06652192 2.30368736 0 0 Z " fill="#0B77A8" transform="translate(148,119)"/>
<path d="M0 0 C0.66 0.33 1.32 0.66 2 1 C1.34 3.31 0.68 5.62 0 8 C-2.97 7.505 -2.97 7.505 -6 7 C-5.67 7.99 -5.34 8.98 -5 10 C-5.99 10.66 -6.98 11.32 -8 12 C-8.33 10.68 -8.66 9.36 -9 8 C-6.03 5.36 -3.06 2.72 0 0 Z " fill="#DEF5F9" transform="translate(86,71)"/>
<path d="M0 0 C0.66 0.33 1.32 0.66 2 1 C2 6.94 2 12.88 2 19 C1.34 19 0.68 19 0 19 C-0.19476139 16.39619004 -0.38108614 13.79224467 -0.5625 11.1875 C-0.61857422 10.44951172 -0.67464844 9.71152344 -0.73242188 8.95117188 C-0.95769724 5.63211484 -1.06255812 3.18767436 0 0 Z " fill="#0876B0" transform="translate(257,176)"/>
<path d="M0 0 C0 0.99 0 1.98 0 3 C-1.27875 2.855625 -2.5575 2.71125 -3.875 2.5625 C-8.91280884 2.00185355 -13.95536879 1.49498469 -19 1 C-19 0.67 -19 0.34 -19 0 C-12.48755792 -0.69508823 -6.4489191 -1.31909709 0 0 Z " fill="#D2F5FA" transform="translate(314,236)"/>
<path d="M0 0 C7.22124213 0.41830366 14.04567778 0.95461111 21 3 C17.69229985 5.20513343 17.41402489 5.21109679 13.76953125 4.5390625 C12.96708984 4.39726562 12.16464844 4.25546875 11.33789062 4.109375 C10.50451172 3.94953125 9.67113281 3.7896875 8.8125 3.625 C7.96751953 3.47289062 7.12253906 3.32078125 6.25195312 3.1640625 C4.16596983 2.78693558 2.0826948 2.39488403 0 2 C0 1.34 0 0.68 0 0 Z " fill="#297EA9" transform="translate(336,172)"/>
<path d="M0 0 C0.66 0 1.32 0 2 0 C2.66 3.63 3.32 7.26 4 11 C4.99 11.33 5.98 11.66 7 12 C7 13.98 7 15.96 7 18 C4.32520907 15.65476784 3.11833777 13.41711208 1.8125 10.125 C1.46832031 9.28195312 1.12414062 8.43890625 0.76953125 7.5703125 C-0.02757207 4.90790649 -0.14355008 2.7621015 0 0 Z " fill="#2478A6" transform="translate(2,432)"/>
<path d="M0 0 C4.76563433 4.57500895 9.33259688 9.49889533 13 15 C6.02822483 12.67607494 3.24896892 8.26586863 0 2 C0 1.34 0 0.68 0 0 Z " fill="#277B9F" transform="translate(70,128)"/>
<path d="M0 0 C2.38171031 3.80273074 2.65510945 7.89003197 3.125 12.25 C3.21136719 12.99507812 3.29773438 13.74015625 3.38671875 14.5078125 C3.59786867 16.33777846 3.79984545 18.16879879 4 20 C1.64884648 17.20761123 0.60358772 15.32933081 0.3125 11.6875 C0.24804688 10.90890625 0.18359375 10.1303125 0.1171875 9.328125 C-0.0398386 6.20853973 -0.06644509 3.12291942 0 0 Z " fill="#C4EBF2" transform="translate(404,232)"/>
<path d="M0 0 C0.33 0 0.66 0 1 0 C1.25 2.75 1.25 2.75 1 6 C-0.31129922 7.35500919 -1.64691687 8.68671343 -3 10 C-4.27765265 13.63543901 -4.27765265 13.63543901 -5 17 C-5.33 17 -5.66 17 -6 17 C-6.81689674 10.79158475 -3.99942645 6.22195228 -1 1 C-0.67 0.67 -0.34 0.34 0 0 Z " fill="#2076A4" transform="translate(9,23)"/>
<path d="M0 0 C2.57945213 2.9954928 4.17360993 5.14351301 5 9 C5.66 9.33 6.32 9.66 7 10 C7 11.98 7 13.96 7 16 C6.34 16 5.68 16 5 16 C3 11 1 6 -1 1 C-0.67 0.67 -0.34 0.34 0 0 Z " fill="#C6F2F9" transform="translate(467,24)"/>
<path d="M0 0 C1.08667969 0.11085937 2.17335938 0.22171875 3.29296875 0.3359375 C4.12441406 0.43132812 4.95585937 0.52671875 5.8125 0.625 C5.8125 0.955 5.8125 1.285 5.8125 1.625 C4.83667969 1.82996094 3.86085938 2.03492188 2.85546875 2.24609375 C1.58316406 2.51550781 0.31085938 2.78492188 -1 3.0625 C-2.26457031 3.32933594 -3.52914063 3.59617188 -4.83203125 3.87109375 C-8.15795413 4.55927886 -8.15795413 4.55927886 -11.1875 5.625 C-11.1875 3.625 -11.1875 3.625 -9.1875 1.625 C-5.54331659 -0.80445561 -4.25826636 -0.4578781 0 0 Z " fill="#C6EDF5" transform="translate(289.1875,236.375)"/>
<path d="M0 0 C2.31 0.66 4.62 1.32 7 2 C7 2.66 7 3.32 7 4 C6.34 4 5.68 4 5 4 C4.67 5.65 4.34 7.3 4 9 C0 4.5 0 4.5 0 0 Z " fill="#E3F5F8" transform="translate(328,247)"/>
<path d="M0 0 C3.03952713 4.5592907 5 8.47162419 5 14 C4.34 14 3.68 14 3 14 C0.56574762 9.03006806 -0.34615998 5.65394631 0 0 Z " fill="#CBECF4" transform="translate(399,217)"/>
<path d="M0 0 C0.93535338 2.9931308 1.03188926 4.9672174 0.25 8 C0.09015625 8.66 -0.0696875 9.32 -0.234375 10 C-1.13481364 12.35216625 -2.41839335 14.0534072 -4 16 C-3.65697965 10.01488629 -3.17692157 5.24882694 0 0 Z " fill="#CFF2F8" transform="translate(148,112)"/>
<path d="M0 0 C0.33 0.99 0.66 1.98 1 3 C1.66 3 2.32 3 3 3 C2.34 4.32 1.68 5.64 1 7 C0.67 6.34 0.34 5.68 0 5 C-0.66 5 -1.32 5 -2 5 C-2.33 5.99 -2.66 6.98 -3 8 C-5.0625 8.6875 -5.0625 8.6875 -7 9 C-6.02180976 7.68677212 -5.0424189 6.37443848 -4.0625 5.0625 C-3.51722656 4.33160156 -2.97195313 3.60070312 -2.41015625 2.84765625 C-1 1 -1 1 0 0 Z " fill="#DAF0F4" transform="translate(263,201)"/>
<path d="M0 0 C1.11375 0.598125 2.2275 1.19625 3.375 1.8125 C4.00148438 2.14894531 4.62796875 2.48539063 5.2734375 2.83203125 C7 4 7 4 9 7 C8.01 7.33 7.02 7.66 6 8 C3.95703125 6.78515625 3.95703125 6.78515625 1.8125 5.0625 C1.09707031 4.49660156 0.38164062 3.93070313 -0.35546875 3.34765625 C-0.89816406 2.90292969 -1.44085938 2.45820313 -2 2 C-1.34 1.34 -0.68 0.68 0 0 Z " fill="#D4F2F8" transform="translate(373,186)"/>
<path d="M0 0 C3.1875 -0.3125 3.1875 -0.3125 7 0 C9.9375 2.5 9.9375 2.5 12 5 C9.03 4.67 6.06 4.34 3 4 C3 3.34 3 2.68 3 2 C2.01 1.34 1.02 0.68 0 0 Z " fill="#147DA8" transform="translate(31,467)"/>
<path d="M0 0 C1.9375 0.8125 1.9375 0.8125 4 2 C4.33 2.99 4.66 3.98 5 5 C3.68 5 2.36 5 1 5 C0.67 5.66 0.34 6.32 0 7 C-0.99 6.67 -1.98 6.34 -3 6 C-3 4.35 -3 2.7 -3 1 C-2.01 1.33 -1.02 1.66 0 2 C0 1.34 0 0.68 0 0 Z " fill="#D9ECED" transform="translate(11,454)"/>
<path d="M0 0 C0.66 0 1.32 0 2 0 C2 0.99 2 1.98 2 3 C1.34 3 0.68 3 0 3 C0.185625 4.216875 0.37125 5.43375 0.5625 6.6875 C0.98993182 10.02977939 0.92258883 12.71968417 0 16 C-2.48709896 12.26935156 -2.29991053 10.42368032 -2 6 C-1 2.5625 -1 2.5625 0 0 Z " fill="#1076A1" transform="translate(260,264)"/>
<path d="M0 0 C3 1 3 1 4.1796875 2.765625 C5.09442005 5.25718223 5.20275975 7.10616836 5.125 9.75 C5.10695313 10.54921875 5.08890625 11.3484375 5.0703125 12.171875 C5.03550781 13.07679688 5.03550781 13.07679688 5 14 C2.42853943 11.42853943 2.19882003 9.3949583 1.375 5.875 C1.11460937 4.77929688 0.85421875 3.68359375 0.5859375 2.5546875 C0.39257812 1.71164062 0.19921875 0.86859375 0 0 Z " fill="#CDF0F8" transform="translate(332,256)"/>
<path d="M0 0 C0.99 0.33 1.98 0.66 3 1 C2.278125 1.70125 1.55625 2.4025 0.8125 3.125 C-1.99823813 5.92770745 -4.49516226 8.92262792 -7 12 C-7.33 11.34 -7.66 10.68 -8 10 C-4.85245902 3.35519126 -4.85245902 3.35519126 -1.75 2.0625 C-1.1725 2.041875 -0.595 2.02125 0 2 C0 1.34 0 0.68 0 0 Z " fill="#257EAC" transform="translate(269,191)"/>
<path d="M0 0 C2.64 0.33 5.28 0.66 8 1 C8 1.99 8 2.98 8 4 C5.03 4 2.06 4 -1 4 C-0.67 2.68 -0.34 1.36 0 0 Z " fill="#067AB1" transform="translate(344,166)"/>
<path d="M0 0 C0 0.66 0 1.32 0 2 C-4.62 3.65 -9.24 5.3 -14 7 C-14.33 6.34 -14.66 5.68 -15 5 C-13.44424022 4.15415002 -11.8800388 3.32381601 -10.3125 2.5 C-9.44238281 2.0359375 -8.57226562 1.571875 -7.67578125 1.09375 C-4.88211171 -0.04818792 -2.98370887 -0.21504208 0 0 Z " fill="#D1F4FB" transform="translate(40,0)"/>
<path d="M0 0 C5.78461538 3.32307692 5.78461538 3.32307692 6.875 6.75 C6.936875 7.86375 6.936875 7.86375 7 9 C7.66 9 8.32 9 9 9 C9 9.66 9 10.32 9 11 C6.53199953 9.84826645 4.95216435 8.95216435 3 7 C3 6.01 3 5.02 3 4 C2.34 4 1.68 4 1 4 C0.67 2.68 0.34 1.36 0 0 Z " fill="#DEF5F6" transform="translate(18,461)"/>
<path d="M0 0 C0 0.66 0 1.32 0 2 C-6.89715536 6.07877462 -6.89715536 6.07877462 -11.5 5.75 C-12.325 5.5025 -13.15 5.255 -14 5 C-9.89892226 2.77858289 -4.73442329 0 0 0 Z " fill="#3183AC" transform="translate(128,145)"/>
<path d="M0 0 C0.66 0 1.32 0 2 0 C0.45730076 4.72065967 -1.07794619 9.41664092 -3 14 C-3.33 14 -3.66 14 -4 14 C-4 11.69 -4 9.38 -4 7 C-3.34 7 -2.68 7 -2 7 C-1.855625 6.030625 -1.71125 5.06125 -1.5625 4.0625 C-1 1 -1 1 0 0 Z " fill="#1E7799" transform="translate(70,84)"/>
<path d="M0 0 C4.08378283 0.74250597 8.01939223 1.82923301 12 3 C12 3.99 12 4.98 12 6 C6 4 6 4 0 2 C0 1.34 0 0.68 0 0 Z " fill="#C8EEF8" transform="translate(434,0)"/>
<path d="M0 0 C0.33 0 0.66 0 1 0 C0.45144652 4.571279 -0.41744803 8.67435795 -2 13 C-2.66 13 -3.32 13 -4 13 C-4.63934602 7.88523181 -2.40533547 4.32745622 0 0 Z " fill="#CDF5FA" transform="translate(4,27)"/>
<path d="M0 0 C-0.56589844 0.27714844 -1.13179687 0.55429687 -1.71484375 0.83984375 C-2.44832031 1.20207031 -3.18179688 1.56429688 -3.9375 1.9375 C-5.03384766 2.47697266 -5.03384766 2.47697266 -6.15234375 3.02734375 C-7.96249027 3.86371827 -7.96249027 3.86371827 -9 5 C-10.66617115 5.04063832 -12.33388095 5.042721 -14 5 C-10.47470999 0.64522999 -5.39743041 -1.75564769 0 0 Z " fill="#2B7CA2" transform="translate(40,3)"/>
<path d="M0 0 C0.99 0.33 1.98 0.66 3 1 C-5.261959 5.59225513 -5.261959 5.59225513 -10 5 C-9.67 4.01 -9.34 3.02 -9 2 C-6.94921875 1.77213542 -4.8984375 1.54427083 -2.84765625 1.31640625 C-0.98859771 1.18113386 -0.98859771 1.18113386 0 0 Z " fill="#1E7A9C" transform="translate(445,466)"/>
<path d="M0 0 C0.33 0.66 0.66 1.32 1 2 C0.67 2.66 0.34 3.32 0 4 C-2.5625 4.625 -2.5625 4.625 -5 5 C-5.33 5.99 -5.66 6.98 -6 8 C-7.32 7.67 -8.64 7.34 -10 7 C-8.70982586 6.01886757 -7.41780894 5.04015801 -6.125 4.0625 C-5.04605469 3.24458984 -5.04605469 3.24458984 -3.9453125 2.41015625 C-2 1 -2 1 0 0 Z " fill="#CFF3FA" transform="translate(283,184)"/>
<path d="M0 0 C3 2 3 2 4 3 C4 3.99 4 4.98 4 6 C2.35 6.66 0.7 7.32 -1 8 C-1.04241723 5.66705225 -1.04092937 3.33297433 -1 1 C-0.67 0.67 -0.34 0.34 0 0 Z " fill="#E1F3F5" transform="translate(129,136)"/>
<path d="M0 0 C1.32 0.33 2.64 0.66 4 1 C3.2575 1.721875 2.515 2.44375 1.75 3.1875 C-0.69290515 5.68592573 -2.8681047 8.23643202 -5 11 C-4.75 8.125 -4.75 8.125 -4 5 C-1.9375 3.625 -1.9375 3.625 0 3 C0 2.01 0 1.02 0 0 Z " fill="#D1EEF6" transform="translate(12,15)"/>
<path d="M0 0 C0.66 0 1.32 0 2 0 C1.67 1.65 1.34 3.3 1 5 C0.34 5 -0.32 5 -1 5 C-1.33 6.32 -1.66 7.64 -2 9 C-2.66 9 -3.32 9 -4 9 C-2.94124926 5.59687262 -1.99097846 2.98646769 0 0 Z " fill="#247DAA" transform="translate(264,255)"/>
<path d="M0 0 C1.98 0 3.96 0 6 0 C2.87378374 3.39417765 0.43458973 5.6062718 -4 7 C-4 6.34 -4 5.68 -4 5 C-2.68 4.67 -1.36 4.34 0 4 C0 2.68 0 1.36 0 0 Z " fill="#3080A1" transform="translate(452,459)"/>
<path d="M0 0 C1.32 0 2.64 0 4 0 C5.8125 2.3125 5.8125 2.3125 7 5 C6.67 5.99 6.34 6.98 6 8 C6 7.34 6 6.68 6 6 C5.38125 5.7525 4.7625 5.505 4.125 5.25 C1.64931313 3.79371361 1.04874998 2.62187494 0 0 Z " fill="#1876A9" transform="translate(9,450)"/>
<path d="M0 0 C4 1 4 1 4 1 Z M-2 1 C-1.34 1.33 -0.68 1.66 0 2 C-2.93828597 4.50298434 -5.17902761 5.46930939 -9 6 C-9 5.34 -9 4.68 -9 4 C-6.69631264 2.93347808 -4.35981813 1.93578995 -2 1 Z " fill="#0F7BB2" transform="translate(284,241)"/>
<path d="M0 0 C-0.33 0.99 -0.66 1.98 -1 3 C-2.98 3.33 -4.96 3.66 -7 4 C-7 4.66 -7 5.32 -7 6 C-8.65 6 -10.3 6 -12 6 C-8.59780735 3.25207517 -4.51535412 0 0 0 Z " fill="#C4EFF8" transform="translate(296,178)"/>
<path d="M0 0 C0.33 0.66 0.66 1.32 1 2 C0.67 2.66 0.34 3.32 0 4 C0.99 4.33 1.98 4.66 3 5 C3 5.66 3 6.32 3 7 C2.01 6.67 1.02 6.34 0 6 C-2.6569191 6.87914688 -2.6569191 6.87914688 -5 8 C-3.62845496 5.04590299 -2.01136276 2.55991624 0 0 Z " fill="#D0F0F5" transform="translate(76,80)"/>
<path d="M0 0 C2.64 0 5.28 0 8 0 C7.67 1.98 7.34 3.96 7 6 C7.66 6.33 8.32 6.66 9 7 C8.01 7 7.02 7 6 7 C5.7525 6.38125 5.505 5.7625 5.25 5.125 C3.79371361 2.64931313 2.62187494 2.04874998 0 1 C0 0.67 0 0.34 0 0 Z " fill="#107CB4" transform="translate(128,69)"/>
<path d="M0 0 C0.66 0.66 1.32 1.32 2 2 C1.2884375 3.175625 1.2884375 3.175625 0.5625 4.375 C-0.33898023 5.88948678 -1.21179485 7.4235897 -2 9 C-4.5625 9.625 -4.5625 9.625 -7 10 C-6.57847656 9.44570313 -6.15695312 8.89140625 -5.72265625 8.3203125 C-5.17480469 7.59585937 -4.62695312 6.87140625 -4.0625 6.125 C-3.51722656 5.40570313 -2.97195313 4.68640625 -2.41015625 3.9453125 C-0.96035376 2.05642921 -0.96035376 2.05642921 0 0 Z " fill="#C1E8F2" transform="translate(466,448)"/>
<path d="M0 0 C-2.64 1.98 -5.28 3.96 -8 6 C-8 4.35 -8 2.7 -8 1 C-3.375 -1.125 -3.375 -1.125 0 0 Z " fill="#BDEDF4" transform="translate(277,243)"/>
<path d="M0 0 C0.66 0 1.32 0 2 0 C3.32421875 1.64453125 3.32421875 1.64453125 4.6875 3.8125 C5.14511719 4.52019531 5.60273438 5.22789062 6.07421875 5.95703125 C7 8 7 8 6 11 C4.9944239 9.54550599 3.99569565 8.08627557 3 6.625 C2.443125 5.81289062 1.88625 5.00078125 1.3125 4.1640625 C0 2 0 2 0 0 Z " fill="#1B7299" transform="translate(391,201)"/>
<path d="M0 0 C0.99 0 1.98 0 3 0 C4.60725635 3.21451269 4.05748185 6.43612536 4 10 C1.81024227 6.71536341 1.00193437 3.79303725 0 0 Z " fill="#C8F1F9" transform="translate(67,118)"/>
<path d="M0 0 C0.99 0.33 1.98 0.66 3 1 C3 3.31 3 5.62 3 8 C2.01 8 1.02 8 0 8 C-1.125 2.25 -1.125 2.25 0 0 Z " fill="#1281C6" transform="translate(457,15)"/>
<path d="M0 0 C0 0.66 0 1.32 0 2 C-3.82320557 3.42258812 -6.91281305 4.24042276 -11 4 C-7.2060585 0.99101192 -4.96966376 0 0 0 Z " fill="#257CA1" transform="translate(288,239)"/>
<path d="M0 0 C2.64 0 5.28 0 8 0 C8 0.66 8 1.32 8 2 C5.36 2.33 2.72 2.66 0 3 C0 2.01 0 1.02 0 0 Z " fill="#F9FAEE" transform="translate(288,233)"/>
<path d="M0 0 C0.99 0 1.98 0 3 0 C3 0.66 3 1.32 3 2 C3.66 2.33 4.32 2.66 5 3 C5.33 3.66 5.66 4.32 6 5 C5.01 5.33 4.02 5.66 3 6 C3 5.34 3 4.68 3 4 C1.68 3.67 0.36 3.34 -1 3 C-0.67 2.01 -0.34 1.02 0 0 Z " fill="#F9FBEB" transform="translate(365,185)"/>
<path d="M0 0 C1.22589844 0.15275391 1.22589844 0.15275391 2.4765625 0.30859375 C3.41628906 0.43427734 3.41628906 0.43427734 4.375 0.5625 C4.375 0.8925 4.375 1.2225 4.375 1.5625 C0.745 1.8925 -2.885 2.2225 -6.625 2.5625 C-6.625 1.9025 -6.625 1.2425 -6.625 0.5625 C-4.10446405 -0.69776798 -2.7707902 -0.35624445 0 0 Z " fill="#237DAA" transform="translate(310.625,172.4375)"/>
<path d="M0 0 C5.75 -0.125 5.75 -0.125 8 1 C8 1.66 8 2.32 8 3 C7.01 3 6.02 3 5 3 C4.01 4.485 4.01 4.485 3 6 C2.01 4.02 1.02 2.04 0 0 Z " fill="#DDF3F5" transform="translate(71,128)"/>
<path d="M0 0 C3 3 3 3 3.1875 5.6875 C3.0946875 6.8321875 3.0946875 6.8321875 3 8 C2.01 8.33 1.02 8.66 0 9 C0 6.03 0 3.06 0 0 Z " fill="#0181B0" transform="translate(154,104)"/>
<path d="M0 0 C5.75 1.75 5.75 1.75 8 4 C5.6875 4.6875 5.6875 4.6875 3 5 C1.1875 3.6875 1.1875 3.6875 0 2 C0 1.34 0 0.68 0 0 Z " fill="#C3EBF1" transform="translate(24,466)"/>
<path d="M0 0 C0 0.99 0 1.98 0 3 C-0.99 3.495 -0.99 3.495 -2 4 C-3.04808041 5.97522846 -4.0520411 7.97481509 -5 10 C-6 8 -6 8 -5.1875 4.4375 C-3.65454545 0 -3.65454545 0 0 0 Z " fill="#F5F8F0" transform="translate(474,445)"/>
<path d="M0 0 C0.66 0 1.32 0 2 0 C2.33 1.32 2.66 2.64 3 4 C1.1875 5.5625 1.1875 5.5625 -1 7 C-1.99 6.67 -2.98 6.34 -4 6 C-4 5.34 -4 4.68 -4 4 C-3.01 4 -2.02 4 -1 4 C-0.67 2.68 -0.34 1.36 0 0 Z " fill="#F1F8F5" transform="translate(284,184)"/>
<path d="M0 0 C0.8353125 0.37125 0.8353125 0.37125 1.6875 0.75 C0.6975 1.245 0.6975 1.245 -0.3125 1.75 C-0.3125 2.41 -0.3125 3.07 -0.3125 3.75 C-2.6225 3.75 -4.9325 3.75 -7.3125 3.75 C-2.88173077 -0.31153846 -2.88173077 -0.31153846 0 0 Z " fill="#1B79AF" transform="translate(135.3125,141.25)"/>
<path d="M0 0 C1.65 0 3.3 0 5 0 C5 1.32 5 2.64 5 4 C3.35 4 1.7 4 0 4 C0 2.68 0 1.36 0 0 Z " fill="#0B7BB1" transform="translate(67,140)"/>
<path d="M0 0 C3.26460973 1.80412643 4.88929795 2.83394693 7 6 C5.35 6.33 3.7 6.66 2 7 C1.67 6.01 1.34 5.02 1 4 C1.33 3.67 1.66 3.34 2 3 C1.34 2.67 0.68 2.34 0 2 C0 1.34 0 0.68 0 0 Z " fill="#1575A3" transform="translate(450,9)"/>
<path d="M0 0 C1.65 0 3.3 0 5 0 C5 1.32 5 2.64 5 4 C3.35 3.67 1.7 3.34 0 3 C0 2.01 0 1.02 0 0 Z " fill="#0180CA" transform="translate(444,9)"/>
<path d="M0 0 C3.875 4.75 3.875 4.75 5 7 C2.625 6.6875 2.625 6.6875 0 6 C-0.66 5.01 -1.32 4.02 -2 3 C-1.34 2.01 -0.68 1.02 0 0 Z " fill="#F1FAFA" transform="translate(381,193)"/>
<path d="M0 0 C3.45925163 1.2491742 6.14693203 2.67527795 9 5 C5.625 4.75 5.625 4.75 2 4 C0.5625 1.9375 0.5625 1.9375 0 0 Z " fill="#D5F4F9" transform="translate(123,69)"/>
<path d="M0 0 C0.66 0 1.32 0 2 0 C2.33 0.66 2.66 1.32 3 2 C5.01669827 3.13350534 5.01669827 3.13350534 7 4 C7 4.66 7 5.32 7 6 C1.25 4.25 1.25 4.25 -1 2 C-0.67 1.34 -0.34 0.68 0 0 Z " fill="#0583C7" transform="translate(126,64)"/>
<path d="M0 0 C0.99 0.33 1.98 0.66 3 1 C2.67 2.65 2.34 4.3 2 6 C1.34 5.67 0.68 5.34 0 5 C0.33 4.34 0.66 3.68 1 3 C0.34 3 -0.32 3 -1 3 C-1.33 3.66 -1.66 4.32 -2 5 C-2 3.68 -2 2.36 -2 1 C-1.34 0.67 -0.68 0.34 0 0 Z " fill="#F2F7F9" transform="translate(461,457)"/>
<path d="M0 0 C0.99 0 1.98 0 3 0 C3 1.98 3 3.96 3 6 C2.01 6 1.02 6 0 6 C0 4.02 0 2.04 0 0 Z " fill="#007FCA" transform="translate(5,435)"/>
<path d="M0 0 C3.0916909 2.52956528 3.90931332 5.22454612 5 9 C2.5 6.75 2.5 6.75 0 4 C0 2.68 0 1.36 0 0 Z " fill="#C7F1F5" transform="translate(394,208)"/>
<path d="M0 0 C1.32 0.33 2.64 0.66 4 1 C1.03 3.475 1.03 3.475 -2 6 C-2.33 5.34 -2.66 4.68 -3 4 C-2.01 2.68 -1.02 1.36 0 0 Z " fill="#287CA6" transform="translate(275,186)"/>
<path d="M0 0 C0 1.32 0 2.64 0 4 C-1.8125 4.625 -1.8125 4.625 -4 5 C-4.99 4.34 -5.98 3.68 -7 3 C-2.25 0 -2.25 0 0 0 Z " fill="#F9F7F1" transform="translate(304,179)"/>
<path d="M0 0 C6.625 -0.125 6.625 -0.125 10 1 C10 1.66 10 2.32 10 3 C6.14354879 3.22036864 3.50776784 2.60355101 0 1 C0 0.67 0 0.34 0 0 Z " fill="#EAFDFD" transform="translate(113,68)"/>
<path d="M0 0 C0.99 0.33 1.98 0.66 3 1 C3 2.65 3 4.3 3 6 C2.01 6 1.02 6 0 6 C0 4.02 0 2.04 0 0 Z " fill="#FEF8F0" transform="translate(3,447)"/>
<path d="M0 0 C2.64465038 3.1254959 3.84414715 6.08788267 5 10 C0.07692308 5.69230769 0.07692308 5.69230769 -0.3125 2.1875 C-0.209375 1.465625 -0.10625 0.74375 0 0 Z " fill="#D1EDF7" transform="translate(3,440)"/>
<path d="M0 0 C5.75 1.75 5.75 1.75 8 4 C7.01 4.33 6.02 4.66 5 5 C3.35 3.35 1.7 1.7 0 0 Z " fill="#CBEDF7" transform="translate(80,139)"/>
<path d="M0 0 C2 2 2 2 2.1953125 3.9453125 C2.13020833 5.96354167 2.06510417 7.98177083 2 10 C0.4375 8.375 0.4375 8.375 -1 6 C-0.6875 2.75 -0.6875 2.75 0 0 Z " fill="#D5F3F9" transform="translate(147,96)"/>
<path d="M0 0 C2.475 0.495 2.475 0.495 5 1 C5.33 2.65 5.66 4.3 6 6 C1.125 3.375 1.125 3.375 0 0 Z " fill="#1E739A" transform="translate(136,76)"/>
<path d="M0 0 C2.475 0.495 2.475 0.495 5 1 C5 1.66 5 2.32 5 3 C5.66 3 6.32 3 7 3 C6.67 4.32 6.34 5.64 6 7 C1.125 2.25 1.125 2.25 0 0 Z " fill="#C6ECF7" transform="translate(454,11)"/>
<path d="M0 0 C1.98 0 3.96 0 6 0 C6 0.66 6 1.32 6 2 C5.01 2 4.02 2 3 2 C3 2.66 3 3.32 3 4 C1.68 3.34 0.36 2.68 -1 2 C-0.67 1.34 -0.34 0.68 0 0 Z " fill="#EAF1ED" transform="translate(447,4)"/>
</svg>
