<?xml version="1.0" encoding="UTF-8"?>
<svg version="1.1" xmlns="http://www.w3.org/2000/svg" width="1024" height="1024">
<path d="M0 0 C1.29166194 -0.00320648 2.58332387 -0.00641296 3.91412708 -0.0097166 C7.48554784 -0.018296 11.05686282 -0.01452715 14.62828508 -0.00866088 C18.51906525 -0.00447719 22.40982659 -0.01190009 26.30060214 -0.01781338 C33.1152555 -0.02656608 39.92987881 -0.0278908 46.7445364 -0.02431011 C56.87837875 -0.01899946 67.01219205 -0.02510207 77.14603124 -0.03339304 C96.29857289 -0.04863194 115.45110131 -0.05033823 134.60364775 -0.04787002 C149.39350484 -0.04603723 164.1833576 -0.04779667 178.97321415 -0.05209446 C181.0982061 -0.05269686 183.22319805 -0.05329806 185.34819001 -0.05389806 C188.55036636 -0.05480532 191.75254271 -0.05571398 194.95471906 -0.05663041 C224.72632587 -0.06505981 254.49793105 -0.06939572 284.26953888 -0.06522369 C285.39183344 -0.06506732 286.51412801 -0.06491094 287.6704315 -0.06474983 C293.35863838 -0.06394405 299.04684527 -0.06309828 304.73505215 -0.06223653 C306.42958961 -0.06197989 306.42958961 -0.06197989 308.15836016 -0.06171808 C310.44287077 -0.06137142 312.72738138 -0.06102289 315.01189198 -0.06067249 C350.56041881 -0.05531506 386.10892084 -0.0632464 421.65744305 -0.08170605 C461.59878774 -0.10242252 501.54011706 -0.11314945 541.48146743 -0.10913056 C545.74034353 -0.10873522 549.99921963 -0.10837367 554.25809574 -0.10803318 C555.83105415 -0.10789708 555.83105415 -0.10789708 557.4357895 -0.10775824 C573.26502423 -0.10659233 589.09424345 -0.11324001 604.92347431 -0.1238451 C622.92600937 -0.13589395 640.92851025 -0.13745966 658.93104581 -0.12505493 C669.00398261 -0.11842473 679.07683768 -0.12006114 689.14976795 -0.13364345 C695.88158648 -0.14188813 702.61334379 -0.13919013 709.34515735 -0.12766818 C713.17843235 -0.121412 717.01154789 -0.11981028 720.84481368 -0.13153151 C724.98174725 -0.14406456 729.11830157 -0.13321644 733.25523376 -0.12025452 C734.43461379 -0.12756386 735.61399381 -0.13487321 736.82911262 -0.14240405 C745.13582113 -0.08850654 752.76373677 1.26496256 760.81637859 3.25447559 C761.57072864 3.43171196 762.32507868 3.60894834 763.10228782 3.79155551 C775.68978598 6.79794484 787.16834987 11.24463898 798.62887859 17.19197559 C799.41746258 17.59883595 800.20604656 18.0056963 801.01852703 18.42488575 C806.35076261 21.25953184 811.06886832 24.53566373 815.81637859 28.25447559 C817.0227341 29.15816355 818.230999 30.05930956 819.44137859 30.95760059 C820.56670675 31.80612389 821.69171132 32.65507653 822.81637859 33.50447559 C823.40032391 33.93760059 823.98426922 34.37072559 824.58590984 34.81697559 C826.03338217 35.91529183 827.43027095 37.07966485 828.81637859 38.25447559 C828.81637859 38.91447559 828.81637859 39.57447559 828.81637859 40.25447559 C829.77544109 40.65666309 829.77544109 40.65666309 830.75387859 41.06697559 C832.81637859 42.25447559 832.81637859 42.25447559 833.81637859 45.25447559 C834.47637859 45.58447559 835.13637859 45.91447559 835.81637859 46.25447559 C836.47637859 46.58447559 837.13637859 46.91447559 837.81637859 47.25447559 C838.14637859 48.24447559 838.47637859 49.23447559 838.81637859 50.25447559 C839.40676922 50.53162403 839.99715984 50.80877247 840.60544109 51.09431934 C845.54193581 53.68467081 848.62143797 59.76246769 851.81637859 64.25447559 C852.33329266 64.95572559 852.85020672 65.65697559 853.38278484 66.37947559 C873.64186135 95.00768626 879.62648976 127.10683466 879.44631364 161.5335764 C879.43161733 165.42668659 879.4464192 169.31971549 879.45719862 173.21282333 C879.47207477 180.01298613 879.46866631 186.81294136 879.45278072 193.6130991 C879.42922399 203.72514538 879.43460225 213.83703728 879.44548962 223.94909781 C879.4640191 242.01313394 879.4544125 260.07707103 879.43301199 278.14109904 C879.41442324 293.94401947 879.40603588 309.7469067 879.40758038 325.54983807 C879.40767205 326.59984886 879.40776373 327.64985966 879.40785818 328.73168896 C879.40825136 332.9943913 879.408701 337.25709362 879.40922957 341.51979594 C879.4140948 381.46154823 879.39147539 421.40324165 879.35527334 461.34497565 C879.32326172 496.81490252 879.31123371 532.28477914 879.31735516 567.75471973 C879.317742 570.03366757 879.31812846 572.3126154 879.31851453 574.59156323 C879.31870587 575.71824582 879.31889722 576.84492842 879.31909436 578.0057529 C879.32004873 583.67757883 879.3209631 589.34940476 879.32183361 595.0212307 C879.3220943 596.69976191 879.3220943 596.69976191 879.32236026 598.41220285 C879.32671611 628.07734113 879.31670015 657.742474 879.30199575 687.40760845 C879.30147561 688.46293086 879.30095547 689.51825327 879.30041957 690.60555514 C879.29964055 692.18560999 879.29964055 692.18560999 879.2988458 693.79758514 C879.29832806 694.84899887 879.29781032 695.9004126 879.29727689 696.98368735 C879.29622881 699.1010654 879.2951686 701.21844344 879.29409617 703.33582148 C879.28672012 718.08721308 879.2846265 732.83859702 879.28609017 747.58999024 C879.2879365 766.59444814 879.2798571 785.59885873 879.25444871 804.60330117 C879.24129597 814.64963151 879.2362658 824.69588634 879.24308725 834.74222342 C879.24680385 841.45589279 879.23957104 848.16949336 879.22349487 854.88314434 C879.21463703 858.70583222 879.21040031 862.52836498 879.21942204 866.35105605 C879.22903338 870.47645892 879.21531925 874.60146687 879.19948864 878.72685051 C879.20916635 880.49077529 879.20916635 880.49077529 879.21903956 882.29033491 C879.15933667 890.58731144 877.80208452 898.21087846 875.81637859 906.25447559 C875.55054024 907.38606547 875.55054024 907.38606547 875.27933142 908.54051575 C872.27253923 921.1279302 867.82623805 932.60640285 861.87887859 944.06697559 C861.47201824 944.85555958 861.06515789 945.64414356 860.64596844 946.45662403 C857.81132234 951.78885961 854.53519046 956.50696532 850.81637859 961.25447559 C849.91269064 962.4608311 849.01154463 963.669096 848.11325359 964.87947559 C847.26473029 966.00480375 846.41577766 967.12980832 845.56637859 968.25447559 C845.13325359 968.83842091 844.70012859 969.42236622 844.25387859 970.02400684 C843.15556236 971.47147917 841.99118934 972.86836795 840.81637859 974.25447559 C840.15637859 974.25447559 839.49637859 974.25447559 838.81637859 974.25447559 C838.54825359 974.89385059 838.28012859 975.53322559 838.00387859 976.19197559 C836.81637859 978.25447559 836.81637859 978.25447559 833.81637859 979.25447559 C833.48637859 979.91447559 833.15637859 980.57447559 832.81637859 981.25447559 C832.48637859 981.91447559 832.15637859 982.57447559 831.81637859 983.25447559 C830.82637859 983.58447559 829.83637859 983.91447559 828.81637859 984.25447559 C828.53923016 984.84486622 828.26208172 985.43525684 827.97653484 986.04353809 C825.38618338 990.98003281 819.3083865 994.05953497 814.81637859 997.25447559 C814.11512859 997.77138966 813.41387859 998.28830372 812.69137859 998.82088184 C801.71416781 1006.58902899 788.72304914 1013.45637414 775.81637859 1017.25447559 C775.14751629 1017.45379688 774.47865398 1017.65311817 773.78952312 1017.8584795 C771.46860917 1018.54483353 769.14387984 1019.21581251 766.81637859 1019.87947559 C766.09248943 1020.08612843 765.36860027 1020.29278126 764.62277508 1020.5056963 C754.24645592 1023.36136153 744.39603079 1024.54883692 733.63275719 1024.50895119 C732.34109525 1024.51215767 731.04943331 1024.51536414 729.71863011 1024.51866779 C726.14720935 1024.52724719 722.57589436 1024.52347833 719.00447211 1024.51761206 C715.11369193 1024.51342837 711.22293059 1024.52085128 707.33215505 1024.52676457 C700.51750168 1024.53551727 693.70287837 1024.53684199 686.88822079 1024.5332613 C676.75437843 1024.52795065 666.62056514 1024.53405325 656.48672594 1024.54234423 C637.3341843 1024.55758313 618.18165588 1024.55928942 599.02910944 1024.5568212 C584.23925235 1024.55498841 569.44939959 1024.55674786 554.65954304 1024.56104565 C552.53455109 1024.56164805 550.40955913 1024.56224925 548.28456718 1024.56284925 C545.08239083 1024.5637565 541.88021448 1024.56466517 538.67803813 1024.5655816 C508.90643132 1024.574011 479.13482614 1024.57834691 449.36321831 1024.57417488 C447.67977646 1024.57394032 447.67977646 1024.57394032 445.96232569 1024.57370101 C440.2741188 1024.57289523 434.58591192 1024.57204946 428.89770504 1024.57118771 C427.7680134 1024.57101662 426.63832175 1024.57084554 425.47439703 1024.57066926 C423.18988642 1024.57032261 420.90537581 1024.56997408 418.6208652 1024.56962368 C383.07233837 1024.56426624 347.52383635 1024.57219759 311.97531414 1024.59065723 C272.03396945 1024.61137371 232.09264013 1024.62210064 192.15128976 1024.61808175 C187.89241366 1024.6176864 183.63353755 1024.61732486 179.37466145 1024.61698437 C177.80170304 1024.61684827 177.80170304 1024.61684827 176.19696769 1024.61670942 C160.36773295 1024.61554352 144.53851373 1024.6221912 128.70928288 1024.63279629 C110.70674782 1024.64484514 92.70424694 1024.64641085 74.70171138 1024.63400612 C64.62877458 1024.62737592 54.5559195 1024.62901233 44.48298924 1024.64259463 C37.75117071 1024.65083932 31.01941339 1024.64814131 24.28759984 1024.63661937 C20.45432483 1024.63036319 16.62120929 1024.62876147 12.7879435 1024.6404827 C8.65100993 1024.65301575 4.51445562 1024.64216763 0.37752342 1024.6292057 C-0.8018566 1024.63651505 -1.98123662 1024.6438244 -3.19635543 1024.65135524 C-11.50306394 1024.59745773 -19.13097958 1023.24398863 -27.18362141 1021.25447559 C-27.93797145 1021.07723922 -28.69232149 1020.90000285 -29.46953063 1020.71739568 C-42.05702879 1017.71100635 -53.53559268 1013.2643122 -64.99612141 1007.31697559 C-65.78470539 1006.91011524 -66.57328938 1006.50325489 -67.38576984 1006.08406544 C-72.71800542 1003.24941934 -77.43611113 999.97328746 -82.18362141 996.25447559 C-83.38997691 995.35078764 -84.59824182 994.44964163 -85.80862141 993.55135059 C-86.93394956 992.70282729 -88.05895413 991.85387466 -89.18362141 991.00447559 C-90.05953938 990.35478809 -90.05953938 990.35478809 -90.95315266 989.69197559 C-92.40062498 988.59365936 -93.79751377 987.42928634 -95.18362141 986.25447559 C-95.18362141 985.59447559 -95.18362141 984.93447559 -95.18362141 984.25447559 C-95.82299641 983.98635059 -96.46237141 983.71822559 -97.12112141 983.44197559 C-99.18362141 982.25447559 -99.18362141 982.25447559 -100.18362141 979.25447559 C-100.84362141 978.92447559 -101.50362141 978.59447559 -102.18362141 978.25447559 C-104.18362141 977.25447559 -104.18362141 977.25447559 -105.18362141 974.25447559 C-105.77401203 973.97732716 -106.36440266 973.70017872 -106.97268391 973.41463184 C-111.90917862 970.82428038 -114.98868078 964.7464835 -118.18362141 960.25447559 C-118.70053547 959.55322559 -119.21744953 958.85197559 -119.75002766 958.12947559 C-127.5181748 947.15226481 -134.38551995 934.16114614 -138.18362141 921.25447559 C-138.3829427 920.58561329 -138.58226398 919.91675098 -138.78762531 919.22762012 C-139.47397934 916.90670617 -140.14495832 914.58197684 -140.80862141 912.25447559 C-141.01527424 911.53058643 -141.22192707 910.80669727 -141.43484211 910.06087208 C-144.29050734 899.68455292 -145.47798273 889.83412779 -145.438097 879.07085419 C-145.44130348 877.77919225 -145.44450996 876.48753031 -145.4478136 875.15672711 C-145.456393 871.58530635 -145.45262415 868.01399136 -145.44675788 864.44256911 C-145.44257419 860.55178893 -145.44999709 856.66102759 -145.45591038 852.77025205 C-145.46466308 845.95559868 -145.4659878 839.14097537 -145.46240711 832.32631779 C-145.45709646 822.19247543 -145.46319907 812.05866214 -145.47149005 801.92482294 C-145.48672894 782.7722813 -145.48843523 763.61975288 -145.48596702 744.46720644 C-145.48413423 729.67734935 -145.48589367 714.88749659 -145.49019146 700.09764004 C-145.49079386 697.97264809 -145.49139506 695.84765613 -145.49199506 693.72266418 C-145.49290232 690.52048783 -145.49381098 687.31831148 -145.49472741 684.11613513 C-145.50315681 654.34452832 -145.50749272 624.57292314 -145.50332069 594.80131531 C-145.50316432 593.67902074 -145.50300794 592.55672618 -145.50284683 591.40042269 C-145.50204105 585.7122158 -145.50119528 580.02400892 -145.50033353 574.33580204 C-145.50016244 573.2061104 -145.49999135 572.07641875 -145.49981508 570.91249403 C-145.49946842 568.62798342 -145.49911989 566.34347281 -145.49876949 564.0589622 C-145.49341206 528.51043537 -145.5013434 492.96193335 -145.51980305 457.41341114 C-145.54051952 417.47206645 -145.55124645 377.53073713 -145.54722756 337.58938676 C-145.54683222 333.33051066 -145.54647067 329.07163455 -145.54613018 324.81275845 C-145.54603945 323.76411951 -145.54594872 322.71548057 -145.54585524 321.63506469 C-145.54468933 305.80582995 -145.55133701 289.97661073 -145.5619421 274.14737988 C-145.57399095 256.14484482 -145.57555666 238.14234394 -145.56315193 220.13980838 C-145.55652173 210.06687158 -145.55815814 199.9940165 -145.57174045 189.92108624 C-145.57998513 183.18926771 -145.57728713 176.45751039 -145.56576518 169.72569684 C-145.559509 165.89242184 -145.55790728 162.05930629 -145.56962851 158.2260405 C-145.58216156 154.08910693 -145.57131345 149.95255262 -145.55835152 145.81562042 C-145.56931554 144.04655039 -145.56931554 144.04655039 -145.58050105 142.24174157 C-145.52660354 133.93503306 -144.17313444 126.30711742 -142.18362141 118.25447559 C-141.91776685 117.12295053 -141.91776685 117.12295053 -141.64654149 115.96856637 C-138.64015216 103.38106821 -134.19345802 91.90250432 -128.24612141 80.44197559 C-127.83926105 79.65339161 -127.4324007 78.86480762 -127.01321125 78.05232716 C-124.17856516 72.72009158 -120.90243327 68.00198587 -117.18362141 63.25447559 C-116.27993345 62.04812009 -115.37878744 60.83985518 -114.48049641 59.62947559 C-113.63197311 58.50414744 -112.78302047 57.37914287 -111.93362141 56.25447559 C-111.50049641 55.67053028 -111.06737141 55.08658497 -110.62112141 54.48494434 C-109.52280517 53.03747202 -108.35843215 51.64058323 -107.18362141 50.25447559 C-106.52362141 50.25447559 -105.86362141 50.25447559 -105.18362141 50.25447559 C-104.91549641 49.61510059 -104.64737141 48.97572559 -104.37112141 48.31697559 C-103.18362141 46.25447559 -103.18362141 46.25447559 -100.18362141 45.25447559 C-99.68862141 44.26447559 -99.68862141 44.26447559 -99.18362141 43.25447559 C-98.18362141 41.25447559 -98.18362141 41.25447559 -95.18362141 40.25447559 C-94.90647297 39.66408497 -94.62932453 39.07369434 -94.34377766 38.46541309 C-91.75342619 33.52891838 -85.67562931 30.44941622 -81.18362141 27.25447559 C-80.13174641 26.4791045 -80.13174641 26.4791045 -79.05862141 25.68806934 C-68.08141063 17.9199222 -55.09029195 11.05257705 -42.18362141 7.25447559 C-41.5147591 7.0551543 -40.8458968 6.85583302 -40.15676594 6.65047169 C-37.83585198 5.96411766 -35.51112266 5.29313868 -33.18362141 4.62947559 C-32.45973225 4.42282276 -31.73584309 4.21616993 -30.99001789 4.00325489 C-20.61369873 1.14758966 -10.7632736 -0.03988573 0 0 Z " fill="#A6CE39" transform="translate(145.18362140655518,-0.25447559356689453)"/>
<path d="M0 0 C23.10639044 -0.04689855 46.21277294 -0.0820758 69.31920147 -0.10362434 C80.04997545 -0.11389944 90.78071971 -0.127887 101.51147461 -0.15087891 C110.87371986 -0.17092891 120.23594356 -0.18374374 129.59820968 -0.18817699 C134.54696785 -0.19076488 139.49566443 -0.19676723 144.44440269 -0.21146011 C183.63591632 -0.32334595 183.63591632 -0.32334595 201 2 C203.13530332 2.24966922 205.27069216 2.49861098 207.40625 2.74609375 C252.16114948 8.65037861 293.55974267 26.19144251 326.81640625 57.02734375 C328.35387319 58.41628973 329.94646485 59.74539493 331.57421875 61.02734375 C333.73693599 62.78607516 335.46066434 64.50129353 337.25 66.625 C339.13075639 68.8414613 341.01260477 71.01311479 343.02734375 73.109375 C350.50263419 80.94964346 356.21879909 89.88562889 362 99 C362.6496875 100.01964844 363.299375 101.03929687 363.96875 102.08984375 C376.20351552 122.20218236 384.50648564 143.8906861 389 166.9375 C389.33235093 168.6343073 389.66567855 170.3309236 390 172.02734375 C390.16371094 172.85862793 390.32742188 173.68991211 390.49609375 174.54638672 C390.97889727 176.89724686 391.51477587 179.22995712 392.0625 181.56640625 C398.47914728 210.64134702 395.69142824 247.45598149 385 275 C384.48163245 276.70284992 383.98004207 278.41095146 383.5 280.125 C374.59826744 310.02695247 357.02382656 337.21864013 336 360 C335.53239258 360.50756836 335.06478516 361.01513672 334.58300781 361.53808594 C327.38627261 369.25294462 319.40380996 375.68285878 311 382 C310.07316406 382.71027344 309.14632813 383.42054688 308.19140625 384.15234375 C295.99455565 393.30451247 282.72423863 400.43753655 269 407 C267.75476563 407.59941406 267.75476563 407.59941406 266.484375 408.2109375 C259.85050995 411.28217132 252.93420088 413.70180771 246 416 C245.07662842 416.30921387 244.15325684 416.61842773 243.2019043 416.93701172 C235.34573699 419.4709474 227.44881829 421.27856804 219.33618164 422.75537109 C217.32940465 423.12191234 215.32590024 423.50341474 213.32226562 423.88671875 C196.86438376 426.97721682 180.70531202 428.30113076 163.97412109 428.22705078 C162.14882921 428.22648482 160.32353687 428.22680682 158.49824524 428.22793579 C153.60479791 428.2285031 148.71145122 428.21685108 143.81802702 428.20278788 C138.68114977 428.19017531 133.5442695 428.1891018 128.40737915 428.18673706 C118.70752322 428.18055292 109.00771307 428.16418417 99.30787718 428.14403808 C88.25326298 428.12158291 77.19864645 428.11066161 66.14401507 428.10064721 C43.42931813 428.07981478 20.71466165 428.04469927 -2 428 C-2.11379623 343.91348523 -2.07253023 259.82935709 -1.59428024 175.74391937 C-1.5680905 171.13440384 -1.54273274 166.5248842 -1.51765925 161.91536248 C-1.22360069 107.94077189 -0.68351044 53.971025 0 0 Z " fill="#FEFEFD" transform="translate(436,316)"/>
<path d="M0 0 C14.68486571 -0.11820795 29.36966632 -0.20564579 44.05491543 -0.25906086 C50.8776771 -0.28455123 57.70013559 -0.31927136 64.52270508 -0.37719727 C136.85360081 -0.97825896 136.85360081 -0.97825896 166 9.75 C167.8409021 10.39678711 167.8409021 10.39678711 169.71899414 11.05664062 C179.3324944 14.53095542 188.3280263 18.59502385 197 24 C197.63357422 24.38623535 198.26714844 24.7724707 198.91992188 25.17041016 C231.89300434 45.45068217 254.59996503 76.96175162 264.0859375 114.55859375 C273.99001375 159.96804739 267.30940733 206.9857519 242.15722656 246.24511719 C236.51501295 254.80128416 230.01863432 262.55085465 223 270 C222.17628906 270.90298828 222.17628906 270.90298828 221.3359375 271.82421875 C209.24355902 284.60163345 193.17153747 294.34631565 177 301 C175.82695313 301.49242187 174.65390625 301.98484375 173.4453125 302.4921875 C162.76026345 306.91820046 152.02643234 310.84263431 140.52033997 312.4650116 C138.07475984 312.83666803 135.63740627 313.26509885 133.20927429 313.73750305 C118.7869475 316.47462175 104.52952521 316.38449273 89.89453125 316.29296875 C87.23124954 316.28736036 84.56799222 316.28294817 81.90470886 316.28010559 C75.66497049 316.2708729 69.42539449 316.24638153 63.18572682 316.21605712 C56.06815333 316.18223539 48.95057105 316.16595816 41.83293688 316.15097082 C27.22187512 316.11982131 12.61093984 316.06723667 -2 316 C-2.17322265 250.69997251 -1.72687513 185.41141058 -1.10923576 120.11453533 C-0.98503852 106.96664822 -0.86564009 93.81871857 -0.74648476 80.67078495 C-0.50268747 53.78047585 -0.25337013 26.8902205 0 0 Z " fill="#A6CE39" transform="translate(500,374)"/>
<path d="M0 0 C0.33 0 0.66 0 1 0 C1.06870508 46.5153144 1.12154857 93.03062342 1.15319599 139.54597858 C1.15694799 145.04074362 1.16083097 150.53550855 1.16479492 156.03027344 C1.16558185 157.12415671 1.16636878 158.21803999 1.16717956 159.34507124 C1.18022434 177.04421158 1.20387307 194.74332262 1.23145839 212.44244559 C1.25953841 230.61085074 1.27618175 248.77924057 1.28226548 266.94766653 C1.28637653 278.15354589 1.29934902 289.3593424 1.3237494 300.56519626 C1.33963864 308.25523803 1.34439315 315.94523712 1.34050413 323.63529409 C1.33858755 328.06836858 1.34147234 332.50129853 1.35761642 336.93434715 C1.37231781 341.00115201 1.37288668 345.06771645 1.36269668 349.13453285 C1.36143905 350.59776502 1.36515744 352.06101278 1.37464955 353.5242147 C1.4329541 363.07521631 0.34506236 371.74337408 -2 381 C-2.17725437 381.75170082 -2.35450875 382.50340163 -2.53713447 383.27788126 C-5.53149568 395.86934774 -9.99018418 407.35201134 -15.9375 418.8125 C-16.34436035 419.60108398 -16.7512207 420.38966797 -17.17041016 421.20214844 C-20.00505625 426.53438402 -23.28118813 431.25248973 -27 436 C-27.90368796 437.20635551 -28.80483397 438.41462041 -29.703125 439.625 C-30.5516483 440.75032816 -31.40060094 441.87533272 -32.25 443 C-32.683125 443.58394531 -33.11625 444.16789062 -33.5625 444.76953125 C-34.66081624 446.21700357 -35.82518926 447.61389236 -37 449 C-37.66 449 -38.32 449 -39 449 C-39.268125 449.639375 -39.53625 450.27875 -39.8125 450.9375 C-41 453 -41 453 -44 454 C-44.33 454.66 -44.66 455.32 -45 456 C-45.33 456.66 -45.66 457.32 -46 458 C-46.99 458.33 -47.98 458.66 -49 459 C-49.27714844 459.59039063 -49.55429687 460.18078125 -49.83984375 460.7890625 C-52.43019522 465.72555722 -58.50799209 468.80505938 -63 472 C-63.70125 472.51691406 -64.4025 473.03382813 -65.125 473.56640625 C-76.10221078 481.33455339 -89.09332946 488.20189855 -102 492 C-102.6688623 492.19932129 -103.33772461 492.39864258 -104.02685547 492.60400391 C-106.34776942 493.29035794 -108.67249875 493.96133691 -111 494.625 C-112.08583374 494.93497925 -112.08583374 494.93497925 -113.19360352 495.2512207 C-124.28139928 498.3026913 -134.75912703 499.28990837 -146.25553894 499.24050903 C-147.77883501 499.24138262 -149.30213078 499.24313642 -150.82542497 499.24568737 C-154.98498877 499.25013478 -159.14444851 499.24219331 -163.30399907 499.23213124 C-167.79941675 499.22346125 -172.29482899 499.22641941 -176.79025269 499.22793579 C-184.5701606 499.2289824 -192.35003486 499.22272923 -200.12993431 499.21146011 C-211.37823622 499.19517769 -222.62652192 499.1899943 -233.87483434 499.18748413 C-252.12628224 499.18311133 -270.37771222 499.16981349 -288.62915039 499.15087891 C-306.3544099 499.13250937 -324.07966453 499.11835812 -341.80493164 499.10986328 C-342.89826906 499.10933783 -343.99160648 499.10881239 -345.11807533 499.10827102 C-350.60325247 499.10566087 -356.08842965 499.10313347 -361.57360685 499.10064721 C-407.04908364 499.07992763 -452.52454089 499.0447134 -498 499 C-498 498.67 -498 498.34 -498 498 C-496.90349121 497.95512451 -495.80698242 497.91024902 -494.67724609 497.86401367 C-465.22037104 496.69873824 -465.22037104 496.69873824 -436 493 C-434.51445919 492.75957312 -433.02878363 492.51997726 -431.54296875 492.28125 C-423.42820806 490.942488 -415.41309497 489.25000977 -407.39770508 487.41259766 C-402.24839846 486.24119676 -397.10716789 485.29914451 -391.87109375 484.58984375 C-388.57839421 483.91338439 -385.51598109 482.86001977 -382.34057617 481.76928711 C-378.75306252 480.59016376 -375.10134943 479.71885856 -371.4375 478.8125 C-354.54436974 474.48724683 -338.08523537 468.70891726 -322 462 C-320.2925755 461.33100911 -318.5843207 460.66413097 -316.875 460 C-311.88767081 458.01006398 -307.03537106 455.74636973 -302.17578125 453.46484375 C-300.08411853 452.50005467 -297.97578895 451.57049214 -295.8515625 450.6796875 C-257.59535678 434.38177653 -222.42489126 410.80166112 -190 385 C-189.44022461 384.55495117 -188.88044922 384.10990234 -188.30371094 383.65136719 C-182.47100759 378.99488226 -176.85087642 374.14500248 -171.3359375 369.1171875 C-169.23081252 367.20919797 -167.09386366 365.34952931 -164.9375 363.5 C-160.40375379 359.55362172 -156.21379882 355.28188533 -152 351 C-149.24212415 348.23291588 -146.47301288 345.47761879 -143.6953125 342.73046875 C-137.5706652 336.66201087 -131.55527729 330.59985934 -126 324 C-125.07950842 322.94150369 -124.15748414 321.88433933 -123.234375 320.828125 C-116.80941759 313.45238455 -110.76532273 305.90871294 -105 298 C-104.12983856 296.82613124 -103.25870327 295.6529839 -102.38671875 294.48046875 C-85.49431787 271.71113983 -70.79242158 248.05102041 -57.56884766 222.96142578 C-56.16212767 220.30603932 -54.73458709 217.66389509 -53.29296875 215.02734375 C-49.35123187 207.78788768 -45.91412753 200.66866868 -43.10546875 192.89453125 C-42.08284024 190.21690677 -40.9085563 187.77650945 -39.5625 185.25 C-36.2487145 178.83989617 -34.08098062 172.02646495 -31.76171875 165.21142578 C-31.03822242 163.11096752 -30.29093369 161.02120046 -29.53125 158.93359375 C-24.09789921 143.96474849 -19.20079033 128.72561019 -15.546875 113.21875 C-15 111 -15 111 -13.9375 107.9375 C-12.80440649 104.38714033 -12.19784978 100.84902077 -11.56640625 97.1796875 C-10.94080902 93.66771407 -10.22261729 90.18075543 -9.5 86.6875 C-8.28223283 80.65955249 -7.34380061 74.64100455 -6.53125 68.546875 C-5.9895095 64.92996046 -5.25486022 61.39053746 -4.5 57.8125 C-0.72876753 38.95869762 -0.73636684 19.16491579 0 0 Z " fill="#FEFEFE" transform="translate(1023,525)"/>
<path d="M0 0 C0.33 0 0.66 0 1 0 C1.0501123 0.92111572 1.10022461 1.84223145 1.15185547 2.79125977 C1.3448143 6.28617732 1.54306332 9.78071859 1.74462891 13.27514648 C1.83000574 14.77307829 1.91341417 16.27112388 1.99462891 17.76928711 C2.48514347 26.78930499 3.23220741 35.66321169 4.55322266 44.60546875 C5.16951948 49.28797753 5.42929005 53.96850074 5.65625 58.68359375 C5.98471315 61.85251664 6.66770017 64.77633436 7.48291016 67.85083008 C8.60520904 72.51541792 9.12134612 77.30154956 9.76757812 82.05078125 C13.17710806 106.04935104 20.25311768 129.56210521 28.125 152.4375 C28.37248993 153.15868011 28.61997986 153.87986023 28.87496948 154.62289429 C35.90025607 175.00499209 44.14929544 194.81765163 54 214 C54.4842041 214.94907227 54.9684082 215.89814453 55.46728516 216.87597656 C72.07426601 249.39349998 91.25845142 279.42074549 114 308 C114.44504883 308.55977539 114.89009766 309.11955078 115.34863281 309.69628906 C120.66289095 316.35291776 126.26204275 322.70803308 132 329 C133.5839424 330.77028857 135.16728352 332.54111532 136.75 334.3125 C139.03644148 336.85696005 141.33026809 339.33026809 143.75 341.75 C146 344 146 344 148.3125 346.875 C150.82184234 349.94370038 153.69288129 352.39528654 156.70703125 354.95703125 C159.36223192 357.32273815 161.82651079 359.83226923 164.3125 362.375 C168.66134857 366.79511657 173.2301563 370.78102349 178.08203125 374.640625 C180.71107645 376.76638578 183.25291741 378.9566768 185.79003906 381.18920898 C200.44012794 394.02581599 216.53335003 404.93281847 232.81640625 415.57275391 C234.55934661 416.71197901 236.29632734 417.86032033 238.03125 419.01171875 C261.14259456 434.11454359 286.49762097 447.98246968 312.28515625 457.9296875 C314.3273026 458.73479268 316.35358017 459.58032985 318.37109375 460.4453125 C340.33546697 469.85540121 363.5842033 478.09023618 387 483 C388.093125 483.33 389.18625 483.66 390.3125 484 C393.48582129 484.8605617 396.50846744 485.43270535 399.75 485.9375 C403.59073004 486.54219058 407.221027 487.30305991 410.9375 488.4375 C418.70537997 490.66168434 426.73626584 491.47030794 434.72729492 492.52416992 C437.21042509 492.88520093 439.67164689 493.28465752 442.1418457 493.7199707 C454.48695834 495.86257924 466.67689449 496.71246875 479.1875 497.1875 C481.12439128 497.26918494 483.06124094 497.35186276 484.99804688 497.43554688 C489.66496688 497.63508549 494.33223392 497.8213955 499 498 C499 498.33 499 498.66 499 499 C452.4846856 499.06870508 405.96937658 499.12154857 359.45402142 499.15319599 C353.95925638 499.15694799 348.46449145 499.16083097 342.96972656 499.16479492 C341.87584329 499.16558185 340.78196001 499.16636878 339.65492876 499.16717956 C321.95578842 499.18022434 304.25667738 499.20387307 286.55755441 499.23145839 C268.38914926 499.25953841 250.22075943 499.27618175 232.05233347 499.28226548 C220.84645411 499.28637653 209.6406576 499.29934902 198.43480374 499.3237494 C190.74476197 499.33963864 183.05476288 499.34439315 175.36470591 499.34050413 C170.93163142 499.33858755 166.49870147 499.34147234 162.06565285 499.35761642 C157.99884799 499.37231781 153.93228355 499.37288668 149.86546715 499.36269668 C148.40223498 499.36143905 146.93898722 499.36515744 145.4757853 499.37464955 C135.92478369 499.4329541 127.25662592 498.34506236 118 496 C117.24829918 495.82274563 116.49659837 495.64549125 115.72211874 495.46286553 C103.13065226 492.46850432 91.64798866 488.00981582 80.1875 482.0625 C79.39891602 481.65563965 78.61033203 481.2487793 77.79785156 480.82958984 C72.46561598 477.99494375 67.74751027 474.71881187 63 471 C61.79364449 470.09631204 60.58537959 469.19516603 59.375 468.296875 C58.24967184 467.4483517 57.12466728 466.59939906 56 465.75 C55.41605469 465.316875 54.83210938 464.88375 54.23046875 464.4375 C52.78299643 463.33918376 51.38610764 462.17481074 50 461 C50 460.34 50 459.68 50 459 C49.360625 458.731875 48.72125 458.46375 48.0625 458.1875 C46 457 46 457 45 454 C44.34 453.67 43.68 453.34 43 453 C41 452 41 452 40 449 C39.11441406 448.58427734 39.11441406 448.58427734 38.2109375 448.16015625 C33.27444278 445.56980478 30.19494062 439.49200791 27 435 C26.48308594 434.29875 25.96617188 433.5975 25.43359375 432.875 C17.66544661 421.89778922 10.79810145 408.90667054 7 396 C6.80067871 395.3311377 6.60135742 394.66227539 6.39599609 393.97314453 C5.70964206 391.65223058 5.03866309 389.32750125 4.375 387 C4.06502075 385.91416626 4.06502075 385.91416626 3.7487793 384.80639648 C0.6973087 373.71860072 -0.28990837 363.24087297 -0.24050903 351.74446106 C-0.24138262 350.22116499 -0.24313642 348.69786922 -0.24568737 347.17457503 C-0.25013478 343.01501123 -0.24219331 338.85555149 -0.23213124 334.69600093 C-0.22346125 330.20058325 -0.22641941 325.70517101 -0.22793579 321.20974731 C-0.2289824 313.4298394 -0.22272923 305.64996514 -0.21146011 297.87006569 C-0.19517769 286.62176378 -0.1899943 275.37347808 -0.18748413 264.12516566 C-0.18311133 245.87371776 -0.16981349 227.62228778 -0.15087891 209.37084961 C-0.13250937 191.6455901 -0.11835812 173.92033547 -0.10986328 156.19506836 C-0.10933783 155.10173094 -0.10881239 154.00839352 -0.10827102 152.88192467 C-0.10566087 147.39674753 -0.10313347 141.91157035 -0.10064721 136.42639315 C-0.07992763 90.95091636 -0.0447134 45.47545911 0 0 Z " fill="#FEFEFE" transform="translate(0,525)"/>
<path d="M0 0 C46.5153144 -0.06870508 93.03062342 -0.12154857 139.54597858 -0.15319599 C145.04074362 -0.15694799 150.53550855 -0.16083097 156.03027344 -0.16479492 C157.67109835 -0.16597532 157.67109835 -0.16597532 159.34507124 -0.16717956 C177.04421158 -0.18022434 194.74332262 -0.20387307 212.44244559 -0.23145839 C230.61085074 -0.25953841 248.77924057 -0.27618175 266.94766653 -0.28226548 C278.15354589 -0.28637653 289.3593424 -0.29934902 300.56519626 -0.3237494 C308.25523803 -0.33963864 315.94523712 -0.34439315 323.63529409 -0.34050413 C328.06836858 -0.33858755 332.50129853 -0.34147234 336.93434715 -0.35761642 C341.00115201 -0.37231781 345.06771645 -0.37288668 349.13453285 -0.36269668 C350.59776502 -0.36143905 352.06101278 -0.36515744 353.5242147 -0.37464955 C363.07521631 -0.4329541 371.74337408 0.65493764 381 3 C381.75170082 3.17725437 382.50340163 3.35450875 383.27788126 3.53713447 C395.86934774 6.53149568 407.35201134 10.99018418 418.8125 16.9375 C419.60108398 17.34436035 420.38966797 17.7512207 421.20214844 18.17041016 C426.53438402 21.00505625 431.25248973 24.28118813 436 28 C437.20635551 28.90368796 438.41462041 29.80483397 439.625 30.703125 C440.75032816 31.5516483 441.87533272 32.40060094 443 33.25 C443.58394531 33.683125 444.16789062 34.11625 444.76953125 34.5625 C446.21700357 35.66081624 447.61389236 36.82518926 449 38 C449 38.66 449 39.32 449 40 C449.639375 40.268125 450.27875 40.53625 450.9375 40.8125 C453 42 453 42 454 45 C454.66 45.33 455.32 45.66 456 46 C456.66 46.33 457.32 46.66 458 47 C458.33 47.99 458.66 48.98 459 50 C459.59039063 50.27714844 460.18078125 50.55429687 460.7890625 50.83984375 C465.72555722 53.43019522 468.80505938 59.50799209 472 64 C472.51691406 64.70125 473.03382813 65.4025 473.56640625 66.125 C482.74200424 79.09108719 489.50970237 93.81574425 494 109 C494.33435753 110.12739568 494.33435753 110.12739568 494.67546976 111.27756703 C499.78390317 129.30605323 499.6941719 147.14529644 499.58032811 165.69678652 C499.55844031 170.18381013 499.56606321 174.67080535 499.56983948 179.15786743 C499.57244285 186.90489877 499.5569498 194.65171719 499.52865028 202.39869499 C499.48776261 213.59905466 499.47496742 224.79931291 499.46871033 235.99973912 C499.45780647 254.17802549 499.42463914 272.35619875 499.37719727 290.53442383 C499.33119995 308.1776473 499.29585801 325.82083989 499.2746582 343.46411133 C499.27334459 344.55429606 499.27203097 345.6444808 499.27067754 346.76770144 C499.26415167 352.23763081 499.25783329 357.70756039 499.25161803 363.17749012 C499.19990692 408.45173835 499.11194907 453.7258633 499 499 C498.67 499 498.34 499 498 499 C497.97083496 497.93716797 497.94166992 496.87433594 497.91162109 495.77929688 C497.31532514 475.45645183 496.19420559 455.36464364 493.125 435.25 C493.00211609 434.42749756 492.87923218 433.60499512 492.75262451 432.75756836 C491.37366804 423.65531315 489.6324522 414.90737987 486.875 406.1105957 C485.64503622 401.73811565 485.04837407 397.34041467 484.4921875 392.83984375 C484.1145262 390.04464684 484.1145262 390.04464684 483.0703125 387.75390625 C482.09007346 385.23175835 481.56884309 383.01552666 481.07421875 380.3671875 C480.02054259 374.82745179 478.48162061 369.50724204 476.8125 364.125 C476.50425293 363.1254126 476.19600586 362.1258252 475.87841797 361.09594727 C469.26095806 339.84572586 461.31936158 319.21431172 452 299 C451.61424805 298.15655029 451.22849609 297.31310059 450.83105469 296.4440918 C445.24054613 284.28321015 439.19452413 272.41339483 432.75 260.6875 C432.41624359 260.07634338 432.08248718 259.46518677 431.73861694 258.83551025 C428.01663152 252.03700881 424.10474987 245.49850871 419.56787109 239.20581055 C417.35328927 236.09015393 415.40620718 232.83627584 413.4375 229.5625 C407.53570277 219.95308915 400.82305087 210.96891427 394 202 C393.26281738 201.02885254 393.26281738 201.02885254 392.51074219 200.03808594 C385.38511482 190.6953748 377.7776474 181.80338396 370 173 C368.77603516 171.60587891 368.77603516 171.60587891 367.52734375 170.18359375 C362.24017337 164.22503666 356.6736993 158.58915742 351 153 C349.33210739 151.33456018 347.66527836 149.66805382 346 148 C345.2575 147.2575 344.515 146.515 343.75 145.75 C342.14907782 144.14907782 340.55199861 142.54425962 338.96484375 140.9296875 C334.14746274 136.05446486 329.21090276 131.44790868 324 127 C322.9355662 126.07233894 321.87182155 125.1438868 320.80859375 124.21484375 C313.43765312 117.7987095 305.90113731 111.75980022 298 106 C296.82613124 105.12983856 295.6529839 104.25870327 294.48046875 103.38671875 C281.54469089 93.78937191 268.33350878 84.74945458 254.6875 76.1875 C253.69758057 75.56520508 252.70766113 74.94291016 251.68774414 74.30175781 C241.04552259 67.67756317 230.03599734 61.94445723 218.8125 56.375 C217.68908203 55.81554688 216.56566406 55.25609375 215.40820312 54.6796875 C213.23636328 53.59823114 211.06394384 52.51793775 208.89086914 51.43896484 C206.47994695 50.23889936 204.07517655 49.02770158 201.671875 47.8125 C173.91312338 33.93131391 143.38577782 23.65519765 113.21875 16.546875 C111 16 111 16 107.9375 14.9375 C104.38714033 13.80440649 100.84902077 13.19784978 97.1796875 12.56640625 C93.66771407 11.94080902 90.18075543 11.22261729 86.6875 10.5 C80.65567637 9.28144977 74.6336011 8.34167456 68.53515625 7.53125 C64.98009287 6.99700843 61.51351684 6.25804031 58 5.5 C45.21227586 2.90213791 31.99513253 2.70769952 19 2 C17.93894043 1.94070312 16.87788086 1.88140625 15.78466797 1.8203125 C10.52397587 1.52722801 5.26282366 1.25187317 0 1 C0 0.67 0 0.34 0 0 Z " fill="#FEFEFE" transform="translate(525,0)"/>
<path d="M0 0 C1.52329607 -0.00087359 3.04659184 -0.00262739 4.56988603 -0.00517833 C8.72944982 -0.00962574 12.88890957 -0.00168428 17.04846013 0.00837779 C21.54387781 0.01704779 26.03929005 0.01408963 30.53471375 0.01257324 C38.31462166 0.01152663 46.09449592 0.01777981 53.87439537 0.02904892 C65.12269728 0.04533134 76.37098298 0.05051473 87.6192954 0.0530249 C105.8707433 0.0573977 124.12217328 0.07069555 142.37361145 0.08963013 C160.09887096 0.10799967 177.82412559 0.12215092 195.5493927 0.13064575 C196.64273012 0.1311712 197.73606754 0.13169665 198.86253639 0.13223802 C204.34771353 0.13484817 209.83289071 0.13737557 215.31806791 0.13986182 C260.7935447 0.1605814 306.26900195 0.19579563 351.74446106 0.24050903 C351.74446106 0.57050903 351.74446106 0.90050903 351.74446106 1.24050903 C350.60307678 1.28014771 349.4616925 1.31978638 348.28572083 1.36062622 C327.68735409 2.09929995 307.45396107 2.91048129 287.17024231 6.80300903 C283.64519654 7.43876608 280.11583796 7.83543361 276.55696106 8.24050903 C270.53730934 8.99889035 264.97028818 10.52005123 259.17805481 12.29519653 C254.6871462 13.53160141 250.20132102 14.1777445 245.58430481 14.74832153 C242.7891079 15.12598283 242.7891079 15.12598283 240.49836731 16.17019653 C237.97621941 17.15043557 235.75998771 17.67166595 233.11164856 18.16629028 C227.57191285 19.21996645 222.2517031 20.75888843 216.86946106 22.42800903 C215.37007996 22.89037964 215.37007996 22.89037964 213.84040833 23.36209106 C192.59018692 29.97955097 171.95877278 37.92114746 151.74446106 47.24050903 C150.4792865 47.81913696 150.4792865 47.81913696 149.18855286 48.40945435 C137.02767121 53.9999629 125.15785589 60.0459849 113.43196106 66.49050903 C112.82080444 66.82426544 112.20964783 67.15802185 111.57997131 67.50189209 C104.78146986 71.22387751 98.24296977 75.13575916 91.95027161 79.67263794 C88.83461499 81.88721977 85.5807369 83.83430185 82.30696106 85.80300903 C72.69787666 91.70460576 63.71146808 98.41543459 54.74446106 105.24050903 C53.73343323 106.00959595 53.73343323 106.00959595 52.70198059 106.79421997 C45.94341817 111.96142162 39.42217713 117.30295262 33.16242981 123.07254028 C30.6373372 125.33655708 28.0244777 127.44338811 25.36946106 129.55300903 C20.6013794 133.40389252 16.30491864 137.55797514 12.02546692 141.9302063 C9.25829798 144.75171336 6.4494773 147.43901847 3.43196106 149.99050903 C0.11547642 152.81464956 -2.67049731 155.89657978 -5.48210144 159.21707153 C-7.28015811 161.26859875 -9.17128155 163.15570444 -11.13053894 165.05300903 C-15.08557098 168.94707719 -18.52573584 173.15885746 -21.99382019 177.48660278 C-24.04219472 179.98073758 -26.17098848 182.32751164 -28.38053894 184.67800903 C-35.6489741 192.66948225 -41.89200718 201.52648356 -48.25553894 210.24050903 C-48.80177917 210.98816528 -49.34801941 211.73582153 -49.91081238 212.50613403 C-72.14843714 243.10555241 -92.54325483 277.15971368 -106.18522644 312.52566528 C-106.99033162 314.56781163 -107.83586879 316.5940892 -108.70085144 318.61160278 C-117.31978774 338.72245415 -124.2060991 359.56806148 -129.61051941 380.76101685 C-130.32590871 383.51101447 -131.08935275 386.24578676 -131.85319519 388.98269653 C-132.87846494 392.72438909 -133.71867498 396.39298401 -134.25553894 400.24050903 C-134.85313335 404.11989276 -135.6407191 407.79049208 -136.75553894 411.55300903 C-138.28378899 416.92849552 -139.00150692 422.24794869 -139.65788269 427.79129028 C-140.0564218 430.98321963 -140.59097701 434.12450584 -141.19694519 437.28347778 C-145.02071525 457.78467186 -145.53327696 478.44318087 -146.25553894 499.24050903 C-146.58553894 499.24050903 -146.91553894 499.24050903 -147.25553894 499.24050903 C-147.32424402 452.72519463 -147.37708751 406.20988561 -147.40873493 359.69453045 C-147.41248693 354.19976542 -147.41636991 348.70500048 -147.42033386 343.2102356 C-147.42112079 342.11635232 -147.42190772 341.02246905 -147.4227185 339.89543779 C-147.43576328 322.19629745 -147.45941201 304.49718641 -147.48699733 286.79806344 C-147.51507735 268.62965829 -147.53172069 250.46126847 -147.53780442 232.29284251 C-147.54191547 221.08696314 -147.55488796 209.88116663 -147.57928834 198.67531277 C-147.59517758 190.98527101 -147.59993209 183.29527192 -147.59604307 175.60521494 C-147.59412649 171.17214045 -147.59701128 166.7392105 -147.61315536 162.30616188 C-147.62785675 158.23935702 -147.62842562 154.17279258 -147.61823563 150.10597618 C-147.61697799 148.64274401 -147.62069638 147.17949625 -147.63018849 145.71629433 C-147.68849304 136.16529272 -146.6006013 127.49713495 -144.25553894 118.24050903 C-144.07828457 117.48880822 -143.90103019 116.7371074 -143.71840447 115.96262777 C-140.72404326 103.37116129 -136.26535476 91.8884977 -130.31803894 80.42800903 C-129.91117859 79.63942505 -129.50431824 78.85084106 -129.08512878 78.0383606 C-126.25048269 72.70612502 -122.97435081 67.98801931 -119.25553894 63.24050903 C-118.35185098 62.03415353 -117.45070497 60.82588862 -116.55241394 59.61550903 C-115.70389064 58.49018088 -114.854938 57.36517631 -114.00553894 56.24050903 C-113.57241394 55.65656372 -113.13928894 55.07261841 -112.69303894 54.47097778 C-111.59472271 53.02350546 -110.43034968 51.62661667 -109.25553894 50.24050903 C-108.59553894 50.24050903 -107.93553894 50.24050903 -107.25553894 50.24050903 C-106.98741394 49.60113403 -106.71928894 48.96175903 -106.44303894 48.30300903 C-105.25553894 46.24050903 -105.25553894 46.24050903 -102.25553894 45.24050903 C-101.76053894 44.25050903 -101.76053894 44.25050903 -101.25553894 43.24050903 C-100.25553894 41.24050903 -100.25553894 41.24050903 -97.25553894 40.24050903 C-96.9783905 39.65011841 -96.70124207 39.05972778 -96.41569519 38.45144653 C-93.82534372 33.51495182 -87.74754685 30.43544966 -83.25553894 27.24050903 C-82.20366394 26.46513794 -82.20366394 26.46513794 -81.13053894 25.67410278 C-70.15332816 17.90595564 -57.16220949 11.03861049 -44.25553894 7.24050903 C-43.58667664 7.04118774 -42.91781433 6.84186646 -42.22868347 6.63650513 C-39.90776952 5.9501511 -37.58304019 5.27917212 -35.25553894 4.61550903 C-34.53164978 4.4088562 -33.80776062 4.20220337 -33.06193542 3.98928833 C-21.97413966 0.93781773 -11.49641191 -0.04939934 0 0 Z " fill="#FEFEFE" transform="translate(147.2555389404297,-0.240509033203125)"/>
<path d="M0 0 C20.46 0 40.92 0 62 0 C62 141.24 62 282.48 62 428 C41.54 428 21.08 428 0 428 C0 286.76 0 145.52 0 0 Z " fill="#FEFEFE" transform="translate(284,316)"/>
<path d="M0 0 C9.65600462 6.54583085 17.44384728 14.12034288 19.84375 25.91015625 C21.49489323 38.7121709 19.03216224 50.55106955 11.09375 60.90625 C3.82300027 69.10210506 -5.45816735 74.18420505 -16.39453125 75.56640625 C-27.95904866 75.94933729 -38.32907051 73.10963816 -46.87109375 65.12109375 C-52.08886177 60.05332317 -55.39515201 54.95046859 -57.87109375 48.12109375 C-58.22816406 47.18910156 -58.58523438 46.25710937 -58.953125 45.296875 C-61.74987836 35.62129847 -60.57384514 24.97169962 -55.87109375 16.12109375 C-43.41024152 -3.50080521 -20.84266049 -12.00324712 0 0 Z " fill="#FEFEFC" transform="translate(335.87109375,192.87890625)"/>
<path d="M0 0 C0 3 0 3 -1.29077148 4.65153503 C-1.89477783 5.24887955 -2.49878418 5.84622406 -3.12109375 6.46166992 C-3.80179932 7.1421489 -4.48250488 7.82262787 -5.18383789 8.52372742 C-5.92754639 9.25195206 -6.67125488 9.9801767 -7.4375 10.73046875 C-8.19216553 11.48088943 -8.94683105 12.23131012 -9.72436523 13.00447083 C-12.14264671 15.40592396 -14.57113771 17.79675349 -17 20.1875 C-18.63870258 21.81116119 -20.2767324 23.43550167 -21.9140625 25.06054688 C-25.93492745 29.04828738 -29.96422965 33.02734819 -34 37 C-34.66 36.67 -35.32 36.34 -36 36 C-34.82244141 34.83984375 -34.82244141 34.83984375 -33.62109375 33.65625 C-26.78650041 26.93331638 -26.78650041 26.93331638 -20.375 19.8125 C-17.04782557 15.90104129 -13.29414515 12.57729757 -9.4453125 9.1875 C-6.16424545 6.25236015 -3.06593414 3.15730303 0 0 Z " fill="#B2D454" transform="translate(169,131)"/>
<path d="M0 0 C0.33 0 0.66 0 1 0 C1.0501123 0.92111572 1.10022461 1.84223145 1.15185547 2.79125977 C1.3448143 6.28617732 1.54306332 9.78071859 1.74462891 13.27514648 C1.83000574 14.77307829 1.91341417 16.27112388 1.99462891 17.76928711 C2.48773948 26.83704258 3.24932951 35.76310961 4.60205078 44.74584961 C4.98399445 47.86911779 5.07088766 50.85741301 5 54 C4.67 54 4.34 54 4 54 C3.6603981 52.12612523 3.32861309 50.25083303 3 48.375 C2.814375 47.33085938 2.62875 46.28671875 2.4375 45.2109375 C2.01284203 42.09425135 1.92454794 39.14069188 2 36 C1.34 36 0.68 36 0 36 C0 24.12 0 12.24 0 0 Z " fill="#DFEDB8" transform="translate(0,525)"/>
</svg>
