<?xml version="1.0" encoding="UTF-8"?>
<svg version="1.1" xmlns="http://www.w3.org/2000/svg" width="1200" height="1200">
<path d="M0 0 C3.99801687 0.00514349 7.99601901 -0.00147373 11.99403369 -0.00648667 C18.97863474 -0.01366236 25.96320478 -0.01352054 32.94780719 -0.00839235 C43.33464408 -0.00078713 53.72145511 -0.00471563 64.10829186 -0.01080896 C82.66559279 -0.02131116 101.2228799 -0.02043936 119.78018212 -0.01465113 C136.02044583 -0.00961078 152.26070449 -0.00831092 168.50096881 -0.01069642 C170.11977527 -0.01092558 170.11977527 -0.01092558 171.77128488 -0.01115936 C176.1526389 -0.01178209 180.53399293 -0.01241889 184.91534695 -0.01307889 C225.97679077 -0.0191905 267.0382258 -0.01366011 308.09966826 -0.0028851 C344.54309151 0.0066054 380.98650077 0.00575611 417.42992389 -0.00380708 C458.41850487 -0.01452715 499.4070781 -0.01875698 540.39566028 -0.01258255 C544.76881651 -0.01194116 549.14197274 -0.01131548 553.51512897 -0.01069642 C555.13018413 -0.01045919 555.13018413 -0.01045919 556.77786666 -0.01021717 C573.00392889 -0.00794668 589.22998549 -0.01059444 605.45604694 -0.01565553 C623.91440308 -0.02138435 642.37274331 -0.01992244 660.83109748 -0.00909404 C671.14880383 -0.00324016 681.46647567 -0.00281099 691.78418109 -0.01038639 C698.69021837 -0.01489571 705.59622819 -0.01203603 712.50226143 -0.00337685 C716.42742264 0.00134582 720.35251567 0.00308123 724.27767456 -0.00418882 C768.54224165 -0.08007893 768.54224165 -0.08007893 787.69554889 4.88193511 C788.72752399 5.14135894 789.75949909 5.40078276 790.82274616 5.66806792 C818.74559227 12.98913148 843.20239227 27.3434593 864.00804889 47.25693511 C865.1817403 48.33588042 865.1817403 48.33588042 866.37914264 49.43662261 C898.15269519 79.63420695 913.7409615 122.60873811 915.11965817 165.74928044 C915.2902764 174.56658818 915.28125185 183.3841829 915.264984 192.2026998 C915.25984553 196.21167885 915.2664558 200.2206431 915.27147067 204.22961997 C915.27864991 211.23498883 915.27850231 218.24032678 915.27337635 225.24569701 C915.26577445 235.66337784 915.26969793 246.08103286 915.27579296 256.49871354 C915.2862977 275.11059157 915.28542234 293.72245582 915.27963514 312.33433514 C915.27459565 328.62231834 915.27329452 344.9102965 915.27568042 361.19828032 C915.27590958 362.82156661 915.27590958 362.82156661 915.27614336 364.47764656 C915.27676608 368.87107704 915.27740289 373.26450751 915.27806289 377.65793798 C915.2841751 418.83624602 915.27864316 460.0145453 915.2678691 501.19285198 C915.25837853 537.74351458 915.25922782 574.29416325 915.26879108 610.84482573 C915.27951013 651.94985224 915.28374155 693.05487103 915.27756655 734.15989875 C915.27692516 738.54512913 915.27629947 742.93035951 915.27568042 747.31558989 C915.27552227 748.39527356 915.27536411 749.47495722 915.27520117 750.58735857 C915.27293026 766.86147654 915.27557923 783.13558891 915.28063953 799.4097061 C915.28636719 817.92191384 915.2849089 836.4341057 915.27407804 854.94631146 C915.26822222 865.29532791 915.26779782 875.64430995 915.27537039 885.99332548 C915.27987735 892.91899227 915.27702422 899.84463165 915.26836085 906.77029439 C915.26363495 910.70750488 915.2619097 914.64464735 915.26917282 918.58185552 C915.34261899 961.60271192 915.34261899 961.60271192 910.25804889 981.19443511 C909.99491901 982.24236235 909.73178913 983.2902896 909.46068561 984.36997222 C907.30751183 992.67039942 904.64506716 1000.47459239 901.00804889 1008.25693511 C900.56356403 1009.2198648 900.56356403 1009.2198648 900.11009967 1010.20224761 C891.68915759 1028.29264885 880.60210188 1043.64980711 867.00804889 1058.25693511 C866.35707233 1058.97365386 865.70609577 1059.69037261 865.03539264 1060.42881011 C834.90934887 1092.23819737 791.34730849 1106.99452518 748.45304668 1108.37101631 C739.64127471 1108.53970524 730.82906222 1108.5301933 722.01609778 1108.51387022 C718.01808091 1108.50872672 714.02007878 1108.51534394 710.02206409 1108.52035688 C703.03746305 1108.52753257 696.052893 1108.52739075 689.06829059 1108.52226256 C678.6814537 1108.51465735 668.29464267 1108.51858585 657.90780592 1108.52467918 C639.35050499 1108.53518138 620.79321788 1108.53430958 602.23591566 1108.52852135 C585.99565195 1108.52348099 569.7553933 1108.52218114 553.51512897 1108.52456664 C551.89632252 1108.52479579 551.89632252 1108.52479579 550.24481291 1108.52502958 C545.86345888 1108.5256523 541.48210485 1108.52628911 537.10075083 1108.52694911 C496.03930702 1108.53306071 454.97787198 1108.52753033 413.91642952 1108.51675531 C377.47300628 1108.50726482 341.02959701 1108.5081141 304.58617389 1108.5176773 C263.59759292 1108.52839736 222.60901969 1108.5326272 181.6204375 1108.52645277 C177.24728127 1108.52581138 172.87412505 1108.5251857 168.50096881 1108.52456664 C167.42426538 1108.52440848 166.34756194 1108.52425033 165.23823112 1108.52408738 C149.0121689 1108.5218169 132.78611229 1108.52446466 116.56005085 1108.52952575 C98.1016947 1108.53525457 79.64335447 1108.53379266 61.1850003 1108.52296426 C50.86729395 1108.51711038 40.54962212 1108.5166812 30.2319167 1108.52425661 C23.32587941 1108.52876593 16.41986959 1108.52590625 9.51383635 1108.51724707 C5.58867514 1108.51252439 1.66358211 1108.51078899 -2.26157677 1108.51805903 C-46.45954502 1108.5938564 -46.45954502 1108.5938564 -65.42945111 1103.75693511 C-66.45038861 1103.50266753 -67.47132611 1103.24839995 -68.52320111 1102.9864273 C-97.89977221 1095.24579092 -122.19794335 1079.97703524 -143.99195111 1059.25693511 C-144.67515423 1058.63818511 -145.35835736 1058.01943511 -146.06226361 1057.38193511 C-177.08135236 1028.30965109 -191.75585773 984.28698438 -193.10575765 942.75552605 C-193.27577225 933.94131856 -193.26514835 925.12659005 -193.24888622 916.31117042 C-193.24374775 912.30219137 -193.25035802 908.29322711 -193.25537288 904.28425025 C-193.26255212 897.27888139 -193.26240452 890.27354343 -193.25727856 883.26817321 C-193.24967667 872.85049238 -193.25360015 862.43283736 -193.25969518 852.01515668 C-193.27019992 833.40327865 -193.26932456 814.7914144 -193.26353735 796.17953508 C-193.25849787 779.89155188 -193.25719673 763.60357371 -193.25958264 747.31558989 C-193.25973541 746.23339903 -193.25988818 745.15120818 -193.26004558 744.03622365 C-193.2606683 739.64279318 -193.2613051 735.2493627 -193.26196511 730.85593223 C-193.26807732 689.6776242 -193.26254537 648.49932492 -193.25177131 607.32101824 C-193.24228075 570.77035563 -193.24313003 534.21970697 -193.2526933 497.66904448 C-193.26341234 456.56401797 -193.26764377 415.45899919 -193.26146877 374.35397147 C-193.26082737 369.96874109 -193.26020169 365.58351071 -193.25958264 361.19828032 C-193.25942448 360.11859666 -193.25926633 359.038913 -193.25910338 357.92651165 C-193.25683248 341.65239368 -193.25948145 325.37828131 -193.26454175 309.10416411 C-193.27026941 290.59195638 -193.26881112 272.07976452 -193.25798026 253.56755875 C-193.25212444 243.2185423 -193.25170004 232.86956026 -193.25927261 222.52054473 C-193.26377956 215.59487795 -193.26092644 208.66923857 -193.25226307 201.74357582 C-193.24753717 197.80636534 -193.24581192 193.86922287 -193.25307503 189.93201469 C-193.32652121 146.91115829 -193.32652121 146.91115829 -188.24195111 127.31943511 C-187.97882123 126.27150786 -187.71569134 125.22358062 -187.44458783 124.143898 C-185.29141405 115.8434708 -182.62896938 108.03927782 -178.99195111 100.25693511 C-178.69562787 99.61498198 -178.39930462 98.97302886 -178.09400189 98.31162261 C-158.93034376 57.14303821 -125.6192178 26.05559757 -82.99195111 10.25693511 C-55.86429302 0.53883617 -28.52844174 -0.05283943 0 0 Z " fill="#0239C1" transform="translate(238.99195110797882,45.743064891546965)"/>
<path d="M0 0 C3.41616399 0.00577889 6.83232043 0.00596761 10.24848938 0.00667572 C20.17923922 0.01188214 30.10998293 0.0258433 40.04072571 0.03878021 C62.27447571 0.05940521 84.50822571 0.08003021 107.41572571 0.10128021 C107.41572571 49.60128021 107.41572571 99.10128021 107.41572571 150.10128021 C63.97822571 150.41378021 63.97822571 150.41378021 50.36714172 150.48921967 C46.26793379 150.52587183 46.26793379 150.52587183 42.16876221 150.56629181 C40.37204805 150.58222429 38.57527905 150.59265751 36.77850342 150.5983963 C27.44105871 150.6321088 18.29134979 150.84527797 9.07173157 152.43404388 C8.40591096 152.54821561 7.74009035 152.66238733 7.05409336 152.78001881 C-2.73298894 154.67702186 -11.88221029 159.11511215 -18.25224304 166.91378021 C-26.8554631 181.04223545 -26.04680683 198.9422036 -26.09599304 214.88643646 C-26.11150877 216.6959776 -26.12831423 218.50550814 -26.14640808 220.31502533 C-26.20372522 226.93116065 -26.2363391 233.54749151 -26.27177429 240.16378021 C-26.37489929 254.99315521 -26.47802429 269.82253021 -26.58427429 285.10128021 C17.96572571 285.10128021 62.51572571 285.10128021 108.41572571 285.10128021 C107.26700654 303.48078689 107.26700654 303.48078689 106.44770813 310.94356537 C106.35645157 311.8016983 106.26519501 312.65983124 106.1711731 313.5439682 C105.87446941 316.32645659 105.57287023 319.10838942 105.27119446 321.89034271 C105.05768756 323.88391036 104.84450435 325.87751269 104.63162231 327.87114716 C104.07235289 333.10102366 103.50896981 338.33044856 102.94459534 343.55977631 C102.27442341 349.77621108 101.60905959 355.99316184 100.94302559 362.21004105 C100.39899037 367.2870749 99.85404294 372.36400662 99.30680847 377.44069672 C98.26283815 387.1338431 97.23200828 396.82803057 96.23457336 406.5260849 C96.04964855 408.31607589 95.86469745 410.10606416 95.67971802 411.8960495 C95.33613609 415.22230929 94.99758727 418.54902984 94.66186523 421.876091 C94.51010046 423.34879709 94.35815944 424.82148503 94.20600891 426.29415131 C94.07668472 427.56777527 93.94736053 428.84139923 93.81411743 430.15361786 C93.41572571 433.10128021 93.41572571 433.10128021 92.41572571 435.10128021 C53.14572571 435.10128021 13.87572571 435.10128021 -26.58427429 435.10128021 C-26.58427429 578.98128021 -26.58427429 722.86128021 -26.58427429 871.10128021 C-85.32427429 871.10128021 -144.06427429 871.10128021 -204.58427429 871.10128021 C-204.58427429 727.22128021 -204.58427429 583.34128021 -204.58427429 435.10128021 C-233.95427429 435.10128021 -263.32427429 435.10128021 -293.58427429 435.10128021 C-293.58427429 385.93128021 -293.58427429 336.76128021 -293.58427429 286.10128021 C-264.21427429 286.10128021 -234.84427429 286.10128021 -204.58427429 286.10128021 C-204.61907898 278.32694427 -204.65388367 270.55260834 -204.68974304 262.54268646 C-204.70511674 257.54332974 -204.71956165 252.5440032 -204.73075867 247.54463959 C-204.7485191 239.65290091 -204.76925492 231.7612499 -204.81059265 223.86959076 C-205.1312701 160.92532066 -204.36723945 96.70537879 -158.58427429 48.10128021 C-157.93458679 47.37553802 -157.28489929 46.64979584 -156.61552429 45.90206146 C-141.42369966 29.62928008 -120.4273289 19.11394466 -99.58427429 12.10128021 C-98.92572449 11.87456635 -98.26717468 11.64785248 -97.58866882 11.41426849 C-87.73507068 8.04475641 -77.86598361 5.75887777 -67.58427429 4.10128021 C-66.80535828 3.96979584 -66.02644226 3.83831146 -65.22392273 3.70284271 C-62.72090977 3.28153366 -60.215744 2.87647695 -57.70927429 2.47628021 C-56.96838562 2.35301361 -56.22749695 2.22974701 -55.4641571 2.10274506 C-37.16452307 -0.69442945 -18.45374795 -0.03635399 0 0 Z " fill="#FEFEFE" transform="translate(827.5842742919922,160.89871978759766)"/>
</svg>
