<?xml version="1.0" encoding="UTF-8"?>
<svg version="1.1" xmlns="http://www.w3.org/2000/svg" width="474" height="466">
<path d="M0 0 C156.42 0 312.84 0 474 0 C474 153.78 474 307.56 474 466 C317.58 466 161.16 466 0 466 C0 312.22 0 158.44 0 0 Z " fill="#020202" transform="translate(0,0)"/>
<path d="M0 0 C4.58969778 0.46924973 8.87499122 1.63334309 13.27954102 2.97167969 C14.20154297 3.24496094 15.12354492 3.51824219 16.07348633 3.79980469 C22.33319717 5.70947171 28.18708102 7.83442467 33.77954102 11.28417969 C34.49368164 11.69925781 35.20782227 12.11433594 35.94360352 12.54199219 C39.560178 14.77838984 42.71338733 17.15192177 45.69360352 20.18261719 C46.46051514 20.94711182 46.46051514 20.94711182 47.24291992 21.72705078 C48.24710667 22.74463945 49.22760223 23.78631456 50.17944336 24.85302734 C51.74872138 26.55241008 51.74872138 26.55241008 54.77954102 28.28417969 C57.95815244 28.18259558 60.76731762 27.25092561 63.77954102 26.28417969 C65.19418982 25.93702661 66.61221372 25.60330613 68.03344727 25.28417969 C68.7329248 25.12014648 69.43240234 24.95611328 70.15307617 24.78710938 C101.2052443 17.65266075 134.73104853 17.46322884 165.17016602 27.64746094 C167.93257788 28.32152252 169.19188163 28.40900807 171.77954102 27.28417969 C173.30686238 25.96956003 173.30686238 25.96956003 174.71704102 24.28417969 C188.45697098 9.98643205 208.69068636 1.19035891 228.34204102 -0.21582031 C231.07267598 -0.19283517 232.30531938 -0.12245964 234.39672852 1.67089844 C243.49814879 14.08437402 242.18909631 32.80271352 240.17797852 47.35839844 C239.4045284 52.06891055 238.45542052 56.73487305 237.23168945 61.35058594 C235.72862726 66.75652128 235.72862726 66.75652128 235.77954102 72.28417969 C237.20485809 74.4932291 237.20485809 74.4932291 239.21704102 76.59667969 C253.57560568 93.70475673 260.1660016 113.65482167 260.02954102 135.78417969 C260.03727539 137.0384375 260.04500977 138.29269531 260.05297852 139.58496094 C260.03800945 146.73268828 259.57046203 153.35743318 257.77954102 160.28417969 C257.38895508 161.80591797 257.38895508 161.80591797 256.99047852 163.35839844 C249.85409874 185.66792212 235.28208117 203.75643567 214.77954102 215.28417969 C214.21702637 215.6009668 213.65451172 215.91775391 213.07495117 216.24414062 C192.45448764 227.66590508 169.11947545 233.68778461 145.77954102 236.28417969 C146.27583008 236.64769531 146.77211914 237.01121094 147.28344727 237.38574219 C149.46383413 238.99931121 151.62106751 240.64144764 153.77954102 242.28417969 C154.35317383 242.69410156 154.92680664 243.10402344 155.51782227 243.52636719 C170.74551074 255.22879126 178.54564306 276.00113546 181.77954102 294.28417969 C182.37072742 299.67515416 182.25267563 305.08934027 182.17016602 310.50292969 C182.16267621 311.98221051 182.15699631 313.46150147 182.15301514 314.9407959 C182.13797353 318.77464755 182.09888721 322.60786198 182.05419922 326.44146729 C182.01277336 330.37723172 181.99490473 334.31310235 181.97485352 338.24902344 C181.9323637 345.92769473 181.86438554 353.60584688 181.77954102 361.28417969 C197.87146781 355.0370054 197.87146781 355.0370054 213.40454102 347.53417969 C214.3583667 347.02959229 215.31219238 346.52500488 216.29492188 346.00512695 C236.31993078 335.21651765 253.85967967 321.5285413 270.20239258 305.79833984 C271.49567191 304.5567116 272.80358674 303.33034446 274.11547852 302.10839844 C279.8356566 296.65671851 284.59387696 290.42510279 289.3605957 284.14746094 C290.7297832 282.34951893 292.11706262 280.56679886 293.50610352 278.78417969 C314.63013674 251.27611263 328.33252874 218.24930574 334.77954102 184.28417969 C335.0016626 183.1370752 335.0016626 183.1370752 335.22827148 181.96679688 C336.10887614 177.41116075 336.95828287 172.85087269 337.77954102 168.28417969 C338.43954102 168.28417969 339.09954102 168.28417969 339.77954102 168.28417969 C339.77954102 234.28417969 339.77954102 300.28417969 339.77954102 368.28417969 C242.42954102 368.28417969 145.07954102 368.28417969 44.77954102 368.28417969 C43.81140848 365.37978208 43.65809268 363.55599728 43.66601562 360.53735352 C43.66612892 359.09619926 43.66612892 359.09619926 43.66624451 357.62593079 C43.67140579 356.59147324 43.67656708 355.55701569 43.68188477 354.49121094 C43.68329971 353.43004562 43.68471466 352.36888031 43.68617249 351.27555847 C43.69177495 347.88257034 43.70432788 344.48964792 43.71704102 341.09667969 C43.7220557 338.79785251 43.72661866 336.49902431 43.73071289 334.20019531 C43.74174518 328.56150097 43.75848572 322.92284502 43.77954102 317.28417969 C42.74659912 317.29989014 41.71365723 317.31560059 40.64941406 317.33178711 C36.76733391 317.3866443 32.88528703 317.4207297 29.00292969 317.44897461 C27.33197238 317.46393552 25.66105347 317.48431172 23.99023438 317.51049805 C8.77895796 317.74269652 -5.80936842 316.48600726 -17.53295898 305.59667969 C-25.54049138 297.76284648 -28.64261292 285.171324 -32.29467773 274.91699219 C-36.63698686 263.19965009 -42.46388091 255.42244313 -52.06030273 247.60839844 C-54.22045898 245.28417969 -54.22045898 245.28417969 -54.72436523 242.61621094 C-54.22045898 240.28417969 -54.22045898 240.28417969 -51.22045898 238.28417969 C-39.23134971 238.28417969 -30.61384308 245.07269928 -22.28295898 253.13183594 C-18.38887546 257.0472466 -14.81347511 261.24192834 -11.31640625 265.51269531 C-5.6140249 272.43524552 0.10950306 276.56420951 9.22680664 277.54833984 C14.75071262 277.76684197 20.28315857 277.54840585 25.8059082 277.35693359 C28.74347808 277.28506202 31.66234741 277.33149476 34.59985352 277.38964844 C43.60956516 277.65223423 43.60956516 277.65223423 51.31762695 273.79638672 C53.93171044 269.94345497 55.3860232 265.67245602 56.93725586 261.3125 C59.0431614 256.24123529 63.09290953 252.26308466 66.77954102 248.28417969 C67.4227832 247.58421875 68.06602539 246.88425781 68.72875977 246.16308594 C71.80010944 242.95848899 74.74098349 240.24576477 78.77954102 238.28417969 C79.43954102 238.28417969 80.09954102 238.28417969 80.77954102 238.28417969 C80.77954102 237.62417969 80.77954102 236.96417969 80.77954102 236.28417969 C80.20848633 236.31898438 79.63743164 236.35378906 79.04907227 236.38964844 C71.55628352 236.63980514 65.00515185 235.1313841 57.77954102 233.28417969 C56.22037183 232.9255371 54.66042324 232.57027193 53.09985352 232.21777344 C24.36264809 225.6024979 -4.79057896 212.18210003 -21.3059082 186.60302734 C-25.69644399 179.53404999 -29.70195404 172.24119532 -32.22045898 164.28417969 C-32.51823242 163.37925781 -32.81600586 162.47433594 -33.12280273 161.54199219 C-37.69369124 144.64866231 -37.55650507 123.63909864 -31.22045898 107.28417969 C-30.80795898 106.13691406 -30.39545898 104.98964844 -29.97045898 103.80761719 C-25.87838686 93.32168238 -19.89704777 83.51129469 -12.40795898 75.08886719 C-9.81365665 72.36759563 -9.81365665 72.36759563 -10.28295898 68.40917969 C-10.55949534 67.02649791 -10.8723592 65.65060122 -11.22045898 64.28417969 C-11.52983398 63.04667969 -11.83920898 61.80917969 -12.15795898 60.53417969 C-12.41754395 59.53475342 -12.41754395 59.53475342 -12.68237305 58.51513672 C-14.87643123 49.41835648 -15.56044576 40.49368781 -15.53295898 31.15917969 C-15.54907227 30.05703125 -15.56518555 28.95488281 -15.58178711 27.81933594 C-15.58725872 18.59419382 -14.0988344 9.51304458 -8.84326172 1.70629883 C-6.11516281 -0.68443024 -3.4771847 -0.12230511 0 0 Z " fill="#FDFDFD" transform="translate(134.220458984375,97.7158203125)"/>
<path d="M0 0 C69.3 0 138.6 0 210 0 C210 0.66 210 1.32 210 2 C208.98184204 2.15033691 208.98184204 2.15033691 207.94311523 2.30371094 C195.08725056 4.22311384 182.43350831 6.12637976 170 10 C168.97181152 10.31275879 168.97181152 10.31275879 167.92285156 10.63183594 C145.04806542 17.6397184 122.42096906 27.94172434 103 42 C102.06244873 42.67699951 102.06244873 42.67699951 101.10595703 43.36767578 C93.46601401 48.91152718 86.0537578 54.56785489 79.140625 61.01171875 C77.22600594 62.79007842 75.26004632 64.45699938 73.25 66.125 C46.87612512 89.3212996 26.73992544 122.09263322 15 155 C14.50782648 156.29818238 14.01563844 157.59635926 13.5234375 158.89453125 C7.74312545 174.66761104 4.69794194 191.45592868 2 208 C1.34 208 0.68 208 0 208 C0 139.36 0 70.72 0 0 Z " fill="#FDFDFD" transform="translate(0,0)"/>
<path d="M0 0 C70.29 0 140.58 0 213 0 C213 68.31 213 136.62 213 207 C212.34 207 211.68 207 211 207 C210.91024902 206.41847168 210.82049805 205.83694336 210.72802734 205.23779297 C204.06341685 162.81833563 188.66814915 122.99086946 161.14453125 89.6015625 C160 88 160 88 160 86 C159.34 86 158.68 86 158 86 C156.65186756 84.46445901 155.37284977 82.86809091 154.125 81.25 C123.03421481 42.39903493 74.85476335 17.02599615 27 6 C26.31292969 5.84160645 25.62585938 5.68321289 24.91796875 5.52001953 C16.64068248 3.65361202 8.47228348 2.45753486 0 2 C0 1.34 0 0.68 0 0 Z " fill="#FCFCFC" transform="translate(261,0)"/>
<path d="M0 0 C0.66 0 1.32 0 2 0 C2.10022461 0.57218262 2.20044922 1.14436523 2.30371094 1.73388672 C3.32503627 7.53413458 4.38265372 13.32679634 5.46630859 19.11572266 C5.78830417 20.85591282 6.10329209 22.5974494 6.40478516 24.34130859 C10.27148796 46.68743444 19.66856541 69.59795035 31.0625 89.125 C31.53365234 89.93340332 32.00480469 90.74180664 32.49023438 91.57470703 C40.44104361 105.00151829 49.63742698 117.35194324 60 129 C60.44166504 129.50337891 60.88333008 130.00675781 61.33837891 130.52539062 C90.42223005 163.61238594 130.48905423 188.36009818 173 200 C173 200.66 173 201.32 173 202 C115.91 202 58.82 202 0 202 C0 135.34 0 68.68 0 0 Z " fill="#FCFCFC" transform="translate(0,264)"/>
<path d="M0 0 C1.17755859 0.14888672 1.17755859 0.14888672 2.37890625 0.30078125 C4.4375 0.6875 4.4375 0.6875 6.4375 1.6875 C6.4375 2.3475 6.4375 3.0075 6.4375 3.6875 C4.7875 3.3575 3.1375 3.0275 1.4375 2.6875 C1.1075 4.3375 0.7775 5.9875 0.4375 7.6875 C1.4275 8.0175 2.4175 8.3475 3.4375 8.6875 C3.1075 9.6775 2.7775 10.6675 2.4375 11.6875 C3.0975 12.0175 3.7575 12.3475 4.4375 12.6875 C5.46895371 13.99665279 6.47292166 15.32832143 7.4375 16.6875 C2.37642626 16.6875 1.37177214 15.33826245 -2.3125 12 C-3.29734375 11.12988281 -4.2821875 10.25976562 -5.296875 9.36328125 C-7.5625 6.6875 -7.5625 6.6875 -8.078125 3.98046875 C-7.05359757 -0.57557369 -3.93587998 -0.53818458 0 0 Z " fill="#F2F2F2" transform="translate(87.5625,336.3125)"/>
<path d="M0 0 C4.03825066 -0.12406007 8.07575638 -0.21455045 12.11547852 -0.2746582 C13.48807102 -0.29972617 14.86053102 -0.33379082 16.23266602 -0.37719727 C18.21050696 -0.43817531 20.18934184 -0.46361009 22.16796875 -0.48828125 C23.35672607 -0.51446533 24.5454834 -0.54064941 25.77026367 -0.56762695 C29.92639783 0.16281465 31.40430628 1.75133233 34 5 C34 5.66 34 6.32 34 7 C33.09459473 6.82609741 33.09459473 6.82609741 32.17089844 6.64868164 C16.18913371 3.53509832 16.18913371 3.53509832 0 2 C0 1.34 0 0.68 0 0 Z " fill="#EDEDED" transform="translate(261,0)"/>
<path d="M0 0 C0.33 1.32 0.66 2.64 1 4 C-0.98 5.65 -2.96 7.3 -5 9 C-4.67 9.66 -4.34 10.32 -4 11 C-5.65 11.66 -7.3 12.32 -9 13 C-9.33 12.67 -9.66 12.34 -10 12 C-10.309375 12.94875 -10.61875 13.8975 -10.9375 14.875 C-12 18 -12 18 -13 20 C-14.65 19.67 -16.3 19.34 -18 19 C-14.39216055 13.03922177 -9.74508042 8.07714866 -5 3 C-4.45472656 2.40574219 -3.90945312 1.81148438 -3.34765625 1.19921875 C-2 0 -2 0 0 0 Z " fill="#EFEFEF" transform="translate(210,339)"/>
<path d="M0 0 C1.07636719 0.00322266 2.15273437 0.00644531 3.26171875 0.00976562 C4.38964844 0.01814453 5.51757812 0.02652344 6.6796875 0.03515625 C7.81535156 0.03966797 8.95101562 0.04417969 10.12109375 0.04882812 C12.93234388 0.0606401 15.7434898 0.07711118 18.5546875 0.09765625 C18.5546875 0.75765625 18.5546875 1.41765625 18.5546875 2.09765625 C15.34876041 2.63407575 12.13972528 3.14896108 8.9296875 3.66015625 C7.57423828 3.88735352 7.57423828 3.88735352 6.19140625 4.11914062 C1.37399462 4.87515778 -2.63196082 5.30499197 -7.4453125 4.09765625 C-7.4453125 3.10765625 -7.4453125 2.11765625 -7.4453125 1.09765625 C-4.83580014 -0.20709993 -2.91829965 -0.01535947 0 0 Z " fill="#F2F2F2" transform="translate(191.4453125,-0.09765625)"/>
<path d="M0 0 C2.96404505 2.80804268 5.44499019 5.18315774 7 9 C7.66 9 8.32 9 9 9 C9.66 10.32 10.32 11.64 11 13 C10.01 14.485 10.01 14.485 9 16 C8.34 16 7.68 16 7 16 C5.98133771 14.34467377 4.98189187 12.67739862 4 11 C3.34 10.67 2.68 10.34 2 10 C2 9.34 2 8.68 2 8 C1.360625 7.896875 0.72125 7.79375 0.0625 7.6875 C-0.618125 7.460625 -1.29875 7.23375 -2 7 C-2.33 6.01 -2.66 5.02 -3 4 C-2.34 4 -1.68 4 -1 4 C-0.67 2.68 -0.34 1.36 0 0 Z " fill="#0F0F0F" transform="translate(412,77)"/>
<path d="M0 0 C1.31223496 3.93670488 0.24296256 6.12488144 -1 10 C-3 10 -5 10 -7 10 C-7.33 11.32 -7.66 12.64 -8 14 C-8.66 14 -9.32 14 -10 14 C-10 14.66 -10 15.32 -10 16 C-10.66 16 -11.32 16 -12 16 C-10.53291432 10.27836585 -7.58811438 5.63139763 -4 1 C-2 0 -2 0 0 0 Z " fill="#F2F2F2" transform="translate(119,181)"/>
<path d="M0 0 C3.58702661 1.46814142 5.40373148 3.38434289 7.75 6.4375 C8.36359375 7.21996094 8.9771875 8.00242187 9.609375 8.80859375 C11 11 11 11 11 14 C10.34 13.67 9.68 13.34 9 13 C9 12.34 9 11.68 9 11 C8.01 10.67 7.02 10.34 6 10 C5.34 9.34 4.68 8.68 4 8 C1.89179203 8.3185177 1.89179203 8.3185177 0 9 C-1.125 6.75 -1.125 6.75 -2 4 C-1.125 1.6875 -1.125 1.6875 0 0 Z " fill="#F3F3F3" transform="translate(43,375)"/>
<path d="M0 0 C1.65 0 3.3 0 5 0 C6.83691257 3.78187881 7.15837626 5.94568308 6 10 C6.66 10.33 7.32 10.66 8 11 C7.01 11.33 6.02 11.66 5 12 C3.82739389 10.71372289 2.6620717 9.42080217 1.5 8.125 C0.8503125 7.40570313 0.200625 6.68640625 -0.46875 5.9453125 C-2 4 -2 4 -2 2 C-1.34 2 -0.68 2 0 2 C0 1.34 0 0.68 0 0 Z " fill="#0D0D0D" transform="translate(57,385)"/>
<path d="M0 0 C1.4540625 0.0309375 1.4540625 0.0309375 2.9375 0.0625 C2.9375 0.7225 2.9375 1.3825 2.9375 2.0625 C1.14453125 3.4296875 1.14453125 3.4296875 -1.25 4.9375 C-4.68600959 7.14868598 -7.92678673 9.43254693 -11.0625 12.0625 C-11.0625 10.0625 -11.0625 8.0625 -11.0625 6.0625 C-9.4125 6.0625 -7.7625 6.0625 -6.0625 6.0625 C-5.753125 5.258125 -5.44375 4.45375 -5.125 3.625 C-3.65286145 0.07454819 -3.65286145 0.07454819 0 0 Z " fill="#191919" transform="translate(212.0625,333.9375)"/>
<path d="M0 0 C6.27 0 12.54 0 19 0 C19 0.99 19 1.98 19 3 C12.73 2.67 6.46 2.34 0 2 C0 1.34 0 0.68 0 0 Z " fill="#DDDDDD" transform="translate(261,0)"/>
<path d="M0 0 C0.66 0.33 1.32 0.66 2 1 C2 1.66 2 2.32 2 3 C2.9590625 3.3403125 2.9590625 3.3403125 3.9375 3.6875 C6 5 6 5 6.75 7.625 C6.87375 8.800625 6.87375 8.800625 7 10 C6.01 10.66 5.02 11.32 4 12 C2.9944239 10.54550599 1.99569565 9.08627557 1 7.625 C0.443125 6.81289063 -0.11375 6.00078125 -0.6875 5.1640625 C-2 3 -2 3 -2 1 C-1.34 0.67 -0.68 0.34 0 0 Z " fill="#111111" transform="translate(33,352)"/>
<path d="M0 0 C0 3 0 3 -2.1875 5.4375 C-4.71774645 7.74283566 -7.29055804 9.90985906 -10 12 C-8.52278578 8.54798361 -6.56205999 6.35038064 -3.875 3.75 C-3.15054688 3.04359375 -2.42609375 2.3371875 -1.6796875 1.609375 C-1.12539062 1.07828125 -0.57109375 0.5471875 0 0 Z M-12 13 C-10.9375 14.8125 -10.9375 14.8125 -10 17 C-10.33 17.99 -10.66 18.98 -11 20 C-11.33 19.01 -11.66 18.02 -12 17 C-13.32 17.99 -14.64 18.98 -16 20 C-16 17 -16 17 -14 14.8125 C-13.34 14.214375 -12.68 13.61625 -12 13 Z " fill="#232323" transform="translate(73,65)"/>
<path d="M0 0 C0.66 0 1.32 0 2 0 C2.66 5.61 3.32 11.22 4 17 C1 15 1 15 0 12 C-0.068991 9.93854893 -0.08467727 7.87498599 -0.0625 5.8125 C-0.05347656 4.72582031 -0.04445312 3.63914062 -0.03515625 2.51953125 C-0.02355469 1.68808594 -0.01195312 0.85664063 0 0 Z " fill="#D9D9D9" transform="translate(0,264)"/>
<path d="M0 0 C0.66 0 1.32 0 2 0 C2.10251672 5.12583611 2.03590199 9.94997778 1 15 C0.34 15 -0.32 15 -1 15 C-1.02693575 12.87506859 -1.04636628 10.75004088 -1.0625 8.625 C-1.07410156 7.44164062 -1.08570312 6.25828125 -1.09765625 5.0390625 C-1 2 -1 2 0 0 Z " fill="#F4F4F4" transform="translate(1,193)"/>
<path d="M0 0 C2.64752004 2.57784846 4.94432065 4.91648098 7 8 C6.01 8.495 6.01 8.495 5 9 C5 8.34 5 7.68 5 7 C2.69 7.33 0.38 7.66 -2 8 C-2 6.35 -2 4.7 -2 3 C-1.34 2.67 -0.68 2.34 0 2 C0 1.34 0 0.68 0 0 Z " fill="#E8E8E8" transform="translate(292,344)"/>
<path d="M0 0 C-0.33 1.65 -0.66 3.3 -1 5 C-1.99 5 -2.98 5 -4 5 C-4.33 6.32 -4.66 7.64 -5 9 C-5.66 9 -6.32 9 -7 9 C-7 9.66 -7 10.32 -7 11 C-7.66 11 -8.32 11 -9 11 C-7.84101462 6.46942077 -5.51745129 0 0 0 Z " fill="#ECECEC" transform="translate(116,186)"/>
<path d="M0 0 C-3.13334885 2.53078176 -6.24530187 4.51376532 -10 6 C-12.375 5.1875 -12.375 5.1875 -14 4 C-13.195625 3.71125 -12.39125 3.4225 -11.5625 3.125 C-8.8673532 2.26737432 -8.8673532 2.26737432 -8 0 C-4.71023192 -1.09658936 -3.28696233 -0.79953138 0 0 Z " fill="#EBEBEB" transform="translate(123,29)"/>
<path d="M0 0 C0.33 0.66 0.66 1.32 1 2 C0.67 2.66 0.34 3.32 0 4 C-0.66 4 -1.32 4 -2 4 C-2.66 4.66 -3.32 5.32 -4 6 C-5.32 4.35 -6.64 2.7 -8 1 C-2.25 -1.125 -2.25 -1.125 0 0 Z " fill="#EFEFEF" transform="translate(324,458)"/>
<path d="M0 0 C0.99 0 1.98 0 3 0 C2.38125 0.433125 1.7625 0.86625 1.125 1.3125 C-1.2197245 2.99740483 -1.2197245 2.99740483 -3 6 C-4.37562854 4.71034824 -5.70766393 3.37310707 -7 2 C-7 1.34 -7 0.68 -7 0 C-4.31581667 -1.34209166 -2.88064523 -0.63233676 0 0 Z " fill="#0B0B0B" transform="translate(84,409)"/>
<path d="M0 0 C0.66 0.33 1.32 0.66 2 1 C0.35 2.32 -1.3 3.64 -3 5 C-1.125 1.125 -1.125 1.125 0 0 Z M-4 5 C-2 7 -2 7 -2 10 C-3.32 10 -4.64 10 -6 10 C-7.7511573 11.4166747 -7.7511573 11.4166747 -9 13 C-9.66 12.67 -10.32 12.34 -11 12 C-8.69 9.69 -6.38 7.38 -4 5 Z " fill="#ECECEC" transform="translate(418,389)"/>
<path d="M0 0 C2.475 0.99 2.475 0.99 5 2 C4.67 3.65 4.34 5.3 4 7 C1.525 6.01 1.525 6.01 -1 5 C-1 2 -1 2 0 0 Z " fill="#0C0C0C" transform="translate(298,345)"/>
<path d="M0 0 C0.99 1.32 1.98 2.64 3 4 C0.94766315 6.2477975 -0.00667261 7.0022242 -3 8 C-3.75 6.25 -3.75 6.25 -4 4 C-2.0625 1.75 -2.0625 1.75 0 0 Z " fill="#F1F1F1" transform="translate(29,351)"/>
<path d="M0 0 C3.39914975 1.13304992 4.05254451 2.12518475 6 5 C3.525 6.485 3.525 6.485 1 8 C0.34 7.34 -0.32 6.68 -1 6 C-1 5.01 -1 4.02 -1 3 C-0.34 3 0.32 3 1 3 C0.67 2.01 0.34 1.02 0 0 Z " fill="#F3F3F3" transform="translate(130,296)"/>
<path d="M0 0 C2.31 0.66 4.62 1.32 7 2 C7 4 7 6 7 8 C4.36 6.02 1.72 4.04 -1 2 C-0.67 1.34 -0.34 0.68 0 0 Z " fill="#E9E9E9" transform="translate(383,48)"/>
<path d="M0 0 C1.79068573 2.6860286 2.66055791 4.6626589 3.625 7.6875 C3.88539062 8.49574219 4.14578125 9.30398438 4.4140625 10.13671875 C4.60742188 10.75160156 4.80078125 11.36648438 5 12 C4.34 12 3.68 12 3 12 C2.34 10.02 1.68 8.04 1 6 C0.34 6 -0.32 6 -1 6 C-0.67 4.02 -0.34 2.04 0 0 Z " fill="#1C1C1C" transform="translate(99,365)"/>
<path d="M0 0 C1.32 0.33 2.64 0.66 4 1 C4.6875 2.8125 4.6875 2.8125 5 5 C3.5625 6.75 3.5625 6.75 2 8 C0 6 0 6 -0.125 2.875 C-0.08375 1.92625 -0.0425 0.9775 0 0 Z " fill="#EEEEEE" transform="translate(33,104)"/>
<path d="M0 0 C0.33 0.99 0.66 1.98 1 3 C-0.75 5.0625 -0.75 5.0625 -3 7 C-5.25 6.75 -5.25 6.75 -7 6 C-2.25 1.125 -2.25 1.125 0 0 Z " fill="#E7E7E7" transform="translate(80,56)"/>
<path d="M0 0 C0.66 0.33 1.32 0.66 2 1 C2 1.66 2 2.32 2 3 C1.34 3 0.68 3 0 3 C-0.66 4.65 -1.32 6.3 -2 8 C-2.99 7.34 -3.98 6.68 -5 6 C-3.86695008 2.60085025 -2.87481525 1.94745549 0 0 Z " fill="#EAEAEA" transform="translate(382,423)"/>
<path d="M0 0 C-1.04874998 2.62187494 -1.64931313 3.79371361 -4.125 5.25 C-4.74375 5.4975 -5.3625 5.745 -6 6 C-6.99 5.01 -7.98 4.02 -9 3 C-3.2 0 -3.2 0 0 0 Z " fill="#121212" transform="translate(378,425)"/>
<path d="M0 0 C2.53910197 0.38520564 3.72751123 0.70097943 5.484375 2.62890625 C5.90203125 3.26699219 6.3196875 3.90507812 6.75 4.5625 C7.17796875 5.20316406 7.6059375 5.84382813 8.046875 6.50390625 C8.36140625 6.99761719 8.6759375 7.49132812 9 8 C8.01 8 7.02 8 6 8 C6 7.34 6 6.68 6 6 C5.01 5.67 4.02 5.34 3 5 C2.34 4.34 1.68 3.68 1 3 C0.34 2.67 -0.32 2.34 -1 2 C-0.67 1.34 -0.34 0.68 0 0 Z " fill="#EAEAEA" transform="translate(46,380)"/>
<path d="M0 0 C3.57104439 1.87949705 5.54744301 3.17053157 7 7 C4.625 6.75 4.625 6.75 2 6 C0.54286376 3.84898936 0 2.59713506 0 0 Z " fill="#F0F0F0" transform="translate(282,336)"/>
<path d="M0 0 C-0.99 0.66 -1.98 1.32 -3 2 C-2.67 2.66 -2.34 3.32 -2 4 C-4.31 4.33 -6.62 4.66 -9 5 C-8.625 3.0625 -8.625 3.0625 -8 1 C-5.29120665 -0.35439668 -2.99066732 -0.06501451 0 0 Z " fill="#E5E5E5" transform="translate(89,336)"/>
<path d="M0 0 C4.875 1.75 4.875 1.75 6 4 C4.02 4.99 4.02 4.99 2 6 C0.68 4.68 -0.64 3.36 -2 2 C-1.34 1.34 -0.68 0.68 0 0 Z " fill="#0F0F0F" transform="translate(90,418)"/>
<path d="M0 0 C2.52588702 2.36292656 3.88820837 3.66462511 5 7 C4.01 7.33 3.02 7.66 2 8 C2 7.34 2 6.68 2 6 C1.34 6 0.68 6 0 6 C-0.38218767 4.34385343 -0.71395102 2.67542976 -1 1 C-0.67 0.67 -0.34 0.34 0 0 Z M-3 2 C-2.34 2 -1.68 2 -1 2 C-1.33 2.66 -1.66 3.32 -2 4 C-2.33 3.34 -2.66 2.68 -3 2 Z " fill="#101010" transform="translate(436,109)"/>
<path d="M0 0 C0.66 0.33 1.32 0.66 2 1 C1.67 2.32 1.34 3.64 1 5 C-2 5 -2 5 -5 4 C-3.73293765 1.46587529 -2.59334288 1.02161992 0 0 Z " fill="#141414" transform="translate(125,96)"/>
<path d="M0 0 C5.75 1.875 5.75 1.875 8 3 C7.34 4.32 6.68 5.64 6 7 C4.02 4.69 2.04 2.38 0 0 Z " fill="#D2D2D2" transform="translate(121,294)"/>
<path d="M0 0 C1.98 0.66 3.96 1.32 6 2 C5.67 3.32 5.34 4.64 5 6 C1.535 4.02 1.535 4.02 -2 2 C-1.34 1.34 -0.68 0.68 0 0 Z " fill="#1A1A1A" transform="translate(98,338)"/>
<path d="M0 0 C2.34058637 2.12780579 3.70700306 4.11562221 5 7 C4.01 7.99 3.02 8.98 2 10 C0 3.375 0 3.375 0 0 Z " fill="#E4E4E4" transform="translate(378,182)"/>
<path d="M0 0 C0.66 0 1.32 0 2 0 C1.71125 0.53625 1.4225 1.0725 1.125 1.625 C-0.16711808 4.35280484 -1.08558592 7.12612718 -2 10 C-2.33 9.34 -2.66 8.68 -3 8 C-3.66 7.67 -4.32 7.34 -5 7 C-4.21654285 5.82780457 -3.42297164 4.66236332 -2.625 3.5 C-2.18414062 2.8503125 -1.74328125 2.200625 -1.2890625 1.53125 C-0.65097656 0.77328125 -0.65097656 0.77328125 0 0 Z " fill="#141414" transform="translate(48,93)"/>
<path d="M0 0 C0.33 0.99 0.66 1.98 1 3 C1.66 3 2.32 3 3 3 C2.67 3.99 2.34 4.98 2 6 C0.35 5.67 -1.3 5.34 -3 5 C-3 3 -3 3 -1.5 1.375 C-1.005 0.92125 -0.51 0.4675 0 0 Z " fill="#ECECEC" transform="translate(84,49)"/>
<path d="M0 0 C0.66 0.66 1.32 1.32 2 2 C2.99 2 3.98 2 5 2 C4.34 3.65 3.68 5.3 3 7 C0.7522025 4.94766315 -0.0022242 3.99332739 -1 1 C-0.67 0.67 -0.34 0.34 0 0 Z " fill="#EEEEEE" transform="translate(112,393)"/>
<path d="M0 0 C2.475 0.495 2.475 0.495 5 1 C5 2.65 5 4.3 5 6 C4.01 6.33 3.02 6.66 2 7 C1.34 4.69 0.68 2.38 0 0 Z " fill="#141414" transform="translate(49,377)"/>
<path d="M0 0 C0.99 0.66 1.98 1.32 3 2 C2.67 3.65 2.34 5.3 2 7 C0.68 6.34 -0.64 5.68 -2 5 C-1.34 3.35 -0.68 1.7 0 0 Z " fill="#191919" transform="translate(35,112)"/>
<path d="M0 0 C0.66 0.33 1.32 0.66 2 1 C0.375 3 0.375 3 -2 5 C-5.25 5.25 -5.25 5.25 -8 5 C-5.45378681 2.99940392 -3.01962385 1.20784954 0 0 Z " fill="#171717" transform="translate(132,24)"/>
<path d="M0 0 C5.75 1.75 5.75 1.75 8 4 C5 5 5 5 1.8125 3.5625 C0.884375 3.046875 -0.04375 2.53125 -1 2 C-0.67 1.34 -0.34 0.68 0 0 Z " fill="#1E1E1E" transform="translate(121,441)"/>
<path d="M0 0 C2.46278801 1.231394 3.42497687 2.78064923 5 5 C3.68 5 2.36 5 1 5 C-0.75 3 -0.75 3 -2 1 C-1.34 0.67 -0.68 0.34 0 0 Z " fill="#E7E7E7" transform="translate(90,348)"/>
<path d="M0 0 C0.99 0.33 1.98 0.66 3 1 C3 1.66 3 2.32 3 3 C1.03852126 4.38938077 -0.96166576 5.7260411 -3 7 C-1.125 1.125 -1.125 1.125 0 0 Z " fill="#111111" transform="translate(24,133)"/>
<path d="M0 0 C0.66 0.33 1.32 0.66 2 1 C0.25 3.0625 0.25 3.0625 -2 5 C-4.25 4.75 -4.25 4.75 -6 4 C-4.03617993 2.49440461 -2.21736634 1.10868317 0 0 Z " fill="#EDEDED" transform="translate(336,104)"/>
<path d="M0 0 C2.475 0.99 2.475 0.99 5 2 C5 2.99 5 3.98 5 5 C3.02 4.34 1.04 3.68 -1 3 C-0.67 2.01 -0.34 1.02 0 0 Z " fill="#E5E5E5" transform="translate(73,409)"/>
<path d="M0 0 C1.98 0 3.96 0 6 0 C6.33 0.66 6.66 1.32 7 2 C6.67 2.66 6.34 3.32 6 4 C1.125 2.25 1.125 2.25 0 0 Z " fill="#212121" transform="translate(279,333)"/>
<path d="M0 0 C0.66 0 1.32 0 2 0 C2.33 2.64 2.66 5.28 3 8 C0 6 0 6 -0.75 3.4375 C-0.8325 2.633125 -0.915 1.82875 -1 1 C-0.67 0.67 -0.34 0.34 0 0 Z " fill="#E9E9E9" transform="translate(1,273)"/>
<path d="M0 0 C2.475 0.495 2.475 0.495 5 1 C5 2.98 5 4.96 5 7 C1.125 2.25 1.125 2.25 0 0 Z " fill="#E0E0E0" transform="translate(434,105)"/>
<path d="M0 0 C0.66 0 1.32 0 2 0 C2.33 1.65 2.66 3.3 3 5 C2.01 5 1.02 5 0 5 C-0.5625 3.0625 -0.5625 3.0625 -1 1 C-0.67 0.67 -0.34 0.34 0 0 Z " fill="#080808" transform="translate(59,82)"/>
</svg>
