<?xml version="1.0" encoding="UTF-8"?>
<svg version="1.1" xmlns="http://www.w3.org/2000/svg" width="474" height="161">
<path d="M0 0 C156.42 0 312.84 0 474 0 C474 53.13 474 106.26 474 161 C317.58 161 161.16 161 0 161 C0 107.87 0 54.74 0 0 Z " fill="#FDFDFC" transform="translate(0,0)"/>
<path d="M0 0 C0 0.66 0 1.32 0 2 C0.598125 2.226875 1.19625 2.45375 1.8125 2.6875 C4.56559434 4.33935661 5.44224619 6.23852733 7 9 C7.66 9.33 8.32 9.66 9 10 C14.29715988 20.86497755 14.54764495 32.57308624 11.25 44.0625 C7.89465179 53.60427147 2.14419709 60.43140732 -6.8125 65.25 C-17.80953288 70.2136413 -29.41158889 72.31854583 -40.96191406 68.09155273 C-52.03124787 63.72647066 -59.30988416 57.16655098 -64.3125 46.3125 C-66.58744012 41.0618998 -67.13843872 36.26723557 -67.125 30.5625 C-67.12886719 28.92474609 -67.12886719 28.92474609 -67.1328125 27.25390625 C-67.00359489 24.08807476 -66.59097317 21.10964455 -66 18 C-65.34 18 -64.68 18 -64 18 C-63.835 16.700625 -63.67 15.40125 -63.5 14.0625 C-61.60889609 5.75468489 -55.3709331 0.68114212 -48.5625 -3.9375 C-33.3154994 -12.96038255 -13.90132405 -10.61824539 0 0 Z " fill="#FCFCFC" transform="translate(94,64)"/>
<path d="M0 0 C42.55 0 42.55 0 51.6875 8.5 C52.450625 9.325 53.21375 10.15 54 11 C54.50789063 11.45117188 55.01578125 11.90234375 55.5390625 12.3671875 C59.69784607 17.01523973 60.5299077 24.74368849 60.28515625 30.77734375 C59.32399413 38.26914166 56.30876872 45.41289697 50.4140625 50.3203125 C46.57255245 53 46.57255245 53 44 53 C44.89301656 54.06486855 45.7895947 55.12675041 46.6875 56.1875 C47.18636719 56.77917969 47.68523437 57.37085938 48.19921875 57.98046875 C49.55787586 59.50416881 50.99314232 60.96003757 52.4609375 62.37890625 C55.02166099 65.02236081 56.94138157 67.66397641 58.9375 70.75 C59.61683594 71.79414062 60.29617187 72.83828125 60.99609375 73.9140625 C61.65738281 74.93242188 62.31867188 75.95078125 63 77 C64.6512536 79.42276955 66.30582883 81.84303867 67.96875 84.2578125 C69 86 69 86 69 88 C69.66 88 70.32 88 71 88 C71.5878125 89.2684375 71.5878125 89.2684375 72.1875 90.5625 C73.57803046 93.19971295 74.93542953 95.37574541 76.6875 97.75 C79 101 79 101 79 103 C73.06 103 67.12 103 61 103 C57 95 57 95 57 93 C56.34 93 55.68 93 55 93 C54.34 91.02 53.68 89.04 53 87 C52.34 87 51.68 87 51 87 C49.95801999 85.28665677 48.9937434 83.5259654 48.0625 81.75 C43.0535548 72.92421765 35.85786748 62.59219588 26 59 C22.3368474 58.40884978 18.70619526 58.13403961 15 58 C15.00222061 58.54901474 15.00444122 59.09802948 15.00672913 59.66368103 C15.02878358 65.35707959 15.04390726 71.0504661 15.05493164 76.74389648 C15.05997298 78.87118014 15.06680591 80.99846031 15.07543945 83.12573242 C15.08751379 86.17627826 15.09323014 89.22677845 15.09765625 92.27734375 C15.10281754 93.23462875 15.10797882 94.19191376 15.11329651 95.1782074 C15.11337204 96.05904495 15.11344757 96.93988251 15.11352539 97.84741211 C15.115746 98.62684677 15.11796661 99.40628143 15.12025452 100.20933533 C15 102 15 102 14 103 C9.38 103 4.76 103 0 103 C0 69.01 0 35.02 0 0 Z " fill="#A9A9AD" transform="translate(139,43)"/>
<path d="M0 0 C43.15190043 0 43.15190043 0 56.17578125 11.94921875 C63.67181805 20.37624085 65.45069795 30.94026112 65.25 41.828125 C64.89797612 46.29442797 63.80781051 49.92513679 62 54 C61.6596875 54.83402344 61.319375 55.66804688 60.96875 56.52734375 C56.81885848 65.85057977 50.82317497 70.73063196 41.39453125 74.37109375 C38.83503928 75.04332574 36.63474825 75.11699593 34 75 C34 75.66 34 76.32 34 77 C22.78 77 11.56 77 0 77 C0 51.59 0 26.18 0 0 Z " fill="#FCFDF9" transform="translate(382,56)"/>
<path d="M0 0 C1.08539063 -0.01546875 2.17078125 -0.0309375 3.2890625 -0.046875 C18.7706199 0.02702265 31.4957672 6.50724955 42.671875 16.9453125 C51.60640983 26.74931549 55.58113451 38.195219 55.4375 51.25 C55.42992676 52.21647461 55.42235352 53.18294922 55.41455078 54.17871094 C55.14993569 65.70974827 52.29495296 76.26667383 45 85.5 C44.34 85.5 43.68 85.5 43 85.5 C42.60941406 86.38558594 42.60941406 86.38558594 42.2109375 87.2890625 C37.13582824 96.55522973 25.11032152 101.4701853 15.5 104.375 C0.07827665 107.72579329 -16.32110926 106.58710005 -30.15234375 98.703125 C-41.94162692 90.6171969 -51.40808761 78.834211 -54.64257812 64.67993164 C-55.30727337 60.62592628 -55.32802874 56.59958665 -55.3125 52.5 C-55.32861328 51.64921875 -55.34472656 50.7984375 -55.36132812 49.921875 C-55.36581183 44.07512406 -54.31007457 39.86701536 -52 34.5 C-51.57288284 33.19086353 -51.15498308 31.87865199 -50.75 30.5625 C-48.83467053 25.4749061 -45.53269904 21.56884671 -42 17.5 C-41.45214844 16.86835937 -40.90429688 16.23671875 -40.33984375 15.5859375 C-29.60563372 4.06505959 -15.38951112 -0.21932795 0 0 Z M-31.5625 26.875 C-35.23667595 31.24043196 -36.28720082 34.88670647 -37 40.5 C-37.66 40.5 -38.32 40.5 -39 40.5 C-40.79701355 50.16619385 -41.02354621 59.41233529 -37 68.5 C-36.58234375 69.51320313 -36.58234375 69.51320313 -36.15625 70.546875 C-32.58476498 78.49035029 -27.06130213 84.95934965 -19 88.5 C-17.79730469 89.056875 -17.79730469 89.056875 -16.5703125 89.625 C-3.58395212 95.0453939 8.42383407 92.64479515 21 87.5 C24.12894443 85.8395479 26.52897729 84.02889209 29 81.5 C29.62261719 80.86449219 30.24523437 80.22898437 30.88671875 79.57421875 C38.72547616 70.58511959 40.71361127 59.84933272 40.3984375 48.17578125 C39.80129085 42.66681073 38.4334834 37.49130537 36 32.5 C35.34 32.17 34.68 31.84 34 31.5 C33.319375 30.2934375 33.319375 30.2934375 32.625 29.0625 C30.92131672 26.37592252 29.91346909 25.60510897 27 24.5 C27 23.84 27 23.18 27 22.5 C8.5742503 8.42586353 -15.60375384 10.36694917 -31.5625 26.875 Z " fill="#A9A9AC" transform="translate(67,41.5)"/>
<path d="M0 0 C59 0 59 0 71 8 C71.680625 8.144375 72.36125 8.28875 73.0625 8.4375 C76.93893154 9.56291561 79.38347918 12.91374902 81.3125 16.3125 C81.539375 16.869375 81.76625 17.42625 82 18 C82.66 18 83.32 18 84 18 C87 22.38461538 87 22.38461538 87 25 C87.66 25 88.32 25 89 25 C89.495 27.97 89.495 27.97 90 31 C90.66 31 91.32 31 92 31 C97.52370974 45.63125496 96.22753988 60.54115061 90.60546875 74.8515625 C89 78 89 78 86 79 C85.71125 79.7425 85.4225 80.485 85.125 81.25 C83.69812769 84.73791009 81.7811951 86.47164081 79 89 C78.13375 89.825 77.2675 90.65 76.375 91.5 C71.69877808 95.34597886 65.10639205 99 59 99 C59 99.66 59 100.32 59 101 C39.70416988 104.85916602 19.67796286 103 0 103 C0 69.01 0 35.02 0 0 Z M15 13 C15 38.41 15 63.82 15 90 C26.22 90 37.44 90 49 90 C49 89.34 49 88.68 49 88 C50.155 87.9175 51.31 87.835 52.5 87.75 C57.27319485 87.13546169 60.92880882 85.51987034 65 83 C65.598125 82.63519531 66.19625 82.27039063 66.8125 81.89453125 C73.44014065 77.08653301 77.60644652 68.22182108 79.6796875 60.453125 C80.8414968 51.55536598 80.31333574 43.34788486 77 35 C76.73316406 34.29101562 76.46632813 33.58203125 76.19140625 32.8515625 C72.63045807 24.59016272 65.74146927 20.06769999 57.98046875 16.04296875 C43.87923144 11.10845976 29.98971723 13 15 13 Z " fill="#A5CB3E" transform="translate(367,43)"/>
<path d="M0 0 C2.20572996 0.73700438 4.41416276 1.46596078 6.625 2.1875 C8.39875 2.785625 10.1725 3.38375 12 4 C12 9.28 12 14.56 12 20 C3.375 17.25 3.375 17.25 0 15 C-10.94411399 10.32186079 -24.4368695 8.62015123 -36 12.1875 C-37.34791954 12.75838357 -38.68160798 13.36388867 -40 14 C-40.82757813 14.3403125 -41.65515625 14.680625 -42.5078125 15.03125 C-50.18047606 18.42096405 -55.45562205 23.34891491 -59 31 C-59.66 31 -60.32 31 -61 31 C-64.38029605 43.01212346 -65.12024613 57.05750011 -59.5625 68.44140625 C-55.39377237 75.26769775 -50.23238404 80.5187613 -43.0625 84.125 C-42.41410156 84.45757812 -41.76570313 84.79015625 -41.09765625 85.1328125 C-30.05836021 89.69654382 -12.84463588 88.37105222 -2 84 C-1.15953125 83.66355469 -0.3190625 83.32710938 0.546875 82.98046875 C3.94250326 81.53678603 6.92134067 80.05243956 10 78 C10.99 78 11.98 78 13 78 C13 83.28 13 88.56 13 94 C1.6106984 100.50817234 -9.49551308 102.35529539 -22.4375 102.375 C-23.45585937 102.37661133 -24.47421875 102.37822266 -25.5234375 102.37988281 C-38.85861978 102.18274641 -52.73734638 97.83728506 -63 89 C-63 88.34 -63 87.68 -63 87 C-63.99 86.67 -64.98 86.34 -66 86 C-67.38671875 84.44140625 -67.38671875 84.44140625 -68.6875 82.5625 C-69.12449219 81.94503906 -69.56148437 81.32757813 -70.01171875 80.69140625 C-71 79 -71 79 -71 77 C-71.66 77 -72.32 77 -73 77 C-73.62726108 75.45925192 -74.2516901 73.91735077 -74.875 72.375 C-75.22304687 71.51648438 -75.57109375 70.65796875 -75.9296875 69.7734375 C-76.28289062 68.85820313 -76.63609375 67.94296875 -77 67 C-77.36480469 66.12730469 -77.72960937 65.25460938 -78.10546875 64.35546875 C-81.89122086 50.15476541 -79.71234744 34.95922355 -72.5078125 22.3984375 C-65.99354719 12.03636781 -55.62398147 3.10446794 -44 -1 C-30.1625734 -4.14412534 -13.36095643 -5.29563613 0 0 Z " fill="#A9A9AC" transform="translate(298,45)"/>
<path d="M0 0 C4.95 0 9.9 0 15 0 C15 33.99 15 67.98 15 103 C10.05 103 5.1 103 0 103 C0 69.01 0 35.02 0 0 Z " fill="#A4CD37" transform="translate(332,43)"/>
<path d="M0 0 C4.95 0 9.9 0 15 0 C15 5 15 5 13.5625 6.75 C8.77594687 13.64263651 10.87293548 25.80426333 10.90234375 33.97265625 C10.90421218 35.50678969 10.90563407 37.04092373 10.90663147 38.57505798 C10.91042324 42.58464243 10.92022445 46.59418982 10.93133545 50.60375977 C10.94162193 54.70653787 10.9461445 58.80932205 10.95117188 62.91210938 C10.96185018 70.94142313 10.97888578 78.97070694 11 87 C11.98395752 87.02505615 12.96791504 87.0501123 13.98168945 87.07592773 C17.63270057 87.1701082 21.28352616 87.2703029 24.93432617 87.37231445 C26.51436015 87.41562305 28.09443969 87.45730106 29.67456055 87.49731445 C31.94594048 87.55511583 34.21709189 87.6187816 36.48828125 87.68359375 C37.19463211 87.70030624 37.90098297 87.71701874 38.6287384 87.73423767 C41.6664824 87.8259747 44.09623058 88.03207686 47 89 C47.33 89.66 47.66 90.32 48 91 C48.99 90.67 49.98 90.34 51 90 C51.495 88.515 51.495 88.515 52 87 C55.0625 85.8125 55.0625 85.8125 58 85 C58.33 85.66 58.66 86.32 59 87 C62.02934491 87.65772428 62.02934491 87.65772428 65 88 C65 88.66 65 89.32 65 90 C65.66 90.33 66.32 90.66 67 91 C66.34 91 65.68 91 65 91 C65 91.66 65 92.32 65 93 C54.20184709 96.16061303 43.916413 96.50798345 32.75 96.625 C30.20833554 96.66154995 27.6668229 96.70202354 25.12530518 96.74765015 C23.55732279 96.77480855 21.98922739 96.79618938 20.42108154 96.81118774 C16.91717627 96.54423054 16.91717627 96.54423054 14 98 C11.83519203 98.0989294 9.66706215 98.129711 7.5 98.125 C6.3140625 98.12757813 5.128125 98.13015625 3.90625 98.1328125 C1 98 1 98 0 97 C-0.09529612 93.98649762 -0.12551904 90.99595894 -0.11352539 87.98217773 C-0.11367142 87.03593536 -0.11381744 86.08969299 -0.1139679 85.11477661 C-0.11326836 81.97102608 -0.10547409 78.82733399 -0.09765625 75.68359375 C-0.09579221 73.51025932 -0.09436824 71.33692448 -0.09336853 69.16358948 C-0.08954221 63.43098805 -0.07971097 57.69841177 -0.06866455 51.96582031 C-0.05845287 46.12109721 -0.05387143 40.27637007 -0.04882812 34.43164062 C-0.0380888 22.954416 -0.02101102 11.47721009 0 0 Z " fill="#A4CD37" transform="translate(369,46)"/>
<path d="M0 0 C3.01125 -0.061875 6.0225 -0.12375 9.125 -0.1875 C10.06230957 -0.21481201 10.99961914 -0.24212402 11.96533203 -0.27026367 C17.06220164 -0.32074385 20.60860891 0.10946409 25 3 C26.375 5.1875 26.375 5.1875 27 7 C27.66 7 28.32 7 29 7 C30.01702117 10.0510635 30.16582083 12.24199061 30.1875 15.4375 C30.20167969 16.38496094 30.21585938 17.33242187 30.23046875 18.30859375 C29.99614518 21.04501644 29.39701383 22.66428123 28 25 C27.34 25 26.68 25 26 25 C26 25.66 26 26.32 26 27 C16.06681459 32.80997637 14.17739382 32 0 32 C0 21.44 0 10.88 0 0 Z " fill="#FAFBFB" transform="translate(154,56)"/>
<path d="M0 0 C1.32 0.33 2.64 0.66 4 1 C4 1.66 4 2.32 4 3 C4.66 3 5.32 3 6 3 C6 3.66 6 4.32 6 5 C6.66 5 7.32 5 8 5 C13.52370974 19.63125496 12.22753988 34.54115061 6.60546875 48.8515625 C5 52 5 52 2 53 C1.72414063 53.80824219 1.44828125 54.61648437 1.1640625 55.44921875 C0 58 0 58 -2.6015625 59.14453125 C-3.59929687 59.36496094 -4.59703125 59.58539063 -5.625 59.8125 C-7.12933594 60.16248047 -7.12933594 60.16248047 -8.6640625 60.51953125 C-9.43492187 60.67808594 -10.20578125 60.83664063 -11 61 C-11.495 59.515 -11.495 59.515 -12 58 C-11.67 57.34 -11.34 56.68 -11 56 C-9.68 56 -8.36 56 -7 56 C-7 54.35 -7 52.7 -7 51 C-7.66 51 -8.32 51 -9 51 C-8.28031337 47.81705604 -7.25157765 44.85025687 -6.0625 41.8125 C-5.72347656 40.93207031 -5.38445312 40.05164063 -5.03515625 39.14453125 C-4 37 -4 37 -2 36 C-2 28.08 -2 20.16 -2 12 C-2.66 12 -3.32 12 -4 12 C-4 11.34 -4 10.68 -4 10 C-4.66 10 -5.32 10 -6 10 C-6.33 7.69 -6.66 5.38 -7 3 C-6.38125 3.495 -5.7625 3.99 -5.125 4.5 C-3.16119096 6.19222773 -3.16119096 6.19222773 -1 6 C-0.67 4.02 -0.34 2.04 0 0 Z " fill="#A4CD37" transform="translate(451,69)"/>
<path d="M0 0 C0.80179687 0.00451172 1.60359375 0.00902344 2.4296875 0.01367188 C4.41149006 0.02546832 6.39325433 0.04340395 8.375 0.0625 C8.29118276 13.84873927 8.19594864 27.63485883 8.08747292 41.42092705 C8.03744355 47.82177421 7.99111423 54.22260432 7.953125 60.62353516 C7.91635595 66.79626098 7.87001916 72.96884645 7.81693649 79.14145279 C7.79834786 81.50103427 7.78325659 83.86064588 7.77165604 86.22027206 C7.7548699 89.51532232 7.72585365 92.81004796 7.69384766 96.10498047 C7.69168747 97.0889682 7.68952728 98.07295593 7.68730164 99.08676147 C7.67613815 99.98141113 7.66497467 100.87606079 7.6534729 101.79782104 C7.64794214 102.57765791 7.64241138 103.35749477 7.63671303 104.16096306 C7.375 106.0625 7.375 106.0625 5.375 108.0625 C3.1328125 108.44140625 3.1328125 108.44140625 0.5 108.625 C-2.6605005 108.85614108 -5.57088748 109.20308694 -8.625 110.0625 C-8.625 109.4025 -8.625 108.7425 -8.625 108.0625 C-9.945 107.4025 -11.265 106.7425 -12.625 106.0625 C-12.67132565 93.1104881 -12.70687043 80.15849589 -12.72862434 67.20641804 C-12.73906473 61.19235115 -12.75322871 55.17834092 -12.77587891 49.16430664 C-12.797598 43.36122772 -12.80956671 37.55820332 -12.81475449 31.7550869 C-12.8184519 29.54029672 -12.82567194 27.32550956 -12.83646011 25.11074257 C-12.85096246 22.01036742 -12.85297845 18.91021802 -12.85205078 15.80981445 C-12.85924133 14.89271698 -12.86643188 13.97561951 -12.87384033 13.0307312 C-12.84771857 4.97101984 -12.84771857 4.97101984 -10.625 1.0625 C-7.31505287 -0.59247356 -3.63377 -0.03834335 0 0 Z M-8.625 3.0625 C-8.625 37.0525 -8.625 71.0425 -8.625 106.0625 C-3.675 106.0625 1.275 106.0625 6.375 106.0625 C6.375 72.0725 6.375 38.0825 6.375 3.0625 C1.425 3.0625 -3.525 3.0625 -8.625 3.0625 Z " fill="#F4FED8" transform="translate(340.625,39.9375)"/>
<path d="M0 0 C59 0 59 0 71 8 C71.680625 8.12375 72.36125 8.2475 73.0625 8.375 C76.37775574 9.44443734 77.92415651 12.28987099 80 15 C79.01 15.33 78.02 15.66 77 16 C77 16.99 77 17.98 77 19 C75.68 18.67 74.36 18.34 73 18 C73.495 20.475 73.495 20.475 74 23 C73.01 23 72.02 23 71 23 C70.67 23.66 70.34 24.32 70 25 C69.50371094 24.60167969 69.00742187 24.20335938 68.49609375 23.79296875 C56.53245517 14.46269274 44.06343244 13.74205275 29.3125 13.375 C28.02666016 13.33632813 26.74082031 13.29765625 25.41601562 13.2578125 C22.27747832 13.1644731 19.13893294 13.07868924 16 13 C16 12.67 16 12.34 16 12 C20.51658714 11.95006325 25.03302226 11.91402998 29.54980469 11.89013672 C31.08205978 11.88016194 32.61429625 11.86657724 34.14648438 11.84912109 C42.60969838 11.75520814 50.76198399 11.74957801 59 14 C59.33 13.01 59.66 12.02 60 11 C61.65 11 63.3 11 65 11 C65.495 12.485 65.495 12.485 66 14 C66.66 13.67 67.32 13.34 68 13 C68.33 12.01 68.66 11.02 69 10 C67.68 9.34 66.36 8.68 65 8 C65 7.34 65 6.68 65 6 C63.845 5.87625 62.69 5.7525 61.5 5.625 C57.98068829 5.19128201 54.65679475 4.47336993 51.25 3.5 C35.53399841 0.0075552 14.64351229 1.34108781 1 1 C1 34.33 1 67.66 1 102 C16.84 102 32.68 102 49 102 C49 102.33 49 102.66 49 103 C32.83 103 16.66 103 0 103 C0 69.01 0 35.02 0 0 Z " fill="#B5D067" transform="translate(367,43)"/>
<path d="M0 0 C4.95 0 9.9 0 15 0 C15 33.99 15 67.98 15 103 C10.05 103 5.1 103 0 103 C0 69.01 0 35.02 0 0 Z M2 2 C1.97687879 14.7603387 1.95908605 27.52067245 1.94818783 40.28102779 C1.94295851 46.20550715 1.93585999 52.12997222 1.92456055 58.05444336 C1.91373339 63.76672571 1.90772353 69.47899428 1.90512276 75.19128609 C1.9032682 77.37588277 1.899647 79.56047865 1.89426994 81.7450695 C1.88706179 84.79352349 1.88600896 87.84191979 1.88647461 90.89038086 C1.88287933 91.80315796 1.87928406 92.71593506 1.87557983 93.65637207 C1.47918342 97.64567455 1.47918342 97.64567455 3 101 C4.68608966 101.07205511 6.37500659 101.08386068 8.0625 101.0625 C8.98160156 101.05347656 9.90070313 101.04445313 10.84765625 101.03515625 C11.55792969 101.02355469 12.26820313 101.01195312 13 101 C13.04626405 88.38732773 13.08183895 75.77467552 13.10362434 63.16193581 C13.11407824 57.30584347 13.12826667 51.44980902 13.15087891 45.59375 C13.1725501 39.94629723 13.18455651 34.29890028 13.18975449 28.65140915 C13.19346056 26.49275203 13.20069719 24.3340981 13.21146011 22.17546463 C13.22589897 19.1606909 13.22798114 16.14615019 13.22705078 13.13134766 C13.23424133 12.23151657 13.24143188 11.33168549 13.24884033 10.40458679 C13.46343518 5.71983938 13.46343518 5.71983938 11 2 C8.78927023 1.75746187 8.78927023 1.75746187 6.375 1.875 C5.14910156 1.90207031 5.14910156 1.90207031 3.8984375 1.9296875 C2.95871094 1.96449219 2.95871094 1.96449219 2 2 Z " fill="#B1CB69" transform="translate(332,43)"/>
<path d="M0 0 C0.33 0 0.66 0 1 0 C1 33.99 1 67.98 1 103 C0.67 102.34 0.34 101.68 0 101 C-0.66 101 -1.32 101 -2 101 C-2.33 68.66 -2.66 36.32 -3 3 C-2.34 3 -1.68 3 -1 3 C-0.67 2.01 -0.34 1.02 0 0 Z " fill="#FCFEE7" transform="translate(366,43)"/>
<path d="M0 0 C3.2076216 0.6346631 4.98047141 2.08447548 7.19140625 4.43359375 C8.80817695 7.66713514 8.66772554 9.8611991 8.19140625 13.43359375 C5.27510554 17.40564724 2.34348654 19.23832591 -2.49609375 20.05859375 C-6.30647214 19.33965443 -7.52144512 18.51244768 -9.80859375 15.43359375 C-11.38123209 10.71567873 -11.58399336 7.01810599 -9.37109375 2.49609375 C-6.11497904 -0.1246815 -4.08928451 -0.22231695 0 0 Z " fill="#A5CC43" transform="translate(340.80859375,11.56640625)"/>
<path d="M0 0 C0.99 0.33 1.98 0.66 3 1 C5.2825699 1.15145099 7.56887706 1.24886979 9.85546875 1.31640625 C10.51710526 1.33718735 11.17874176 1.35796844 11.86042786 1.37937927 C13.96934852 1.44464727 16.07839135 1.50365344 18.1875 1.5625 C19.61915315 1.60570689 21.05079404 1.64932188 22.48242188 1.69335938 C25.98815154 1.80030506 29.49401786 1.90163641 33 2 C33 2.33 33 2.66 33 3 C17.16 3.495 17.16 3.495 1 4 C0.67 29.41 0.34 54.82 0 81 C-0.66 81 -1.32 81 -2 81 C-2.33 81.99 -2.66 82.98 -3 84 C-3.02324295 74.76780649 -3.04097576 65.53562317 -3.05181217 56.30340672 C-3.05701495 52.01581852 -3.06406494 47.72825045 -3.07543945 43.44067383 C-3.08636135 39.29744712 -3.09229643 35.15423968 -3.09487724 31.01099968 C-3.0967148 29.43588902 -3.1003029 27.86077934 -3.10573006 26.28567696 C-3.1768836 4.7653254 -3.1768836 4.7653254 0 0 Z " fill="#ABCA4C" transform="translate(382,52)"/>
<path d="M0 0 C0.33 0 0.66 0 1 0 C1.33 32.34 1.66 64.68 2 98 C6.29 98 10.58 98 15 98 C15.495 97.505 15.495 97.505 16 97 C18.63191103 96.86432071 21.24118673 96.78933803 23.875 96.75390625 C25.51693162 96.72092804 27.15885857 96.68771716 28.80078125 96.65429688 C31.3897736 96.60716657 33.97875278 96.56282523 36.56787109 96.52319336 C39.06629857 96.48305122 41.56430926 96.43157086 44.0625 96.37890625 C45.20211182 96.36628502 45.20211182 96.36628502 46.36474609 96.35340881 C51.10999121 96.24623741 55.37244747 95.58044356 59.95483398 94.32652283 C62.26301549 93.95800802 63.79196156 94.29223125 66 95 C63.09399739 96.25664978 61.20395416 97 58 97 C58 97.66 58 98.32 58 99 C52.03678981 100.30756278 46.10908045 100.12609197 40.0390625 100.09765625 C39.02287842 100.09664917 38.00669434 100.09564209 36.9597168 100.09460449 C33.18146631 100.08939175 29.40323196 100.07543053 25.625 100.0625 C17.16875 100.041875 8.7125 100.02125 0 100 C0 67 0 34 0 0 Z " fill="#A7C450" transform="translate(368,45)"/>
<path d="M0 0 C0.33 0 0.66 0 1 0 C1.33 22.11 1.66 44.22 2 67 C11.9 67 21.8 67 32 67 C32 66.34 32 65.68 32 65 C35.63 64.67 39.26 64.34 43 64 C41 66 41 66 33 68 C22.11 68 11.22 68 0 68 C0 45.56 0 23.12 0 0 Z " fill="#F9FEEA" transform="translate(383,64)"/>
<path d="M0 0 C2.8125 -0.5 2.8125 -0.5 6 0 C9.10164769 2.55024365 10.72566416 4.17699247 12 8 C11.01 8.99 10.02 9.98 9 11 C8.67 10.01 8.34 9.02 8 8 C6.35 8 4.7 8 3 8 C3.33 9.65 3.66 11.3 4 13 C2.68 13.33 1.36 13.66 0 14 C-1.99825961 11.00261059 -2.27550398 10.36652492 -2.25 7 C-2.25515625 6.319375 -2.2603125 5.63875 -2.265625 4.9375 C-2 3 -2 3 0 0 Z " fill="#A3CF33" transform="translate(336,14)"/>
<path d="M0 0 C2 2 2 2 2.1875 4.8125 C2 8 2 8 1.375 10.375 C0.82120548 14.25156164 1.91976831 17.25096062 3 21 C-1.95 22.485 -1.95 22.485 -7 24 C-7.33 23.01 -7.66 22.02 -8 21 C-7.67 20.34 -7.34 19.68 -7 19 C-5.68 19 -4.36 19 -3 19 C-3 17.35 -3 15.7 -3 14 C-3.66 14 -4.32 14 -5 14 C-4.28269264 10.76834156 -3.18684926 7.81292078 -1.9375 4.75 C-1.57527344 3.85796875 -1.21304687 2.9659375 -0.83984375 2.046875 C-0.56269531 1.37140625 -0.28554688 0.6959375 0 0 Z " fill="#A4CD36" transform="translate(447,106)"/>
<path d="M0 0 C0.495 0.99 0.495 0.99 1 2 C-3.625 5 -3.625 5 -7 5 C-7.33 5.99 -7.66 6.98 -8 8 C-10.31 8.33 -12.62 8.66 -15 9 C-15 9.66 -15 10.32 -15 11 C-17.31 11 -19.62 11 -22 11 C-22 11.66 -22 12.32 -22 13 C-39.82 13 -57.64 13 -76 13 C-76 12.67 -76 12.34 -76 12 C-75.11249557 11.9845388 -75.11249557 11.9845388 -74.20706177 11.96876526 C-68.00936405 11.85998746 -61.81179106 11.74545444 -55.61425781 11.62768555 C-53.30601631 11.58456349 -50.99774756 11.54287402 -48.68945312 11.50268555 C-45.35798963 11.44442809 -42.02666046 11.38089797 -38.6953125 11.31640625 C-37.67511017 11.29969376 -36.65490784 11.28298126 -35.60379028 11.26576233 C-29.35764391 11.13867301 -23.20550199 10.72532741 -17 10 C-17 9.34 -17 8.68 -17 8 C-16.443125 7.75765625 -15.88625 7.5153125 -15.3125 7.265625 C-10.12664872 4.98805518 -5.0474879 2.56963021 0 0 Z " fill="#F4FECE" transform="translate(443,134)"/>
<path d="M0 0 C6.54282986 -0.10271209 13.08544663 -0.17200588 19.62890625 -0.21972656 C21.84773527 -0.23965232 24.06651311 -0.26680297 26.28515625 -0.30175781 C57.84265283 -0.78594323 57.84265283 -0.78594323 70 8 C69.34 8.33 68.68 8.66 68 9 C66.15271886 8.3158218 64.30786579 7.62429953 62.4765625 6.8984375 C52.06071357 3.11981723 41.46285078 1.90399373 30.46875 1.68359375 C29.15396667 1.6524221 29.15396667 1.6524221 27.81262207 1.62062073 C25.04181958 1.55579117 22.27093099 1.49655342 19.5 1.4375 C17.60936648 1.39425127 15.71874132 1.35063507 13.828125 1.30664062 C9.21883584 1.20017915 4.60946101 1.09872881 0 1 C0 0.67 0 0.34 0 0 Z " fill="#B0CC67" transform="translate(368,43)"/>
<path d="M0 0 C7.44133772 -0.04647641 14.8826438 -0.08194662 22.32409763 -0.10362434 C25.78000096 -0.11403205 29.23580449 -0.12813566 32.69165039 -0.15087891 C36.67072325 -0.1768997 40.64975663 -0.18649772 44.62890625 -0.1953125 C45.86145645 -0.20563507 47.09400665 -0.21595764 48.36390686 -0.22659302 C54.29786881 -0.22736532 59.41222779 -0.07166924 65 2 C65 2.99 65 3.98 65 5 C63.64509704 4.88325099 62.29109304 4.75606577 60.9375 4.625 C59.80634766 4.52058594 59.80634766 4.52058594 58.65234375 4.4140625 C56 4 56 4 53.046875 3 C47.9708267 1.53286628 42.84586668 1.64447181 37.59765625 1.5859375 C35.9811039 1.55688828 35.9811039 1.55688828 34.33189392 1.5272522 C30.9088417 1.46774245 27.48575534 1.42118544 24.0625 1.375 C21.73370975 1.33679392 19.40493324 1.29774067 17.07617188 1.2578125 C11.38423701 1.16206453 5.69221859 1.07693417 0 1 C0 0.67 0 0.34 0 0 Z " fill="#EDFCC0" transform="translate(367,42)"/>
<path d="M0 0 C7.99651568 -0.6271777 7.99651568 -0.6271777 12 1.875 C14.51385837 4.54597452 14.93643952 5.58685686 15.5 9.25 C14.97211827 13.20911297 14.69197481 13.84324072 11.9375 16.4375 C9.08815665 18.60346425 7.88193626 19.01741924 4.1875 19.5625 C3.135625 19.376875 2.08375 19.19125 1 19 C0.34 18.01 -0.32 17.02 -1 16 C1.97 16 4.94 16 8 16 C8.33 14.68 8.66 13.36 9 12 C10.32 12 11.64 12 13 12 C12.70197895 8.52308771 11.9882377 6.98487704 9.8125 4.1875 C7.17297552 1.75945564 7.17297552 1.75945564 3.875 1.5625 C0.80919458 1.82155068 0.80919458 1.82155068 -2 4 C-1.34 2.68 -0.68 1.36 0 0 Z " fill="#A9C854" transform="translate(334,12)"/>
<path d="M0 0 C2 3 2 3 2 6 C-1.875 4.125 -1.875 4.125 -3 3 C-8.88312852 2.28346669 -8.88312852 2.28346669 -14.0625 4.5625 C-15.76929551 9.00016834 -15.4361204 13.51212376 -14 18 C-14.66 18 -15.32 18 -16 18 C-16 17.34 -16 16.68 -16 16 C-16.66 16 -17.32 16 -18 16 C-18 12.7 -18 9.4 -18 6 C-17.34 6 -16.68 6 -16 6 C-15.67 4.35 -15.34 2.7 -15 1 C-13.25215171 0.63536268 -11.50159498 0.2836922 -9.75 -0.0625 C-8.28820312 -0.35833984 -8.28820312 -0.35833984 -6.796875 -0.66015625 C-4.08190278 -0.99004813 -2.5035931 -1.05793425 0 0 Z " fill="#F1F9D9" transform="translate(346,10)"/>
<path d="M0 0 C4.17018511 6.25527766 4.34177963 13.20351692 4.3125 20.5 C4.32861328 21.30308594 4.34472656 22.10617188 4.36132812 22.93359375 C4.365926 28.60737407 3.26181208 32.79604185 1 38 C0.67 38 0.34 38 0 38 C0.16749756 36.9989624 0.33499512 35.9979248 0.50756836 34.96655273 C0.99228149 31.06217283 1.02557999 27.46275317 0.87890625 23.53515625 C0.85529526 22.85698349 0.83168427 22.17881073 0.80735779 21.48008728 C0.73155017 19.34063309 0.647177 17.2016196 0.5625 15.0625 C0.50919595 13.60093212 0.45645633 12.13934355 0.40429688 10.67773438 C0.27604979 7.11822702 0.14012555 3.55906183 0 0 Z " fill="#B2CB5A" transform="translate(458,74)"/>
<path d="M0 0 C1.98 0 3.96 0 6 0 C4.24618714 2.24065298 3.37582494 2.94547724 0.51325989 3.36076355 C-0.96899834 3.3507708 -0.96899834 3.3507708 -2.48120117 3.34057617 C-4.16260445 3.34023628 -4.16260445 3.34023628 -5.87797546 3.33988953 C-7.08742325 3.32440567 -8.29687103 3.30892181 -9.54296875 3.29296875 C-10.78170242 3.28872391 -12.0204361 3.28447906 -13.29670715 3.28010559 C-16.58649001 3.26614733 -19.87583203 3.23920213 -23.16546631 3.20599365 C-26.52366746 3.17527933 -29.88193318 3.16159739 -33.24023438 3.14648438 C-39.82699574 3.11337359 -46.4134618 3.06314257 -53 3 C-53 2.67 -53 2.34 -53 2 C-35.51 2 -18.02 2 0 2 C0 1.34 0 0.68 0 0 Z " fill="#FCFEEC" transform="translate(421,145)"/>
<path d="M0 0 C4.34464536 0.60825035 8.67551867 1.26167392 13 2 C13 2.33 13 2.66 13 3 C11.02 3.66 9.04 4.32 7 5 C7 5.33 7 5.66 7 6 C4.03 6 1.06 6 -2 6 C-2.33 5.34 -2.66 4.68 -3 4 C-5.8159849 3.53101037 -5.8159849 3.53101037 -9.0625 3.375 C-10.71958984 3.26285156 -10.71958984 3.26285156 -12.41015625 3.1484375 C-13.26480469 3.09945312 -14.11945313 3.05046875 -15 3 C-15 2.67 -15 2.34 -15 2 C-10.05 2 -5.1 2 0 2 C0 1.34 0 0.68 0 0 Z " fill="#B0AFB4" transform="translate(283,42)"/>
<path d="M0 0 C2.48660455 0.3878678 3.72345219 0.70962479 5.484375 2.55859375 C5.90203125 3.17863281 6.3196875 3.79867187 6.75 4.4375 C7.17796875 5.05496094 7.6059375 5.67242187 8.046875 6.30859375 C9 8 9 8 9 10 C3.06 10 -2.88 10 -9 10 C-9 9.67 -9 9.34 -9 9 C-5.7 8.67 -2.4 8.34 1 8 C0.67 7.01 0.34 6.02 0 5 C0.66 5 1.32 5 2 5 C1.34 3.35 0.68 1.7 0 0 Z " fill="#B2B2B2" transform="translate(209,136)"/>
<path d="M0 0 C4.68326696 -0.32673956 7.24770505 0.13640649 11 3 C12.36639342 4.6396721 13.70513179 6.30327614 15 8 C15.66 8.33 16.32 8.66 17 9 C17 9.66 17 10.32 17 11 C17.66 11 18.32 11 19 11 C19 12.65 19 14.3 19 16 C18.34 15.67 17.68 15.34 17 15 C17 14.34 17 13.68 17 13 C16.34 13 15.68 13 15 13 C10.37037037 8.83333333 10.37037037 8.83333333 9 5.75 C8.67 5.1725 8.34 4.595 8 4 C6.34385343 3.61781233 4.67542976 3.28604898 3 3 C1.1875 1.4375 1.1875 1.4375 0 0 Z " fill="#F0F9CF" transform="translate(434,48)"/>
<path d="M0 0 C4.51658714 -0.04993675 9.03302226 -0.08597002 13.54980469 -0.10986328 C15.08205978 -0.11983806 16.61429625 -0.13342276 18.14648438 -0.15087891 C26.60969838 -0.24479186 34.76198399 -0.25042199 43 2 C43 2.66 43 3.32 43 4 C41.4372038 3.85737588 39.87477304 3.71074489 38.3125 3.5625 C37.44238281 3.48128906 36.57226562 3.40007813 35.67578125 3.31640625 C33 3 33 3 30.74609375 2.5 C27.60166803 1.92747298 24.58128534 1.78570318 21.38671875 1.68359375 C20.13955078 1.64169922 18.89238281 1.59980469 17.60742188 1.55664062 C16.31384766 1.51732422 15.02027344 1.47800781 13.6875 1.4375 C12.37458984 1.39431641 11.06167969 1.35113281 9.70898438 1.30664062 C6.47275712 1.20072773 3.23645542 1.09865115 0 1 C0 0.67 0 0.34 0 0 Z " fill="#ADC764" transform="translate(383,55)"/>
<path d="M0 0 C0.33 0 0.66 0 1 0 C1.33200557 7.95583721 1.26512063 14.67624336 -2 22 C-2.37511719 22.88042969 -2.75023437 23.76085937 -3.13671875 24.66796875 C-6.93641823 32.97456729 -6.93641823 32.97456729 -12 35 C-12 33.68 -12 32.36 -12 31 C-10.68 31 -9.36 31 -8 31 C-7.8453125 29.3603125 -7.8453125 29.3603125 -7.6875 27.6875 C-6.97709268 23.87713346 -6.70753305 23.38262908 -4 21 C-1.85773543 16.69103438 -1.38916694 12.40350664 -0.875 7.6875 C-0.78863281 6.94693359 -0.70226562 6.20636719 -0.61328125 5.44335938 C-0.40265295 3.62961565 -0.20047014 1.81489457 0 0 Z " fill="#EAF8C0" transform="translate(446,88)"/>
<path d="M0 0 C0.33 0 0.66 0 1 0 C1.45205756 11.18842453 1.17497101 20.45074289 -3 31 C-3.99 31 -4.98 31 -6 31 C-5.54464901 29.43662827 -5.08557224 27.87434151 -4.625 26.3125 C-4.36976563 25.44238281 -4.11453125 24.57226562 -3.8515625 23.67578125 C-3 21 -3 21 -1.9375 18.6875 C-0.66134585 15.02919143 -0.54010797 11.53657945 -0.375 7.6875 C-0.31699219 6.57665039 -0.31699219 6.57665039 -0.2578125 5.44335938 C-0.16418295 3.62928691 -0.08103149 1.81467884 0 0 Z " fill="#EDF8C9" transform="translate(462,88)"/>
<path d="M0 0 C1 2 1 2 0.51171875 3.83984375 C0.10373047 4.87818359 0.10373047 4.87818359 -0.3125 5.9375 C-0.70888672 6.97197266 -0.70888672 6.97197266 -1.11328125 8.02734375 C-2 10 -2 10 -4 13 C-5.32 13 -6.64 13 -8 13 C-8.33 13.66 -8.66 14.32 -9 15 C-10.98 15 -12.96 15 -15 15 C-13 13 -13 13 -10.625 11.625 C-7.92544293 10.09245077 -7.92544293 10.09245077 -5.8125 7.8125 C-4.9153125 6.9153125 -4.9153125 6.9153125 -4 6 C-3.34 6 -2.68 6 -2 6 C-1.34 4.02 -0.68 2.04 0 0 Z " fill="#AFCE53" transform="translate(441,114)"/>
<path d="M0 0 C0.66 0 1.32 0 2 0 C1.67 2.64 1.34 5.28 1 8 C2.32 8 3.64 8 5 8 C5 7.34 5 6.68 5 6 C5.66 6 6.32 6 7 6 C6.67 6.99 6.34 7.98 6 9 C5.34 9 4.68 9 4 9 C3.34 10.65 2.68 12.3 2 14 C-1.54583971 10.29999334 -1.76051177 6.94942337 -2 2 C-1.34 1.34 -0.68 0.68 0 0 Z " fill="#ADCD50" transform="translate(449,113)"/>
<path d="M0 0 C3 3.625 3 3.625 3 7 C2.236875 6.814375 1.47375 6.62875 0.6875 6.4375 C-2.08967375 5.77180827 -2.08967375 5.77180827 -5 7 C-5.309375 7.825 -5.61875 8.65 -5.9375 9.5 C-6.4634375 10.7375 -6.4634375 10.7375 -7 12 C-9.06640625 12.65625 -9.06640625 12.65625 -11 13 C-10.21654285 11.82780457 -9.42297164 10.66236332 -8.625 9.5 C-8.18414062 8.8503125 -7.74328125 8.200625 -7.2890625 7.53125 C-6.86367188 7.0259375 -6.43828125 6.520625 -6 6 C-5.34 6 -4.68 6 -4 6 C-3.566875 4.7934375 -3.566875 4.7934375 -3.125 3.5625 C-2 1 -2 1 0 0 Z " fill="#F7FAE1" transform="translate(455,121)"/>
<path d="M0 0 C5.77807024 -0.2358396 10.51324804 0.13216954 16 2 C16 2.99 16 3.98 16 5 C10.43109483 4.52013969 5.32932432 3.70084819 0 2 C0 1.34 0 0.68 0 0 Z " fill="#EEF7CB" transform="translate(416,42)"/>
<path d="M0 0 C1.485 0.99 1.485 0.99 3 2 C5.28648848 2.24107326 5.28648848 2.24107326 7.6875 2.125 C8.49574219 2.10695313 9.30398438 2.08890625 10.13671875 2.0703125 C10.75160156 2.04710937 11.36648438 2.02390625 12 2 C12 2.99 12 3.98 12 5 C7.05 6.485 7.05 6.485 2 8 C0.74335022 5.09399739 0 3.20395416 0 0 Z " fill="#FDFEED" transform="translate(332,28)"/>
<path d="M0 0 C7.99651568 -0.6271777 7.99651568 -0.6271777 12 1.875 C15.44469702 5.53499059 15.09129682 8.0699718 15 13 C14.67 13 14.34 13 14 13 C13.773125 12.113125 13.54625 11.22625 13.3125 10.3125 C11.77945273 6.44338069 10.2882981 4.54095762 7 2 C2.85775694 1.42008597 1.51824511 1.65450326 -2 4 C-1.34 2.68 -0.68 1.36 0 0 Z " fill="#B8CF75" transform="translate(334,12)"/>
<path d="M0 0 C0.99 0.495 0.99 0.495 2 1 C2 1.66 2 2.32 2 3 C2.66 3 3.32 3 4 3 C7 7.38461538 7 7.38461538 7 10 C7.66 10 8.32 10 9 10 C8.67 11.32 8.34 12.64 8 14 C7.67 13.34 7.34 12.68 7 12 C4.97536745 11.34786708 4.97536745 11.34786708 3 11 C3 9.35 3 7.7 3 6 C2.01 5.67 1.02 5.34 0 5 C0 3.35 0 1.7 0 0 Z " fill="#ACC94E" transform="translate(447,58)"/>
<path d="M0 0 C1.32 0.33 2.64 0.66 4 1 C3.505 1.515625 3.01 2.03125 2.5 2.5625 C0.13480778 6.40593736 0.61448544 10.12061652 1.5 14.4375 C1.665 14.953125 1.83 15.46875 2 16 C1.34 16 0.68 16 0 16 C0 15.34 0 14.68 0 14 C-0.66 14 -1.32 14 -2 14 C-2 10.7 -2 7.4 -2 4 C-1.34 4 -0.68 4 0 4 C0 2.68 0 1.36 0 0 Z " fill="#EFF8C6" transform="translate(330,12)"/>
<path d="M0 0 C1.98 0.495 1.98 0.495 4 1 C4 2.65 4 4.3 4 6 C2.35 6.33 0.7 6.66 -1 7 C-0.67 4.69 -0.34 2.38 0 0 Z M-5 5 C-3.68 5.99 -2.36 6.98 -1 8 C-1.99 8.33 -2.98 8.66 -4 9 C-4.33 7.68 -4.66 6.36 -5 5 Z " fill="#A7D02D" transform="translate(451,69)"/>
<path d="M0 0 C-5.96583144 7.66742597 -5.96583144 7.66742597 -11 9 C-11 8.01 -11 7.02 -11 6 C-9.68 6 -8.36 6 -7 6 C-6.9175 5.21625 -6.835 4.4325 -6.75 3.625 C-6 1 -6 1 -4.0625 -0.375 C-2 -1 -2 -1 0 0 Z " fill="#AFCB5C" transform="translate(449,128)"/>
<path d="M0 0 C4.95 0 9.9 0 15 0 C14.67 0.66 14.34 1.32 14 2 C11.05859375 2.4140625 11.05859375 2.4140625 7.4375 2.625 C6.23996094 2.69976562 5.04242188 2.77453125 3.80859375 2.8515625 C2.88175781 2.90054688 1.95492188 2.94953125 1 3 C0.67 2.01 0.34 1.02 0 0 Z " fill="#F7FDDB" transform="translate(332,146)"/>
<path d="M0 0 C0.33 0.66 0.66 1.32 1 2 C-3.625 5 -3.625 5 -7 5 C-7.33 5.99 -7.66 6.98 -8 8 C-12.455 8.495 -12.455 8.495 -17 9 C-13.73285958 6.82190638 -10.3249824 5.10834136 -6.8125 3.375 C-5.83120117 2.88773438 -5.83120117 2.88773438 -4.83007812 2.390625 C-3.22095188 1.5919346 -1.61059545 0.79572351 0 0 Z " fill="#E6F1B7" transform="translate(443,134)"/>
<path d="M0 0 C4.42857143 5.14285714 4.42857143 5.14285714 5 9 C4.01 9.495 4.01 9.495 3 10 C3 9.34 3 8.68 3 8 C2.34 8 1.68 8 1 8 C1 7.34 1 6.68 1 6 C0.34 6 -0.32 6 -1 6 C-0.67 4.02 -0.34 2.04 0 0 Z " fill="#B0AFB5" transform="translate(114,66)"/>
<path d="M0 0 C0.66 0 1.32 0 2 0 C2 3.96 2 7.92 2 12 C0 11 0 11 -1 8 C-1.125 4.375 -1.125 4.375 -1 1 C-0.67 0.67 -0.34 0.34 0 0 Z " fill="#AAC959" transform="translate(331,16)"/>
<path d="M0 0 C0.66 0.33 1.32 0.66 2 1 C1.67 1.66 1.34 2.32 1 3 C0.93003986 4.70702735 0.91559846 6.41668003 0.9375 8.125 C0.95103516 9.49011719 0.95103516 9.49011719 0.96484375 10.8828125 C0.97644531 11.58148438 0.98804688 12.28015625 1 13 C0.01 13 -0.98 13 -2 13 C-2.33 9.37 -2.66 5.74 -3 2 C-2.01 1.34 -1.02 0.68 0 0 Z " fill="#B0B0B2" transform="translate(308,123)"/>
<path d="M0 0 C-3.27345993 3.27345993 -7.7972852 3.88053072 -12.3046875 4.125 C-14.20358219 4.125 -16.10231518 4.06777446 -18 4 C-18 3.67 -18 3.34 -18 3 C-15.69 3 -13.38 3 -11 3 C-11 2.34 -11 1.68 -11 1 C-7.26562152 0.12132271 -3.83225427 -0.08912219 0 0 Z " fill="#F1FBD0" transform="translate(426,128)"/>
<path d="M0 0 C0.99 0.33 1.98 0.66 3 1 C3 1.99 3 2.98 3 4 C3.62599617 5.68236471 4.28752268 7.3523962 5 9 C-0.75 7.25 -0.75 7.25 -3 5 C-2.34 5 -1.68 5 -1 5 C-0.67 3.35 -0.34 1.7 0 0 Z " fill="#ABCD51" transform="translate(427,54)"/>
<path d="M0 0 C3.96 1.32 7.92 2.64 12 4 C8.87110801 4.782223 6.8599909 5.11433318 3.75 5.0625 C1.89375 5.0315625 1.89375 5.0315625 0 5 C-0.5625 3.0625 -0.5625 3.0625 -1 1 C-0.67 0.67 -0.34 0.34 0 0 Z " fill="#B3B4B5" transform="translate(43,127)"/>
<path d="M0 0 C4.99911924 0.47610659 7.97832683 2.03162219 12 5 C10 6 10 6 7.6171875 5.22265625 C6.71226562 4.83980469 5.80734375 4.45695312 4.875 4.0625 C3.50988281 3.49208984 3.50988281 3.49208984 2.1171875 2.91015625 C1.41851562 2.60980469 0.71984375 2.30945312 0 2 C0 1.34 0 0.68 0 0 Z " fill="#B0C963" transform="translate(426,46)"/>
<path d="M0 0 C-1.70625501 2.78388975 -2.47626739 3.85384206 -5.6875 4.75 C-6.8321875 4.87375 -6.8321875 4.87375 -8 5 C-8 4.01 -8 3.02 -8 2 C-4.77208445 -0.1519437 -3.71599191 -0.20086443 0 0 Z " fill="#EFF6CD" transform="translate(434,123)"/>
<path d="M0 0 C0.66 0 1.32 0 2 0 C2.33 1.98 2.66 3.96 3 6 C2.34 5.67 1.68 5.34 1 5 C0.01 6.485 0.01 6.485 -1 8 C-1.66 8 -2.32 8 -3 8 C-3 7.01 -3 6.02 -3 5 C-2.34 4.67 -1.68 4.34 -1 4 C-0.34786708 1.97536745 -0.34786708 1.97536745 0 0 Z " fill="#A2C747" transform="translate(455,72)"/>
<path d="M0 0 C0.33 0.99 0.66 1.98 1 3 C-0.625 5 -0.625 5 -3 7 C-6.25 7.25 -6.25 7.25 -9 7 C-6.83929536 4.83929536 -4.61161063 3.56696638 -2 2 C-1.34 1.34 -0.68 0.68 0 0 Z " fill="#ACC661" transform="translate(435,122)"/>
<path d="M0 0 C2.625 0.9375 2.625 0.9375 5 2 C3.68 3.32 2.36 4.64 1 6 C0.01 5.34 -0.98 4.68 -2 4 C-1.34 4 -0.68 4 0 4 C0 3.34 0 2.68 0 2 C-0.66 1.67 -1.32 1.34 -2 1 C-1.34 0.67 -0.68 0.34 0 0 Z " fill="#F6F6F6" transform="translate(91,120)"/>
<path d="M0 0 C3.465 1.98 3.465 1.98 7 4 C6.67 4.99 6.34 5.98 6 7 C5.34 7 4.68 7 4 7 C4 6.34 4 5.68 4 5 C3.01 4.67 2.02 4.34 1 4 C0.3125 1.9375 0.3125 1.9375 0 0 Z " fill="#B1B3B2" transform="translate(95,48)"/>
<path d="M0 0 C0.99 0 1.98 0 3 0 C3.66 2.64 4.32 5.28 5 8 C2.69 6.35 0.38 4.7 -2 3 C-1.01 2.67 -0.02 2.34 1 2 C0.67 1.34 0.34 0.68 0 0 Z " fill="#B5B4B8" transform="translate(170,100)"/>
<path d="M0 0 C0.66 0.33 1.32 0.66 2 1 C0.625 3 0.625 3 -1 5 C-1.66 5 -2.32 5 -3 5 C-3 5.99 -3 6.98 -3 8 C-3.99 7.67 -4.98 7.34 -6 7 C-4.77065985 3.31197956 -3.06140622 2.27643027 0 0 Z " fill="#B2B2B2" transform="translate(238,53)"/>
<path d="M0 0 C0.33 0.99 0.66 1.98 1 3 C0.34 3 -0.32 3 -1 3 C-1.2475 3.804375 -1.495 4.60875 -1.75 5.4375 C-2.1625 6.283125 -2.575 7.12875 -3 8 C-5.078125 8.66015625 -5.078125 8.66015625 -7 9 C-6.21654285 7.82780457 -5.42297164 6.66236332 -4.625 5.5 C-4.18414062 4.8503125 -3.74328125 4.200625 -3.2890625 3.53125 C-2.65097656 2.77328125 -2.65097656 2.77328125 -2 2 C-1.34 2 -0.68 2 0 2 C0 1.34 0 0.68 0 0 Z " fill="#E9F5CC" transform="translate(451,125)"/>
<path d="M0 0 C0.66 0.33 1.32 0.66 2 1 C1.01 2.32 0.02 3.64 -1 5 C-1.99 4.67 -2.98 4.34 -4 4 C-2.68 2.68 -1.36 1.36 0 0 Z M-6 5 C-5.34 5.33 -4.68 5.66 -4 6 C-5.98 6.99 -5.98 6.99 -8 8 C-7.34 7.01 -6.68 6.02 -6 5 Z " fill="#B2B3B4" transform="translate(99,119)"/>
<path d="M0 0 C1.485 0.99 1.485 0.99 3 2 C5.28648848 2.24107326 5.28648848 2.24107326 7.6875 2.125 C8.49574219 2.10695313 9.30398438 2.08890625 10.13671875 2.0703125 C10.75160156 2.04710937 11.36648438 2.02390625 12 2 C11.67 2.66 11.34 3.32 11 4 C3.6375 5.425 3.6375 5.425 0 3 C0 2.01 0 1.02 0 0 Z " fill="#ECF7C8" transform="translate(332,28)"/>
<path d="M0 0 C2.97 1.98 2.97 1.98 6 4 C5.67 4.66 5.34 5.32 5 6 C3.68 5.67 2.36 5.34 1 5 C0.67 3.35 0.34 1.7 0 0 Z " fill="#A2CE26" transform="translate(334,22)"/>
<path d="M0 0 C3.2542015 2.83430453 4.5206753 4.68607774 5 9 C4.01 8.67 3.02 8.34 2 8 C0.5522078 5.10441559 0 3.25811062 0 0 Z " fill="#EDF8C7" transform="translate(438,69)"/>
<path d="M0 0 C0.66 0 1.32 0 2 0 C2 0.66 2 1.32 2 2 C2.66 2.33 3.32 2.66 4 3 C1.625 4.5625 1.625 4.5625 -1 6 C-1.66 5.67 -2.32 5.34 -3 5 C-2.01 4.67 -1.02 4.34 0 4 C0 2.68 0 1.36 0 0 Z " fill="#BEBDC1" transform="translate(304,137)"/>
<path d="M0 0 C0.33 0 0.66 0 1 0 C0.67 2.64 0.34 5.28 0 8 C-0.99 8 -1.98 8 -3 8 C-1.125 2.25 -1.125 2.25 0 0 Z " fill="#ADCA66" transform="translate(445,106)"/>
<path d="M0 0 C2 2 2 2 2 5 C1.01 5 0.02 5 -1 5 C-1 5.66 -1 6.32 -1 7 C-1.66 7 -2.32 7 -3 7 C-1.125 1.125 -1.125 1.125 0 0 Z " fill="#AFB0B2" transform="translate(19,67)"/>
<path d="M0 0 C3.465 1.485 3.465 1.485 7 3 C7 3.33 7 3.66 7 4 C4.125 4.125 4.125 4.125 1 4 C0.34 3.34 -0.32 2.68 -1 2 C-0.67 1.34 -0.34 0.68 0 0 Z " fill="#EDF8CF" transform="translate(425,60)"/>
<path d="M0 0 C0.99 0.495 0.99 0.495 2 1 C2 1.66 2 2.32 2 3 C2.66 3 3.32 3 4 3 C4.33 3.99 4.66 4.98 5 6 C3.35 5.67 1.7 5.34 0 5 C0 3.35 0 1.7 0 0 Z " fill="#AFC75A" transform="translate(447,58)"/>
<path d="M0 0 C0.66 0.33 1.32 0.66 2 1 C1.67 2.32 1.34 3.64 1 5 C-0.65 5 -2.3 5 -4 5 C-4 4.34 -4 3.68 -4 3 C-2 1.375 -2 1.375 0 0 Z " fill="#A3A3A3" transform="translate(30,56)"/>
</svg>
