<?xml version="1.0" encoding="UTF-8"?>
<svg version="1.1" xmlns="http://www.w3.org/2000/svg" width="299" height="300">
<path d="M0 0 C98.67 0 197.34 0 299 0 C299 99 299 198 299 300 C200.33 300 101.66 300 0 300 C0 201 0 102 0 0 Z " fill="#2A2B2C" transform="translate(0,0)"/>
<path d="M0 0 C14.38619587 -0.76732361 14.38619587 -0.76732361 19.15625 2.1484375 C21.31837675 4.76958719 22.76029292 7.38985184 24.3125 10.41015625 C25.85087378 12.60084399 27.40978917 14.75854953 29 16.91015625 C29.85573019 18.11254905 30.70850437 19.31705007 31.55859375 20.5234375 C39.58622686 31.87385315 47.7948323 43.09390376 56.05908203 54.27270508 C60.77386552 60.6577748 65.4284246 67.08483672 70.05078125 73.53710938 C72.71312369 77.24317219 75.41828718 80.87893965 78.3125 84.41015625 C82.23808833 82.845348 84.40801997 80.35273938 87.1875 77.22265625 C88.15665178 76.14111966 89.12675145 75.06043192 90.09765625 73.98046875 C90.61344238 73.40458008 91.12922852 72.82869141 91.66064453 72.23535156 C95.17220068 68.35530519 98.7761476 64.55988902 102.36474609 60.7512207 C105.68438993 57.21094024 108.89128819 53.60786073 111.99707031 49.87792969 C113.3125 48.41015625 113.3125 48.41015625 115.75 46.47265625 C118.68137476 44.11325705 120.92287201 41.4721334 123.359375 38.6171875 C125.42539649 36.28258322 127.59136164 34.0972976 129.8125 31.91015625 C132.5369154 29.22237165 135.14510312 26.51198762 137.625 23.59765625 C141.18392575 19.43863061 145.04685125 15.61761787 148.9621582 11.79760742 C149.45159912 11.31654541 149.94104004 10.8354834 150.4453125 10.33984375 C150.93652588 9.86466309 151.42773926 9.38948242 151.93383789 8.89990234 C153.57953939 7.21064049 153.57953939 7.21064049 155.44140625 4.06640625 C159.28443191 0.51095394 161.83976356 0.78651021 166.92773438 0.8828125 C167.98283203 0.93308594 169.03792969 0.98335937 170.125 1.03515625 C171.73665039 1.07576172 171.73665039 1.07576172 173.38085938 1.1171875 C176.02679568 1.1877458 178.6686124 1.28626869 181.3125 1.41015625 C181.3125 3.41015625 181.3125 3.41015625 179.16015625 5.69140625 C178.22042969 6.58859375 177.28070313 7.48578125 176.3125 8.41015625 C174.45691445 10.24205347 172.60277644 12.07541796 170.75 13.91015625 C169.35587891 15.286875 169.35587891 15.286875 167.93359375 16.69140625 C165.54992584 19.16388444 163.42768481 21.70894621 161.3125 24.41015625 C159.66820171 26.09889504 157.99865782 27.7632114 156.3125 29.41015625 C151.30886863 34.29467547 151.30886863 34.29467547 146.6875 39.53515625 C144.36307389 42.34893523 141.923032 44.86177978 139.3125 47.41015625 C134.30882085 52.29463467 134.30882085 52.29463467 129.6875 57.53515625 C126.90630366 60.90186761 123.88151275 63.91438979 120.72265625 66.92578125 C117.29082508 70.25644733 114.24711772 73.6922783 111.3125 77.47265625 C108.47548324 81.09682216 105.61932614 84.03370665 102.04296875 86.90625 C99.37934972 89.22113336 97.16311361 91.88618171 94.890625 94.578125 C93.43145215 96.27206576 91.91427682 97.85180109 90.3125 99.41015625 C91.89716585 104.45761043 94.95415619 108.0769664 98.1875 112.16015625 C102.68829065 117.94019784 107.06015573 123.77573055 111.25 129.78515625 C116.07082312 136.68906095 121.02090874 143.48583784 126.03100586 150.25341797 C129.99563786 155.61255931 133.91913434 160.99904792 137.8125 166.41015625 C142.27258583 172.6067926 146.77530808 178.76976057 151.3125 184.91015625 C160.22183073 196.97803658 169.06439363 209.09143949 177.625 221.41015625 C178.0996167 222.08715576 178.5742334 222.76415527 179.06323242 223.46166992 C182.3125 228.17539613 182.3125 228.17539613 182.3125 230.41015625 C168.39501687 231.84652976 154.51957846 232.88471105 140.52734375 233.17578125 C136.60779092 233.26943269 132.87169477 233.5742943 129.00390625 234.20703125 C124.19937959 234.87244243 119.86256248 235.37974108 115.3125 233.41015625 C109.34792854 228.48456584 105.3010933 221.75514621 101.18261719 215.29638672 C98.35798168 210.93700801 95.24183178 206.81275122 92.125 202.66015625 C90.98831861 201.11290749 89.85289165 199.56473636 88.71875 198.015625 C84.21375245 191.89816161 79.58874092 185.87330291 74.95703125 179.8515625 C74.49377441 179.24715332 74.03051758 178.64274414 73.55322266 178.02001953 C72.52979793 176.69210481 71.49146861 175.37569112 70.44921875 174.0625 C69.3125 172.41015625 69.3125 172.41015625 69.3125 170.41015625 C68.6525 170.41015625 67.9925 170.41015625 67.3125 170.41015625 C65.87963867 168.76123047 65.87963867 168.76123047 64.23046875 166.46484375 C63.62783203 165.6346875 63.02519531 164.80453125 62.40429688 163.94921875 C61.77587891 163.07007813 61.14746094 162.1909375 60.5 161.28515625 C56.58432282 155.85148928 52.6832971 150.48860621 48.3125 145.41015625 C47.5390625 146.19519531 46.765625 146.98023438 45.96875 147.7890625 C36.50896836 157.34479749 36.50896836 157.34479749 32.125 161.03515625 C28.29698893 164.29605457 25.05619333 167.95985364 21.73828125 171.73046875 C19.14514956 174.59502324 16.43935962 177.32508396 13.6875 180.03515625 C10.01261925 183.6693181 6.547657 187.37250214 3.19921875 191.3046875 C-0.07989566 194.96398908 -3.62412344 198.36377266 -7.13671875 201.796875 C-9.51045103 204.22876917 -11.56959985 206.75755941 -13.6875 209.41015625 C-15.33169185 211.09899867 -16.9990329 212.76557897 -18.6875 214.41015625 C-24.59247546 220.22968994 -30.30344458 226.10406076 -35.6875 232.41015625 C-36.6875 233.41015625 -36.6875 233.41015625 -38.72875977 233.52368164 C-39.60330811 233.51844482 -40.47785645 233.51320801 -41.37890625 233.5078125 C-42.32314453 233.50458984 -43.26738281 233.50136719 -44.24023438 233.49804688 C-45.23345703 233.48966797 -46.22667969 233.48128906 -47.25 233.47265625 C-48.24708984 233.46814453 -49.24417969 233.46363281 -50.27148438 233.45898438 C-52.74354849 233.44715632 -55.21549518 233.43067474 -57.6875 233.41015625 C-57.6875 231.41015625 -57.6875 231.41015625 -55.75 229.34765625 C-54.73119916 228.36637499 -53.71000076 227.38758157 -52.6875 226.41015625 C-47.73055223 221.55512704 -42.95009451 216.64251243 -38.43359375 211.375 C-36.03540999 208.67637264 -33.47138476 206.1670105 -30.875 203.66015625 C-28.97723453 201.70816891 -27.19018548 199.71499306 -25.40625 197.66015625 C-21.77036485 193.47502036 -18.00116985 189.43305487 -14.1875 185.41015625 C-12.77590808 183.91549073 -11.36445305 182.42069593 -9.953125 180.92578125 C-9.24349609 180.17490234 -8.53386719 179.42402344 -7.80273438 178.65039062 C4.37809212 165.74973689 16.5451336 152.82911623 28.328125 139.5625 C30.12379865 137.61483035 31.98916787 135.82708557 33.9375 134.03515625 C34.72125 133.16890625 35.505 132.30265625 36.3125 131.41015625 C36.03535525 127.85115578 34.18310629 125.63053674 32.03125 122.8828125 C31.35900391 122.01527344 30.68675781 121.14773437 29.99414062 120.25390625 C29.27419922 119.33609375 28.55425781 118.41828125 27.8125 117.47265625 C18.84487194 105.88783262 18.84487194 105.88783262 14.8125 99.91015625 C7.3277803 88.87091715 -1.01093067 78.40943943 -9.203125 67.890625 C-22.88852479 50.31719579 -36.20178644 32.49742499 -48.80859375 14.1328125 C-50.42778271 11.78650334 -52.07641167 9.46775018 -53.75 7.16015625 C-55.6875 4.41015625 -55.6875 4.41015625 -55.6875 3.41015625 C-40.56296281 1.59662036 -25.49106581 0.8581377 -10.265625 0.52001953 C-6.83623708 0.4147231 -3.42368512 0.22010863 0 0 Z " fill="#F7F7F7" transform="translate(88.6875,34.58984375)"/>
<path d="M0 0 C4.80323017 -0.18007314 9.59770983 -0.27202418 14.40429688 -0.28686523 C16.03394088 -0.3037736 17.66353006 -0.34364295 19.29199219 -0.40795898 C32.36308307 -0.90113205 32.36308307 -0.90113205 36.66503906 2.20043945 C40.14430018 5.67912644 42.53057489 9.77466794 45 14 C46.08978518 15.52719128 47.19648579 17.04262084 48.328125 18.5390625 C49.30390372 19.89973806 50.2778564 21.26172494 51.25 22.625 C57.50615823 31.33990221 63.8584486 39.9810167 70.23388672 48.60888672 C73.15956103 52.56991162 76.07950306 56.53515717 79 60.5 C80.1666389 62.08335379 81.33330558 63.66668712 82.5 65.25 C103.5 93.75 124.5 122.25 145.5 150.75 C146.3667334 151.92622925 146.3667334 151.92622925 147.25097656 153.1262207 C148.41452134 154.7053868 149.57793338 156.28465072 150.74121094 157.86401367 C153.70454688 161.88692899 156.67035854 165.90797964 159.640625 169.92578125 C163.10271273 174.61063107 166.5561307 179.30174122 170 184 C170.52239258 184.71220703 171.04478516 185.42441406 171.58300781 186.15820312 C173.01948581 188.12215953 174.44871681 190.09113219 175.875 192.0625 C176.29813477 192.64040283 176.72126953 193.21830566 177.15722656 193.8137207 C180 197.76880485 180 197.76880485 180 200 C152.37192757 203.31741017 152.37192757 203.31741017 144.02783203 198.16455078 C139.08094185 193.38464423 135.6973878 187.65554118 132.44628906 181.63623047 C130.54815318 178.17639399 128.29952672 175.0883154 125.9375 171.9375 C125.15757765 170.83776168 124.38029447 169.73614761 123.60546875 168.6328125 C120.40340187 164.13089669 117.07258113 159.72577646 113.75 155.3125 C108.78007533 148.71095857 103.83432472 142.09348538 98.9375 135.4375 C98.36346436 134.65729492 97.78942871 133.87708984 97.19799805 133.07324219 C94.88776231 129.93145146 92.5791632 126.78845989 90.27050781 123.64550781 C83.72141866 114.73239324 77.14592511 105.84122425 70.5 97 C63.26891297 87.38032164 56.12504253 77.69836274 49 68 C41.88897812 58.32463543 34.7649946 48.66118347 27.54516602 39.06665039 C22.99814581 33.01628342 18.50905895 26.92386758 14.03076172 20.82250977 C11.41551827 17.26264833 8.79288964 13.71098032 6.11328125 10.19921875 C5.68748779 9.64008789 5.26169434 9.08095703 4.82299805 8.50488281 C3.71165138 7.05086904 2.5943544 5.60140853 1.4765625 4.15234375 C0 2 0 2 0 0 Z " fill="#7C7D80" transform="translate(64,52)"/>
<path d="M0 0 C1.05509766 0.05027344 2.11019531 0.10054687 3.19726562 0.15234375 C4.80891602 0.19294922 4.80891602 0.19294922 6.453125 0.234375 C9.0990613 0.3049333 11.74087802 0.40345619 14.38476562 0.52734375 C14.05476563 1.18734375 13.72476563 1.84734375 13.38476562 2.52734375 C12.11503906 2.35332031 10.8453125 2.17929687 9.53710938 2 C-0.09736584 0.97731953 -0.09736584 0.97731953 -9.03466797 3.99951172 C-13.80940523 7.96549869 -17.8368675 12.61720799 -21.61523438 17.52734375 C-22.27523437 17.19734375 -22.93523437 16.86734375 -23.61523438 16.52734375 C-22.95136719 15.87507813 -22.2875 15.2228125 -21.60351562 14.55078125 C-20.72050781 13.67679688 -19.8375 12.8028125 -18.92773438 11.90234375 C-18.05761719 11.04382812 -17.1875 10.1853125 -16.29101562 9.30078125 C-13.50493312 6.60025152 -13.50493312 6.60025152 -11.52148438 3.21484375 C-7.64978113 -0.36544097 -5.12303074 -0.09696588 0 0 Z " fill="#DCDDDD" transform="translate(255.615234375,35.47265625)"/>
</svg>
